<svg width="85" height="52" viewBox="0 0 85 52" fill="none" xmlns="http://www.w3.org/2000/svg">
<g id="Group 2197">
<path id="Vector" d="M21.8581 25.3959L21.858 25.3964C21.612 26.2972 21.6169 26.9088 21.7931 27.3996C21.9707 27.8944 22.3504 28.3455 23.0219 28.8684C28.6383 33.2341 35.1107 34.7842 41.6288 34.89C48.6935 34.8311 54.8442 33.3505 60.2716 29.4899L60.2716 29.4898C60.9649 28.9968 61.4531 28.6463 61.8 28.3392C62.1416 28.0369 62.3014 27.8143 62.3796 27.5951C62.4584 27.3739 62.4767 27.0932 62.4092 26.6291C62.3414 26.1623 62.1974 25.5714 61.9951 24.7413L61.9914 24.7261L61.9911 24.7249C61.956 24.5793 61.9308 24.4338 61.9086 24.3061L61.9074 24.2992C61.884 24.1644 61.8637 24.0484 61.8369 23.937L61.8368 23.9366C61.4018 22.1251 60.9662 20.3136 60.5305 18.5019C59.4798 14.1319 58.4288 9.76121 57.3857 5.38958L57.3857 5.38933C57.272 4.91191 57.1105 4.5871 56.8867 4.34965C56.664 4.11328 56.3411 3.92274 55.8326 3.78246C55.8325 3.78243 55.8324 3.78241 55.8323 3.78239L55.9652 3.30038C53.2089 2.54182 50.495 1.6162 47.7901 0.68381C46.5315 0.250349 45.5702 0.340653 44.4749 1.27079L21.8581 25.3959ZM21.8581 25.3959C23.6271 18.8919 25.1427 12.3196 26.6491 5.75792L26.6492 5.75748C26.7956 5.11712 26.9861 4.69049 27.2545 4.38434C27.5176 4.08425 27.8963 3.85404 28.5079 3.6853M21.8581 25.3959L28.5079 3.6853M44.7986 1.65184C44.2137 2.14872 43.737 2.54774 43.3232 2.81851C42.9056 3.09171 42.4922 3.2758 42.0337 3.27066C41.577 3.26553 41.1637 3.07347 40.7443 2.79266C40.3274 2.51347 39.8449 2.10455 39.2508 1.59337L39.2508 1.59336C38.778 1.1865 38.3644 1.00154 37.9636 0.943933C37.5554 0.885263 37.1091 0.951127 36.5575 1.13361L44.7986 1.65184ZM44.7986 1.65184C45.2959 1.2296 45.7279 1.02656 46.1495 0.959795C46.5751 0.892384 47.0431 0.955384 47.6271 1.15651L44.7986 1.65184ZM28.5079 3.6853C30.7861 3.05728 33.0337 2.30777 35.2655 1.56354C35.6967 1.41974 36.1273 1.27615 36.5574 1.13366L28.5079 3.6853Z" fill="#484E58" stroke="#484E58"/>
<path id="Vector_2" d="M15.407 28.8228L15.4079 28.8226C15.6675 28.7638 15.8351 28.7779 15.9739 28.8235C16.1248 28.8731 16.2881 28.975 16.5191 29.1705L16.5192 29.1705C22.8453 34.5211 30.1412 37.5136 38.3589 38.2473C49.3906 39.232 59.1904 36.1796 67.7157 29.053C67.917 28.8849 68.0601 28.8214 68.1814 28.7968C68.3079 28.7711 68.4621 28.7769 68.7077 28.8319L68.7087 28.8322C72.4479 29.6618 76.1898 30.4789 80.0018 31.3113C80.8864 31.5045 81.7748 31.6985 82.6679 31.8937C81.7053 32.4432 80.749 32.989 79.7975 33.532C76.9618 35.1503 74.1685 36.7444 71.3786 38.3425C70.3323 38.9415 69.2889 39.5428 68.2463 40.1437C63.3445 42.9688 58.4617 45.7829 53.3926 48.2795L53.3925 48.2795C45.1702 52.3307 37.2434 51.708 29.2428 47.597C24.6404 45.2319 20.1542 42.6533 15.6728 40.0441C15.0711 39.6938 14.4695 39.3429 13.8677 38.9919C9.99021 36.7303 6.10501 34.4643 2.15194 32.3204L2.15195 32.3204L2.14883 32.3187C1.9024 32.1873 1.65861 32.0529 1.39224 31.9041C2.28999 31.708 3.1813 31.5136 4.06733 31.3204C7.91501 30.4813 11.6631 29.664 15.407 28.8228Z" fill="#484E58" stroke="#484E58"/>
</g>
</svg>
