<?xml version="1.0" encoding="utf-8"?>
<!-- Generator: Adobe Illustrator 24.2.3, SVG Export Plug-In . SVG Version: 6.00 Build 0)  -->
<svg version="1.1" id="Layer_1" xmlns="http://www.w3.org/2000/svg" xmlns:xlink="http://www.w3.org/1999/xlink" x="0px" y="0px"
	 viewBox="0 0 75 75" style="enable-background:new 0 0 75 75;" xml:space="preserve">
<style type="text/css">
	.st0{fill:#FD8126;}
	.st1{fill:#FFFFFF;}
</style>
<circle class="st0" cx="37.5" cy="37.5" r="37.5"/>
<g>
	
		<image style="overflow:visible;opacity:0.5;" width="158" height="225" xlink:href="CA43484C.png"  transform="matrix(0.24 0 0 0.24 19.56 11.4)">
	</image>
	<g>
		<g>
			<g>
				<g>
					<path class="st1" d="M37.5,13.6c1.1,2.2,2.1,4.4,3.3,6.4c2.7,4.6,5.5,9.2,8.3,13.8c1.6,2.6,3,5.3,3.7,8.2
						c1.1,4.6,0,8.9-2.7,12.7c-2.6,3.8-6.3,5.8-10.8,6.4C32,62.3,23.8,57.3,22,48.1c-0.7-3.5,0-6.8,1.6-9.9c1.3-2.6,2.8-5.1,4.4-7.6
						c3.4-5.2,6.4-10.6,9.1-16.2C37.2,14.1,37.3,14,37.5,13.6z M50.6,42.9c-0.1,0.5-0.1,1.1-0.2,1.6c-1.3,7.2-6.6,12.2-13.9,13.2
						c-0.7,0.1-1.3,0.2-2,0.3c0,0.1,0,0.2,0.1,0.2c5.4,0.7,10.2-0.4,13.8-4.7C51,50.4,51.7,46.8,50.6,42.9z"/>
				</g>
			</g>
			<path class="st0" d="M50.6,42.9c1,3.9,0.4,7.5-2.2,10.6c-3.6,4.3-8.5,5.4-13.8,4.7c0-0.1,0-0.2-0.1-0.2c0.7-0.1,1.3-0.2,2-0.3
				c7.3-1,12.6-6,13.9-13.2C50.5,43.9,50.6,43.4,50.6,42.9z"/>
		</g>
	</g>
</g>
</svg>
