<?xml version="1.0" encoding="utf-8"?>
<!-- Generator: Adobe Illustrator 27.2.0, SVG Export Plug-In . SVG Version: 6.00 Build 0)  -->
<svg version="1.1" id="Layer_1" xmlns="http://www.w3.org/2000/svg" xmlns:xlink="http://www.w3.org/1999/xlink" x="0px" y="0px"
	 viewBox="0 0 200 200" style="enable-background:new 0 0 200 200;" xml:space="preserve">
<style type="text/css">
	.st0{fill:#EBC73E;}
	.st1{fill:#232323;}
</style>
<g>
	<circle class="st0" cx="100" cy="100" r="100"/>
	<g>
		<g>
			<g>
				<polygon class="st1" points="83.4,144.95 73.38,144.95 64.01,139.32 73.04,139.32 				"/>
				<polygon class="st1" points="104.14,156.2 92.13,156.2 82.76,150.57 93.77,150.57 				"/>
				<polygon class="st1" points="82.07,139.32 73.04,139.32 62.67,133.7 70.72,133.7 				"/>
				<polygon class="st1" points="114.5,161.82 101.51,161.82 92.13,156.2 104.13,156.2 				"/>
				<polygon class="st1" points="127.49,161.82 114.5,161.82 104.14,156.2 116.14,156.2 				"/>
				<polygon class="st1" points="140.49,161.82 127.49,161.82 116.14,156.2 128.14,156.2 				"/>
				<polygon class="st1" points="153.48,161.82 140.49,161.82 128.14,156.2 140.12,156.2 				"/>
				<polygon class="st1" points="64.01,139.32 54.97,139.32 46.52,133.7 54.97,133.7 				"/>
				<polygon class="st1" points="82.76,150.57 71.74,150.57 63.36,144.95 73.38,144.95 				"/>
				<polygon class="st1" points="101.51,161.82 88.51,161.82 80.13,156.2 92.13,156.2 				"/>
				<polygon class="st1" points="104.78,150.57 93.77,150.57 83.4,144.95 93.43,144.95 				"/>
				<polygon class="st1" points="100.03,139.32 91.1,139.32 78.76,133.7 86.61,133.7 				"/>
				<polygon class="st1" points="103.45,144.95 93.43,144.95 82.07,139.32 91.1,139.32 				"/>
				<polyline class="st1" points="113.39,144.95 126.76,150.57 115.8,150.57 103.45,144.95 				"/>
				<polyline class="st1" points="115.8,150.57 128.14,156.2 116.14,156.2 104.78,150.57 				"/>
				<path class="st1" d="M120.93,38.18c-12.99,0-23.52,10.53-23.52,23.52c0,12.99,10.53,23.52,23.52,23.52
					c12.99,0,23.52-10.53,23.52-23.52C144.45,48.71,133.92,38.18,120.93,38.18 M120.93,75.78c-7.78,0-14.08-6.3-14.08-14.08
					c0-7.77,6.3-14.08,14.08-14.08s14.08,6.3,14.08,14.08C135.01,69.47,128.7,75.78,120.93,75.78"/>
				<rect x="93.11" y="91.88" class="st1" width="55.64" height="9.55"/>
				<rect x="49.4" y="90.53" class="st1" width="34.34" height="5.9"/>
				<rect x="56.24" y="73.24" class="st1" width="20.66" height="5.9"/>
				<rect x="63.62" y="65.86" class="st1" width="5.9" height="20.66"/>
				<path class="st1" d="M78.86,106.44v-5.9H54.27v5.9c0,0-0.5,13.37-7.75,21.37v5.9h40.09v-5.9
					C79.36,119.81,78.86,106.44,78.86,106.44 M53.67,127.8c0,0,5.67-8.27,6.4-21.37h12.99c0.73,13.09,6.4,21.37,6.4,21.37H53.67z"/>
				<path class="st1" d="M140.85,117.65v-9.55H101v9.55c0,0-0.8,21.67-12.56,34.62v9.55h64.97v-9.55
					C141.65,139.31,140.85,117.65,140.85,117.65 M100.03,152.27c0,0,9.19-13.4,10.37-34.62h21.05
					c1.18,21.22,10.37,34.62,10.37,34.62H100.03z"/>
			</g>
		</g>
	</g>
</g>
</svg>
