<?xml version="1.0" encoding="utf-8"?>
<!-- Generator: Adobe Illustrator 24.2.3, SVG Export Plug-In . SVG Version: 6.00 Build 0)  -->
<svg version="1.1" id="Layer_1" xmlns="http://www.w3.org/2000/svg" xmlns:xlink="http://www.w3.org/1999/xlink" x="0px" y="0px"
	 viewBox="0 0 138 48" style="enable-background:new 0 0 138 48;" xml:space="preserve">
<style type="text/css">
	.st0{fill:#FFFFFF;}
	.st1{fill:none;stroke:#EEEEEE;stroke-width:0.4;}
	.st2{opacity:0.88;fill:#4A6CF7;enable-background:new    ;}
	.st3{fill:none;stroke:#EEEEEE;stroke-width:0.5;}
	.st4{fill:#01AFF1;}
	.st5{fill:#FEFEFE;}
	.st6{fill:#2D2D2D;}
	.st7{font-family:'CodeNext-Trial-SemiBold';}
	.st8{font-size:8.7388px;}
</style>
<g>
	<path class="st0" d="M16,11h106c1.7,0,3,1.3,3,3v16c0,1.7-1.3,3-3,3H16c-1.7,0-3-1.3-3-3V14C13,12.3,14.3,11,16,11z"/>
	<path class="st1" d="M16,11.2h106c1.5,0,2.8,1.3,2.8,2.8v16c0,1.5-1.3,2.8-2.8,2.8H16c-1.5,0-2.8-1.3-2.8-2.8V14
		C13.2,12.5,14.5,11.2,16,11.2z"/>
</g>
<path class="st2" d="M24.1,27c2.3,0,4.1-1.9,4.1-4.2s-1.9-4.2-4.1-4.2c-2.3,0-4.1,1.9-4.1,4.2S21.9,27,24.1,27z"/>
<line class="st3" x1="35.8" y1="17" x2="35.8" y2="27"/>
<path class="st4" d="M21.3,26.3c-0.8-0.7-1.4-1.6-1.7-2.7c-1-3.3,1.2-6.7,4.6-7.2c1.9-0.3,3.6,0.3,5,1.8c0,0,0.1,0.1,0.1,0.1
	c0,0,0.1,0.1,0.1,0.1c1,1.3,1.4,2.8,1.2,4.4c-0.5,3-3.1,5-6,4.8c-0.4,0-0.7-0.1-1.1-0.2c-0.3-0.1-0.5-0.2-0.8-0.3
	c-0.2-0.1-0.3-0.1-0.5-0.2C21.8,26.8,21.5,26.6,21.3,26.3z M27.9,20.1c0-0.5-0.2-0.6-0.5-0.5c-0.1,0-0.2,0.1-0.3,0.1
	c-1.9,0.8-3.8,1.6-5.6,2.4c-0.1,0-0.2,0.1-0.3,0.2c-0.1,0.1-0.1,0.3,0,0.4c0.1,0,0.2,0.1,0.2,0.1c0.3,0.1,0.6,0.2,0.9,0.3
	c0.4,0.1,0.7,0.1,1-0.1c0.1-0.1,0.2-0.2,0.4-0.2c0.7-0.5,1.4-1,2.1-1.5c0,0,0.1-0.1,0.1-0.1c0.1,0,0.1,0,0.2,0c0,0.1,0,0.1,0,0.2
	c-0.1,0.1-0.1,0.1-0.2,0.2c-0.6,0.5-1.2,1.1-1.7,1.6c-0.3,0.3-0.3,0.5,0.1,0.8c0.6,0.4,1.1,0.8,1.7,1.2c0.2,0.1,0.3,0.2,0.5,0.2
	c0.3,0.1,0.4,0,0.6-0.2c0.1-0.2,0.1-0.3,0.2-0.5c0.1-0.9,0.3-1.8,0.4-2.8C27.8,21.1,27.8,20.6,27.9,20.1z"/>
<path class="st5" d="M27.9,20.1c-0.1,0.5-0.1,1-0.2,1.6c-0.1,0.9-0.3,1.8-0.4,2.8c0,0.2-0.1,0.3-0.2,0.5c-0.1,0.2-0.3,0.3-0.6,0.2
	c-0.2,0-0.3-0.1-0.5-0.2c-0.6-0.4-1.1-0.8-1.7-1.2C24,23.5,24,23.3,24.3,23c0.6-0.5,1.2-1.1,1.7-1.6c0.1-0.1,0.1-0.1,0.2-0.2
	c0,0,0.1-0.1,0-0.2c0-0.1-0.1,0-0.2,0c0,0-0.1,0.1-0.1,0.1c-0.7,0.5-1.4,1-2.1,1.5c-0.1,0.1-0.2,0.2-0.4,0.2c-0.3,0.2-0.6,0.2-1,0.1
	c-0.3-0.1-0.6-0.2-0.9-0.3c-0.1,0-0.2-0.1-0.2-0.1c-0.2-0.1-0.2-0.2,0-0.4c0.1-0.1,0.2-0.1,0.3-0.2c1.9-0.8,3.7-1.6,5.6-2.4
	c0.1,0,0.2-0.1,0.3-0.1C27.7,19.5,27.9,19.6,27.9,20.1z"/>
<text transform="matrix(1 0 0 1 40.4103 24.8895)" class="st6 st7 st8">Contact Telegram</text>
</svg>
