<svg width="115" height="40" viewBox="0 0 115 40" fill="none" xmlns="http://www.w3.org/2000/svg">
<g id="Frame" clip-path="url(#clip0_1_299)">
<g id="Group">
<path id="Vector" d="M0 14.0877C0 5.82631 5.91598 0 14.3388 0C21.8733 0 27.438 4.67068 28.4848 11.8108H19.8278C19.0909 9.57524 17.0868 8.22012 14.573 8.22012C11.2466 8.22012 9.00826 10.5727 9.00826 14.0877C9.00826 17.6028 11.2466 19.9553 14.573 19.9553C17.1625 19.9553 19.208 18.4901 19.9449 16.1307H28.5262C27.562 23.4291 21.9559 28.1754 14.3457 28.1754C5.91598 28.1754 0 22.3491 0 14.0877Z" fill="white"/>
<path id="Vector_2" d="M30.1033 17.3689C30.1033 10.9991 34.2011 6.75494 40 6.75494C42.3967 6.75494 44.5248 7.52537 46.1433 8.83921L46.4118 7.14015H53.5193V27.5976H46.4187L46.1433 25.8985C44.4835 27.2124 42.3967 27.9828 40 27.9828C34.0909 27.9828 30.1033 23.6217 30.1033 17.3689ZM41.8182 21.0009C43.8636 21.0009 45.2961 19.4944 45.2961 17.3758C45.2961 15.2158 43.8636 13.7506 41.8182 13.7506C39.7314 13.7506 38.2989 15.2158 38.2989 17.3758C38.2989 19.4944 39.7314 21.0009 41.8182 21.0009Z" fill="white"/>
<path id="Vector_3" d="M57.4311 0.57782H65.9298V27.5976H57.4311V0.57782Z" fill="white"/>
<g id="Group_2">
<path id="Vector_4" d="M78.4504 7.14017H70.062V27.5976H78.4504V7.14017Z" fill="white"/>
</g>
<path id="Vector_5" d="M82.1625 7.14017H89.7383L90.0069 9.22443C91.5152 7.56665 93.7535 6.71368 96.0744 6.71368C101.329 6.71368 103.919 10.2631 103.919 15.6698V27.5976H95.4959V16.3646C95.4959 14.6655 94.6488 13.7025 93.1749 13.7025C91.6322 13.7025 90.5441 14.7412 90.5441 16.4059V27.5976H82.1625V7.14017Z" fill="white"/>
<g id="Group_3">
<path id="Vector_6" d="M57.2865 37.4549L60.1722 29.4067H63.0096L65.9022 37.4549V37.7438H63.1129L62.8168 36.6363H60.365L60.0413 37.7438H57.2865V37.4549ZM62.3278 34.6483L61.5978 32.4127L60.8678 34.6483H62.3278Z" fill="white"/>
<path id="Vector_7" d="M66.2259 37.5718H68.6432C68.7259 37.9157 69.0358 38.0602 69.511 38.0602C70.1171 38.0602 70.5372 37.7507 70.5372 37.1453V36.9183C70.0964 37.166 69.573 37.3104 68.9876 37.3104C67.2452 37.3104 65.9986 36.0998 65.9986 34.3457C65.9986 32.5709 67.2383 31.2777 68.9876 31.2777C69.7245 31.2777 70.3719 31.5047 70.8678 31.9106L70.9366 31.436H73.1198V36.7188C73.1198 38.9544 71.6873 40.0069 69.5455 40.0069C67.7273 40 66.3912 39.2777 66.2259 37.5718ZM69.5523 35.4325C70.1722 35.4325 70.5785 35.0129 70.5785 34.4213C70.5785 33.8366 70.1722 33.4102 69.5523 33.4102C68.9325 33.4102 68.5262 33.8366 68.5262 34.4213C68.5262 35.0129 68.9325 35.4325 69.5523 35.4325Z" fill="white"/>
<path id="Vector_8" d="M73.9738 34.5864C73.9738 32.626 75.4132 31.2777 77.5 31.2777C79.7865 31.2777 81.3361 32.908 80.9711 35.1574H76.405C76.5634 35.6939 76.9421 35.9759 77.5344 35.9759C77.9063 35.9759 78.2231 35.8452 78.4504 35.632H80.8609C80.3995 37.0628 79.1322 37.8951 77.5 37.8951C75.4132 37.8951 73.9738 36.5537 73.9738 34.5864ZM78.6639 33.9673C78.5193 33.4789 78.1543 33.1694 77.5551 33.1694C76.9697 33.1694 76.5771 33.4652 76.4118 33.9673H78.6639Z" fill="white"/>
<path id="Vector_9" d="M81.8526 31.4359H84.1873L84.27 32.0757C84.7314 31.5666 85.427 31.2984 86.1433 31.2984C87.7617 31.2984 88.5606 32.3921 88.5606 34.0568V37.7369H85.9642V34.27C85.9642 33.7472 85.7025 33.4514 85.2479 33.4514C84.7727 33.4514 84.4353 33.7747 84.4353 34.2838V37.7369H81.8526V31.4359Z" fill="white"/>
<path id="Vector_10" d="M89.3113 34.5864C89.3113 32.626 90.7438 31.2777 92.8375 31.2777C94.7314 31.2777 96.1019 32.4059 96.2948 34.1462H93.9118C93.7328 33.7266 93.354 33.4652 92.8857 33.4652C92.2521 33.4652 91.8251 33.9192 91.8251 34.5864C91.8251 35.2537 92.2521 35.7077 92.8857 35.7077C93.3746 35.7077 93.7466 35.4325 93.9118 35.0198H96.2948C96.1019 36.7601 94.7452 37.902 92.8375 37.902C90.7438 37.8951 89.3113 36.5537 89.3113 34.5864Z" fill="white"/>
<path id="Vector_11" d="M97.6171 39.5873L98.5124 37.4549L96.2466 31.6905V31.4359H98.8705L99.4421 33.1831L99.8209 34.6483L100.2 33.1831L100.771 31.4359H103.395V31.6973L100.275 39.8143H97.6171V39.5873Z" fill="white"/>
</g>
<path id="Vector_12" d="M74.27 5.48238C76.9766 5.48238 78.9463 3.43251 78.9463 0.57782H69.5592C69.5592 3.43251 71.5289 5.48238 74.27 5.48238Z" fill="white"/>
<path id="Vector_13" d="M110.937 15.3052C111.061 15.5529 111.178 15.7936 111.302 16.0413C112.025 17.5271 112.899 18.9235 113.795 20.313C114.146 20.8633 114.456 21.4549 114.704 22.0533C115.165 23.1745 115.083 24.282 114.518 25.3689C113.85 26.6414 112.796 27.3981 111.391 27.5632C109.814 27.7489 108.526 27.1298 107.61 25.8229C107.101 25.0937 106.804 24.2751 106.846 23.374C106.88 22.6449 107.101 21.9639 107.459 21.331C107.872 20.6019 108.326 19.8934 108.774 19.1917C109.497 18.043 110.152 16.8598 110.744 15.6423C110.792 15.5391 110.847 15.4359 110.895 15.3396C110.895 15.3259 110.909 15.3259 110.937 15.3052ZM110.117 26.7446C111.384 26.9647 112.541 26.7309 113.506 25.8229C114.394 24.9837 114.587 23.7936 114.325 22.7825C113.994 25.3001 112.472 26.4626 110.117 26.7446Z" fill="white"/>
</g>
</g>
<defs>
<clipPath id="clip0_1_299">
<rect width="115" height="40" fill="white"/>
</clipPath>
</defs>
</svg>
