<svg width="702" height="277" viewBox="0 0 702 277" fill="none" xmlns="http://www.w3.org/2000/svg">
<path d="M64.3953 120.963C28.3075 120.963 2.97973 95.942 2.97973 60.4816C2.97973 25.0211 28.3075 0 64.3953 0C96.6758 0 120.514 20.05 124.983 50.7051H87.9021C84.7569 41.0943 76.1487 35.2947 65.3886 35.2947C51.1521 35.2947 41.5507 45.4026 41.5507 60.4816C41.5507 75.5605 51.1521 85.6684 65.3886 85.6684C76.4798 85.6684 85.2535 79.3717 88.3987 69.2638H125.149C121.01 100.582 97.0069 120.963 64.3953 120.963Z" fill="white"/>
<path d="M123.859 118.478V114.501L163.92 2.48554H203.319L243.545 114.501V118.478H204.809L200.67 103.067H166.569L162.099 118.478H123.859ZM173.687 75.3948H193.883L183.785 44.2427L173.687 75.3948Z" fill="white"/>
<path d="M254.86 118.478V2.48554H293.266V84.3428H337.631V118.478H254.86Z" fill="white"/>
<path d="M348.727 118.478V87.4911H364.784V32.6435H349.058V2.48554H418.916V32.6435H403.19V87.4911H419.247V118.478H348.727Z" fill="white"/>
<path d="M435.005 118.478V2.48554H465.133L501.387 53.3563L499.897 27.6724V2.48554H537.143V118.478H506.849L470.762 67.7725L472.417 94.9478V118.478H435.005Z" fill="white"/>
<path d="M0 274.514V270.538L40.0609 158.522H79.4595L119.686 270.538V274.514H80.9494L76.8109 259.104H42.7095L38.2399 274.514H0ZM49.8278 231.432H70.0237L59.9257 200.28L49.8278 231.432Z" fill="white"/>
<path d="M180.661 277C144.407 277 119.079 252.145 119.079 216.518C119.079 181.058 144.407 156.037 180.329 156.037C211.782 156.037 234.627 173.767 240.586 201.439H202.843C198.042 194.149 191.255 190.669 181.985 190.669C167.086 190.669 156.823 201.274 156.823 216.85C156.823 232.426 166.755 242.865 182.15 242.865C191.421 242.865 199.036 239.385 203.174 231.929H176.688V209.228H241.911C244.89 249.825 217.742 277 180.661 277Z" fill="white"/>
<path d="M256.154 274.514V158.522H335.779V188.515H293.235V201.771H332.302V230.769H293.235V244.025H336.937V274.514H256.154Z" fill="white"/>
<path d="M353.662 274.514V158.522H383.791L420.044 209.393L418.554 183.709V158.522H455.801V274.514H425.507L389.419 223.809L391.074 250.985V274.514H353.662Z" fill="white"/>
<path d="M531.38 277C495.293 277 469.965 251.979 469.965 216.518C469.965 181.058 495.293 156.037 531.38 156.037C563.661 156.037 587.499 176.087 591.968 206.742H554.887C551.742 197.131 543.134 191.332 532.374 191.332C518.137 191.332 508.536 201.439 508.536 216.518C508.536 231.597 518.137 241.705 532.374 241.705C543.465 241.705 552.239 235.409 555.384 225.301H592.134C587.995 256.619 563.992 277 531.38 277Z" fill="white"/>
<path d="M625.686 274.514V230.935L587.611 162.499V158.522H628.997L637.605 176.584L644.888 192.823L652.007 176.584L660.615 158.522H702V162.665L663.926 230.769V274.514H625.686Z" fill="white"/>
</svg>
