<svg width="1222" height="23" viewBox="0 0 1222 23" fill="none" xmlns="http://www.w3.org/2000/svg">
<path d="M9.01112 18.9955C3.81739 18.9955 0 15.0938 0 9.75446C0 4.41518 3.81739 0.513392 9.01112 0.513392C13.244 0.513392 16.6199 3.05469 17.6847 6.95647H15.2955C14.3607 4.38951 11.9975 2.77232 9.06306 2.77232C5.16776 2.77232 2.36315 5.67299 2.36315 9.75446C2.36315 13.8359 5.16776 16.7366 9.06306 16.7366C12.0235 16.7366 14.3866 15.0424 15.3215 12.3984H17.7106C16.6719 16.3772 13.244 18.9955 9.01112 18.9955Z" fill="#616771"/>
<path d="M21.1951 18.7388V0.770088H23.4024V18.7388H21.1951Z" fill="#616771"/>
<path d="M28.0169 18.7388V5.13393H30.2243V18.7388H28.0169ZM27.4197 1.6942C27.4197 0.71875 28.1468 0 29.1336 0C30.1204 0 30.8475 0.71875 30.8475 1.6942C30.8475 2.59263 30.1204 3.31138 29.1336 3.31138C28.1468 3.31138 27.4197 2.59263 27.4197 1.6942Z" fill="#616771"/>
<path d="M40.8635 18.9699C36.7605 18.9699 33.8 16.0435 33.8 11.9364C33.8 7.82924 36.7605 4.9029 40.8635 4.9029C45.1743 4.9029 48.2126 7.95759 47.9529 12.6808H36.1112C36.3969 15.1964 38.2666 16.9163 40.8635 16.9163C42.7852 16.9163 44.3952 16.0949 45.1483 14.6574H47.5374C46.5766 17.327 44.0317 18.9699 40.8635 18.9699ZM36.1632 10.8069H45.6417C45.1743 8.57366 43.3305 6.95647 40.8635 6.95647C38.4224 6.95647 36.6046 8.47098 36.1632 10.8069Z" fill="#616771"/>
<path d="M51.4496 18.7388V5.13393H53.6569V7.13616C54.7736 5.75 56.4355 4.92857 58.565 4.92857C62.1746 4.92857 64.304 7.16183 64.304 11.192V18.7388H62.0967V11.269C62.0967 8.39397 60.7463 6.90513 58.1754 6.90513C55.4487 6.90513 53.6569 8.65067 53.6569 11.2433V18.7388H51.4496Z" fill="#616771"/>
<path d="M74.05 18.8158C70.9078 18.8158 69.4536 17.4554 69.4536 14.4777V6.95647H66.571V5.13393H69.4536V1.92522L71.6609 1.6942V5.13393H75.4523V6.95647H71.6609V14.221C71.6609 16.0179 72.388 16.7879 74.3097 16.7879C74.6992 16.7879 75.1666 16.7623 75.6341 16.7109V18.7388C75.0887 18.7902 74.5174 18.8158 74.05 18.8158Z" fill="#616771"/>
<path d="M83.7959 18.9442C80.3421 18.9442 78.1348 17.2757 78.0049 14.5033H80.2642C80.3681 16.0435 81.7444 16.9163 83.8219 16.9163C85.9514 16.9163 87.3536 16.2489 87.3536 14.9141C87.3536 13.7589 86.5486 13.3225 83.6661 12.8862C79.7189 12.3214 78.2386 11.2176 78.2386 8.80469C78.2386 6.21205 80.6797 4.87723 83.7959 4.87723C87.0161 4.87723 89.0416 6.44308 89.1974 8.98437H86.9641C86.8343 7.67522 85.6137 6.87946 83.744 6.87946C81.6665 6.87946 80.472 7.59821 80.472 8.80469C80.472 10.0112 81.3549 10.5246 84.2114 10.8839C87.4315 11.2946 89.6129 12.2188 89.6129 14.8114C89.6129 17.635 87.042 18.9442 83.7959 18.9442Z" fill="#616771"/>
<path d="M105.937 18.9699C101.834 18.9699 98.8738 16.0435 98.8738 11.9364C98.8738 7.82924 101.834 4.9029 105.937 4.9029C110.248 4.9029 113.286 7.95759 113.027 12.6808H101.185C101.471 15.1964 103.34 16.9163 105.937 16.9163C107.859 16.9163 109.469 16.0949 110.222 14.6574H112.611C111.65 17.327 109.105 18.9699 105.937 18.9699ZM101.237 10.8069H110.715C110.248 8.57366 108.404 6.95647 105.937 6.95647C103.496 6.95647 101.678 8.47098 101.237 10.8069Z" fill="#616771"/>
<path d="M114.249 18.7388V18.6105L119.417 11.8594L114.431 5.26228V5.13393H116.898L119.079 8.00893L120.767 10.3192L124.611 5.13393H127.052V5.26228L122.092 11.8337L127.311 18.6105V18.7388H124.766L122.429 15.7098L120.741 13.4252L119.079 15.7098L116.768 18.7388H114.249Z" fill="#616771"/>
<path d="M137.517 18.9699C135.362 18.9699 133.544 18.1484 132.324 16.7366V22.692H130.116V5.13393H132.324V7.13616C133.544 5.72433 135.362 4.9029 137.517 4.9029C141.543 4.9029 144.425 7.85491 144.425 11.9364C144.425 16.0179 141.543 18.9699 137.517 18.9699ZM132.272 11.9364C132.272 14.8627 134.349 16.9163 137.232 16.9163C140.114 16.9163 142.166 14.8627 142.166 11.9364C142.166 9.01005 140.114 6.95647 137.232 6.95647C134.349 6.95647 132.272 9.01005 132.272 11.9364Z" fill="#616771"/>
<path d="M154.045 18.9699C149.942 18.9699 146.982 16.0435 146.982 11.9364C146.982 7.82924 149.942 4.9029 154.045 4.9029C158.356 4.9029 161.394 7.95759 161.135 12.6808H149.293C149.579 15.1964 151.448 16.9163 154.045 16.9163C155.967 16.9163 157.577 16.0949 158.33 14.6574H160.719C159.758 17.327 157.213 18.9699 154.045 18.9699ZM149.345 10.8069H158.823C158.356 8.57366 156.512 6.95647 154.045 6.95647C151.604 6.95647 149.786 8.47098 149.345 10.8069Z" fill="#616771"/>
<path d="M164.631 18.7388V5.13393H166.839V7.16183C167.799 5.69866 169.228 4.92857 171.02 4.92857C171.539 4.92857 172.136 5.00558 172.759 5.1596V7.13616C172.24 7.00781 171.747 6.9308 171.279 6.9308C168.734 6.9308 166.839 8.72768 166.839 11.346V18.7388H164.631Z" fill="#616771"/>
<path d="M175.84 18.7388V5.13393H178.048V18.7388H175.84ZM175.243 1.6942C175.243 0.71875 175.97 0 176.957 0C177.944 0 178.671 0.71875 178.671 1.6942C178.671 2.59263 177.944 3.31138 176.957 3.31138C175.97 3.31138 175.243 2.59263 175.243 1.6942Z" fill="#616771"/>
<path d="M188.687 18.9699C184.584 18.9699 181.623 16.0435 181.623 11.9364C181.623 7.82924 184.584 4.9029 188.687 4.9029C192.998 4.9029 196.036 7.95759 195.776 12.6808H183.935C184.22 15.1964 186.09 16.9163 188.687 16.9163C190.609 16.9163 192.219 16.0949 192.972 14.6574H195.361C194.4 17.327 191.855 18.9699 188.687 18.9699ZM183.987 10.8069H193.465C192.998 8.57366 191.154 6.95647 188.687 6.95647C186.246 6.95647 184.428 8.47098 183.987 10.8069Z" fill="#616771"/>
<path d="M199.273 18.7388V5.13393H201.48V7.13616C202.597 5.75 204.259 4.92857 206.388 4.92857C209.998 4.92857 212.127 7.16183 212.127 11.192V18.7388H209.92V11.269C209.92 8.39397 208.57 6.90513 205.999 6.90513C203.272 6.90513 201.48 8.65067 201.48 11.2433V18.7388H199.273Z" fill="#616771"/>
<path d="M222.543 18.9699C218.414 18.9699 215.479 16.0692 215.479 11.9621C215.479 7.80357 218.388 4.9029 222.543 4.9029C225.944 4.9029 228.515 6.82813 229.32 9.98549H227.113C226.412 8.06027 224.75 6.95647 222.594 6.95647C219.712 6.95647 217.738 8.98438 217.738 11.9621C217.738 14.9141 219.712 16.9163 222.594 16.9163C224.802 16.9163 226.438 15.8125 227.113 13.8616H229.372C228.593 17.019 225.97 18.9699 222.543 18.9699Z" fill="#616771"/>
<path d="M238.722 18.9699C234.619 18.9699 231.659 16.0435 231.659 11.9364C231.659 7.82924 234.619 4.9029 238.722 4.9029C243.033 4.9029 246.071 7.95759 245.812 12.6808H233.97C234.256 15.1964 236.125 16.9163 238.722 16.9163C240.644 16.9163 242.254 16.0949 243.007 14.6574H245.396C244.435 17.327 241.89 18.9699 238.722 18.9699ZM234.022 10.8069H243.5C243.033 8.57366 241.189 6.95647 238.722 6.95647C236.281 6.95647 234.463 8.47098 234.022 10.8069Z" fill="#616771"/>
<path d="M261.999 18.9699C257.948 18.9699 255.091 16.0179 255.091 11.9364C255.091 7.85491 257.948 4.9029 261.999 4.9029C264.154 4.9029 265.972 5.72433 267.193 7.13616V0.770088H269.4V18.7388H267.193V16.7366C265.972 18.1484 264.154 18.9699 261.999 18.9699ZM257.351 11.9364C257.351 14.8627 259.402 16.9163 262.259 16.9163C265.167 16.9163 267.219 14.8627 267.219 11.9364C267.219 9.01005 265.167 6.95647 262.259 6.95647C259.402 6.95647 257.351 9.01005 257.351 11.9364Z" fill="#616771"/>
<path d="M279.488 18.9442C275.878 18.9442 273.827 16.6596 273.827 12.6808V5.13393H276.034V12.6808C276.034 15.4788 277.332 16.9676 279.877 16.9676C282.604 16.9676 284.344 15.2734 284.344 12.6808V5.13393H286.551V18.7388H284.344V16.7623C283.201 18.1741 281.539 18.9442 279.488 18.9442Z" fill="#616771"/>
<path d="M290.975 18.7388V5.13393H293.182V7.16183C294.143 5.69866 295.571 4.92857 297.363 4.92857C297.882 4.92857 298.48 5.00558 299.103 5.1596V7.13616C298.584 7.00781 298.09 6.9308 297.623 6.9308C295.078 6.9308 293.182 8.72768 293.182 11.346V18.7388H290.975Z" fill="#616771"/>
<path d="M302.184 18.7388V5.13393H304.391V18.7388H302.184ZM301.587 1.6942C301.587 0.71875 302.314 0 303.301 0C304.287 0 305.014 0.71875 305.014 1.6942C305.014 2.59263 304.287 3.31138 303.301 3.31138C302.314 3.31138 301.587 2.59263 301.587 1.6942Z" fill="#616771"/>
<path d="M309.006 18.7388V5.13393H311.213V7.13616C312.33 5.75 313.992 4.92857 316.121 4.92857C319.731 4.92857 321.86 7.16183 321.86 11.192V18.7388H319.653V11.269C319.653 8.39397 318.303 6.90513 315.732 6.90513C313.005 6.90513 311.213 8.65067 311.213 11.2433V18.7388H309.006Z" fill="#616771"/>
<path d="M332.457 23C329.237 23 326.406 21.6138 325.809 18.7645H328.094C328.588 20.3047 330.354 20.9978 332.249 20.9978C335.08 20.9978 337.105 19.5346 337.105 16.7623V15.9152C335.859 17.25 334.067 18.0971 332.016 18.0971C328.094 18.0971 325.212 15.2734 325.212 11.5257C325.212 7.7779 328.094 4.9029 332.016 4.9029C334.067 4.9029 335.859 5.72433 337.105 7.08482V5.13393H339.313V16.8136C339.313 20.7154 336.352 23 332.457 23ZM327.471 11.5257C327.471 14.144 329.445 16.1205 332.301 16.1205C335.158 16.1205 337.157 14.221 337.157 11.5257C337.157 8.77902 335.158 6.9308 332.301 6.9308C329.445 6.9308 327.471 8.8817 327.471 11.5257Z" fill="#616771"/>
<path d="M356.877 18.9699C352.696 18.9699 349.71 16.0179 349.71 11.9364C349.71 7.85491 352.696 4.9029 356.877 4.9029C361.084 4.9029 364.044 7.85491 364.044 11.9364C364.044 16.0179 361.084 18.9699 356.877 18.9699ZM351.969 11.9364C351.969 14.8371 354.02 16.9163 356.877 16.9163C359.733 16.9163 361.811 14.8371 361.811 11.9364C361.811 9.03572 359.733 6.95647 356.877 6.95647C354.02 6.95647 351.969 9.03572 351.969 11.9364Z" fill="#616771"/>
<path d="M373.091 18.9442C369.482 18.9442 367.43 16.6596 367.43 12.6808V5.13393H369.638V12.6808C369.638 15.4788 370.936 16.9676 373.481 16.9676C376.208 16.9676 377.948 15.2734 377.948 12.6808V5.13393H380.155V18.7388H377.948V16.7623C376.805 18.1741 375.143 18.9442 373.091 18.9442Z" fill="#616771"/>
<path d="M384.579 18.7388V5.13393H386.786V7.16183C387.747 5.69866 389.175 4.92857 390.967 4.92857C391.486 4.92857 392.083 5.00558 392.707 5.1596V7.13616C392.187 7.00781 391.694 6.9308 391.226 6.9308C388.682 6.9308 386.786 8.72768 386.786 11.346V18.7388H384.579Z" fill="#616771"/>
<path d="M410.011 18.9699C407.855 18.9699 406.037 18.1484 404.817 16.7366V22.692H402.609V5.13393H404.817V7.13616C406.037 5.72433 407.855 4.9029 410.011 4.9029C414.036 4.9029 416.918 7.85491 416.918 11.9364C416.918 16.0179 414.036 18.9699 410.011 18.9699ZM404.765 11.9364C404.765 14.8627 406.842 16.9163 409.725 16.9163C412.607 16.9163 414.659 14.8627 414.659 11.9364C414.659 9.01005 412.607 6.95647 409.725 6.95647C406.842 6.95647 404.765 9.01005 404.765 11.9364Z" fill="#616771"/>
<path d="M420.514 18.7388V0.770088H422.721V18.7388H420.514Z" fill="#616771"/>
<path d="M433.204 18.9699C429.153 18.9699 426.297 16.0179 426.297 11.9364C426.297 7.85491 429.153 4.9029 433.204 4.9029C435.334 4.9029 437.126 5.72433 438.346 7.05915V5.13393H440.554V18.7388H438.346V16.8136C437.126 18.1484 435.334 18.9699 433.204 18.9699ZM428.556 11.9364C428.556 14.8627 430.608 16.9163 433.464 16.9163C436.321 16.9163 438.398 14.8627 438.398 11.9364C438.398 9.01005 436.321 6.95647 433.464 6.95647C430.608 6.95647 428.556 9.01005 428.556 11.9364Z" fill="#616771"/>
<path d="M451.188 18.9699C447.059 18.9699 444.125 16.0692 444.125 11.9621C444.125 7.80357 447.033 4.9029 451.188 4.9029C454.59 4.9029 457.161 6.82813 457.966 9.98549H455.759C455.058 8.06027 453.396 6.95647 451.24 6.95647C448.358 6.95647 446.384 8.98438 446.384 11.9621C446.384 14.9141 448.358 16.9163 451.24 16.9163C453.448 16.9163 455.084 15.8125 455.759 13.8616H458.018C457.239 17.019 454.616 18.9699 451.188 18.9699Z" fill="#616771"/>
<path d="M467.368 18.9699C463.265 18.9699 460.305 16.0435 460.305 11.9364C460.305 7.82924 463.265 4.9029 467.368 4.9029C471.679 4.9029 474.717 7.95759 474.457 12.6808H462.616C462.901 15.1964 464.771 16.9163 467.368 16.9163C469.29 16.9163 470.9 16.0949 471.653 14.6574H474.042C473.081 17.327 470.536 18.9699 467.368 18.9699ZM462.668 10.8069H472.146C471.679 8.57366 469.835 6.95647 467.368 6.95647C464.927 6.95647 463.109 8.47098 462.668 10.8069Z" fill="#616771"/>
<path d="M476.703 21.5882V21.4342L477.898 16.1719H480.313V16.6083L478.729 21.5882H476.703Z" fill="#616771"/>
<path d="M497.416 18.9699C493.365 18.9699 490.508 16.0179 490.508 11.9364C490.508 7.85491 493.365 4.9029 497.416 4.9029C499.545 4.9029 501.337 5.72433 502.558 7.05915V5.13393H504.765V18.7388H502.558V16.8136C501.337 18.1484 499.545 18.9699 497.416 18.9699ZM492.768 11.9364C492.768 14.8627 494.819 16.9163 497.676 16.9163C500.532 16.9163 502.61 14.8627 502.61 11.9364C502.61 9.01005 500.532 6.95647 497.676 6.95647C494.819 6.95647 492.768 9.01005 492.768 11.9364Z" fill="#616771"/>
<path d="M509.375 18.7388V5.13393H511.582V7.13616C512.699 5.75 514.361 4.92857 516.491 4.92857C520.1 4.92857 522.23 7.16183 522.23 11.192V18.7388H520.022V11.269C520.022 8.39397 518.672 6.90513 516.101 6.90513C513.374 6.90513 511.582 8.65067 511.582 11.2433V18.7388H509.375Z" fill="#616771"/>
<path d="M532.489 18.9699C528.438 18.9699 525.581 16.0179 525.581 11.9364C525.581 7.85491 528.438 4.9029 532.489 4.9029C534.644 4.9029 536.462 5.72433 537.683 7.13616V0.770088H539.89V18.7388H537.683V16.7366C536.462 18.1484 534.644 18.9699 532.489 18.9699ZM527.84 11.9364C527.84 14.8627 529.892 16.9163 532.748 16.9163C535.657 16.9163 537.708 14.8627 537.708 11.9364C537.708 9.01005 535.657 6.95647 532.748 6.95647C529.892 6.95647 527.84 9.01005 527.84 11.9364Z" fill="#616771"/>
<path d="M554.183 18.7388L549.249 5.26228V5.13393H551.534L553.04 9.44643L555.091 15.4275L559.039 6.05804H560.623L564.518 15.4275L566.596 9.44643L568.128 5.13393H570.387V5.26228L565.427 18.7388H563.739L561.506 13.3996L559.818 9.2154L558.104 13.3996L555.845 18.7388H554.183Z" fill="#616771"/>
<path d="M578.8 18.9699C574.697 18.9699 571.736 16.0435 571.736 11.9364C571.736 7.82924 574.697 4.9029 578.8 4.9029C583.111 4.9029 586.149 7.95759 585.889 12.6808H574.048C574.333 15.1964 576.203 16.9163 578.8 16.9163C580.721 16.9163 582.332 16.0949 583.085 14.6574H585.474C584.513 17.327 581.968 18.9699 578.8 18.9699ZM574.099 10.8069H583.578C583.111 8.57366 581.267 6.95647 578.8 6.95647C576.359 6.95647 574.541 8.47098 574.099 10.8069Z" fill="#616771"/>
<path d="M601.064 18.9442C597.61 18.9442 595.403 17.2757 595.273 14.5033H597.532C597.636 16.0435 599.012 16.9163 601.09 16.9163C603.219 16.9163 604.622 16.2489 604.622 14.9141C604.622 13.7589 603.817 13.3225 600.934 12.8862C596.987 12.3214 595.507 11.2176 595.507 8.80469C595.507 6.21205 597.948 4.87723 601.064 4.87723C604.284 4.87723 606.31 6.44308 606.465 8.98437H604.232C604.102 7.67522 602.882 6.87946 601.012 6.87946C598.934 6.87946 597.74 7.59821 597.74 8.80469C597.74 10.0112 598.623 10.5246 601.479 10.8839C604.7 11.2946 606.881 12.2188 606.881 14.8114C606.881 17.635 604.31 18.9442 601.064 18.9442Z" fill="#616771"/>
<path d="M610.359 18.7388V0.770088H612.566V7.13616C613.683 5.75 615.397 4.92857 617.37 4.92857C621.136 4.92857 623.213 7.16183 623.213 11.192V18.7388H621.006V11.269C621.006 8.39397 619.655 6.90513 617.085 6.90513C614.358 6.90513 612.566 8.65067 612.566 11.2433V18.7388H610.359Z" fill="#616771"/>
<path d="M633.472 18.9699C629.421 18.9699 626.565 16.0179 626.565 11.9364C626.565 7.85491 629.421 4.9029 633.472 4.9029C635.602 4.9029 637.394 5.72433 638.614 7.05915V5.13393H640.821V18.7388H638.614V16.8136C637.394 18.1484 635.602 18.9699 633.472 18.9699ZM628.824 11.9364C628.824 14.8627 630.875 16.9163 633.732 16.9163C636.589 16.9163 638.666 14.8627 638.666 11.9364C638.666 9.01005 636.589 6.95647 633.732 6.95647C630.875 6.95647 628.824 9.01005 628.824 11.9364Z" fill="#616771"/>
<path d="M645.432 18.7388V5.13393H647.639V7.16183C648.6 5.69866 650.028 4.92857 651.82 4.92857C652.339 4.92857 652.936 5.00558 653.56 5.1596V7.13616C653.04 7.00781 652.547 6.9308 652.079 6.9308C649.535 6.9308 647.639 8.72768 647.639 11.346V18.7388H645.432Z" fill="#616771"/>
<path d="M662.082 18.9699C657.979 18.9699 655.019 16.0435 655.019 11.9364C655.019 7.82924 657.979 4.9029 662.082 4.9029C666.393 4.9029 669.431 7.95759 669.172 12.6808H657.33C657.615 15.1964 659.485 16.9163 662.082 16.9163C664.004 16.9163 665.614 16.0949 666.367 14.6574H668.756C667.795 17.327 665.25 18.9699 662.082 18.9699ZM657.382 10.8069H666.86C666.393 8.57366 664.549 6.95647 662.082 6.95647C659.641 6.95647 657.823 8.47098 657.382 10.8069Z" fill="#616771"/>
<path d="M679.49 18.7388V5.13393H681.697V18.7388H679.49ZM678.893 1.6942C678.893 0.71875 679.62 0 680.607 0C681.593 0 682.321 0.71875 682.321 1.6942C682.321 2.59263 681.593 3.31138 680.607 3.31138C679.62 3.31138 678.893 2.59263 678.893 1.6942Z" fill="#616771"/>
<path d="M691.921 18.8158C688.779 18.8158 687.325 17.4554 687.325 14.4777V6.95647H684.442V5.13393H687.325V1.92522L689.532 1.6942V5.13393H693.323V6.95647H689.532V14.221C689.532 16.0179 690.259 16.7879 692.181 16.7879C692.57 16.7879 693.038 16.7623 693.505 16.7109V18.7388C692.96 18.7902 692.388 18.8158 691.921 18.8158Z" fill="#616771"/>
<path d="M706.469 18.7388L701.535 5.26228V5.13393H703.821L705.327 9.44643L707.378 15.4275L711.326 6.05804H712.91L716.805 15.4275L718.882 9.44643L720.415 5.13393H722.674V5.26228L717.714 18.7388H716.026L713.793 13.3996L712.105 9.2154L710.391 13.3996L708.131 18.7388H706.469Z" fill="#616771"/>
<path d="M725.442 18.7388V5.13393H727.65V18.7388H725.442ZM724.845 1.6942C724.845 0.71875 725.572 0 726.559 0C727.546 0 728.273 0.71875 728.273 1.6942C728.273 2.59263 727.546 3.31138 726.559 3.31138C725.572 3.31138 724.845 2.59263 724.845 1.6942Z" fill="#616771"/>
<path d="M737.873 18.8158C734.731 18.8158 733.277 17.4554 733.277 14.4777V6.95647H730.394V5.13393H733.277V1.92522L735.484 1.6942V5.13393H739.276V6.95647H735.484V14.221C735.484 16.0179 736.211 16.7879 738.133 16.7879C738.523 16.7879 738.99 16.7623 739.457 16.7109V18.7388C738.912 18.7902 738.341 18.8158 737.873 18.8158Z" fill="#616771"/>
<path d="M742.763 18.7388V0.770088H744.971V7.13616C746.087 5.75 747.801 4.92857 749.775 4.92857C753.54 4.92857 755.618 7.16183 755.618 11.192V18.7388H753.41V11.269C753.41 8.39397 752.06 6.90513 749.489 6.90513C746.762 6.90513 744.971 8.65067 744.971 11.2433V18.7388H742.763Z" fill="#616771"/>
<path d="M767.615 22.692V22.5893L770.108 17.1987L764.681 5.26228V5.13393H767.122L769.485 10.5502L771.329 14.7857L773.198 10.6016L775.691 5.13393H778.132V5.26228L770.004 22.692H767.615Z" fill="#616771"/>
<path d="M786.577 18.9699C782.396 18.9699 779.409 16.0179 779.409 11.9364C779.409 7.85491 782.396 4.9029 786.577 4.9029C790.784 4.9029 793.744 7.85491 793.744 11.9364C793.744 16.0179 790.784 18.9699 786.577 18.9699ZM781.669 11.9364C781.669 14.8371 783.72 16.9163 786.577 16.9163C789.433 16.9163 791.511 14.8371 791.511 11.9364C791.511 9.03572 789.433 6.95647 786.577 6.95647C783.72 6.95647 781.669 9.03572 781.669 11.9364Z" fill="#616771"/>
<path d="M802.791 18.9442C799.182 18.9442 797.13 16.6596 797.13 12.6808V5.13393H799.338V12.6808C799.338 15.4788 800.636 16.9676 803.181 16.9676C805.908 16.9676 807.648 15.2734 807.648 12.6808V5.13393H809.855V18.7388H807.648V16.7623C806.505 18.1741 804.843 18.9442 802.791 18.9442Z" fill="#616771"/>
<path d="M826.969 18.9699C822.918 18.9699 820.061 16.0179 820.061 11.9364C820.061 7.85491 822.918 4.9029 826.969 4.9029C829.098 4.9029 830.89 5.72433 832.111 7.05915V5.13393H834.318V18.7388H832.111V16.8136C830.89 18.1484 829.098 18.9699 826.969 18.9699ZM822.321 11.9364C822.321 14.8627 824.372 16.9163 827.229 16.9163C830.085 16.9163 832.163 14.8627 832.163 11.9364C832.163 9.01005 830.085 6.95647 827.229 6.95647C824.372 6.95647 822.321 9.01005 822.321 11.9364Z" fill="#616771"/>
<path d="M843.784 18.9442C840.331 18.9442 838.123 17.2757 837.993 14.5033H840.253C840.357 16.0435 841.733 16.9163 843.81 16.9163C845.94 16.9163 847.342 16.2489 847.342 14.9141C847.342 13.7589 846.537 13.3225 843.655 12.8862C839.707 12.3214 838.227 11.2176 838.227 8.80469C838.227 6.21205 840.668 4.87723 843.784 4.87723C847.005 4.87723 849.03 6.44308 849.186 8.98437H846.953C846.823 7.67522 845.602 6.87946 843.732 6.87946C841.655 6.87946 840.46 7.59821 840.46 8.80469C840.46 10.0112 841.343 10.5246 844.2 10.8839C847.42 11.2946 849.601 12.2188 849.601 14.8114C849.601 17.635 847.031 18.9442 843.784 18.9442Z" fill="#616771"/>
<path d="M865.77 18.9699C861.719 18.9699 858.862 16.0179 858.862 11.9364C858.862 7.85491 861.719 4.9029 865.77 4.9029C867.899 4.9029 869.691 5.72433 870.912 7.05915V5.13393H873.119V18.7388H870.912V16.8136C869.691 18.1484 867.899 18.9699 865.77 18.9699ZM861.122 11.9364C861.122 14.8627 863.173 16.9163 866.03 16.9163C868.886 16.9163 870.964 14.8627 870.964 11.9364C870.964 9.01005 868.886 6.95647 866.03 6.95647C863.173 6.95647 861.122 9.01005 861.122 11.9364Z" fill="#616771"/>
<path d="M884.551 18.7388V5.13393H886.758V7.16183C887.719 5.69866 889.147 4.92857 890.939 4.92857C891.459 4.92857 892.056 5.00558 892.679 5.1596V7.13616C892.16 7.00781 891.666 6.9308 891.199 6.9308C888.654 6.9308 886.758 8.72768 886.758 11.346V18.7388H884.551Z" fill="#616771"/>
<path d="M901.202 18.9699C897.098 18.9699 894.138 16.0435 894.138 11.9364C894.138 7.82924 897.098 4.9029 901.202 4.9029C905.512 4.9029 908.551 7.95759 908.291 12.6808H896.449C896.735 15.1964 898.605 16.9163 901.202 16.9163C903.123 16.9163 904.733 16.0949 905.486 14.6574H907.875C906.915 17.327 904.37 18.9699 901.202 18.9699ZM896.501 10.8069H905.98C905.512 8.57366 903.669 6.95647 901.202 6.95647C898.76 6.95647 896.943 8.47098 896.501 10.8069Z" fill="#616771"/>
<path d="M912.599 4.62054C912.599 2.00223 914.053 0.513392 917.091 0.513392C917.611 0.513392 918.156 0.564732 918.779 0.64174V2.41295C918.286 2.36161 917.844 2.33594 917.455 2.33594C915.377 2.33594 914.806 3.05469 914.806 4.69754V5.13393H918.649V6.95647H914.806V18.7388H912.599V6.95647H909.794V5.13393H912.599V4.62054Z" fill="#616771"/>
<path d="M927.094 18.9699C922.991 18.9699 920.031 16.0435 920.031 11.9364C920.031 7.82924 922.991 4.9029 927.094 4.9029C931.405 4.9029 934.443 7.95759 934.183 12.6808H922.342C922.627 15.1964 924.497 16.9163 927.094 16.9163C929.016 16.9163 930.626 16.0949 931.379 14.6574H933.768C932.807 17.327 930.262 18.9699 927.094 18.9699ZM922.394 10.8069H931.872C931.405 8.57366 929.561 6.95647 927.094 6.95647C924.653 6.95647 922.835 8.47098 922.394 10.8069Z" fill="#616771"/>
<path d="M937.68 18.7388V5.13393H939.887V7.16183C940.848 5.69866 942.277 4.92857 944.068 4.92857C944.588 4.92857 945.185 5.00558 945.808 5.1596V7.13616C945.289 7.00781 944.796 6.9308 944.328 6.9308C941.783 6.9308 939.887 8.72768 939.887 11.346V18.7388H937.68Z" fill="#616771"/>
<path d="M954.331 18.9699C950.228 18.9699 947.267 16.0435 947.267 11.9364C947.267 7.82924 950.228 4.9029 954.331 4.9029C958.642 4.9029 961.68 7.95759 961.42 12.6808H949.578C949.864 15.1964 951.734 16.9163 954.331 16.9163C956.252 16.9163 957.862 16.0949 958.616 14.6574H961.005C960.044 17.327 957.499 18.9699 954.331 18.9699ZM949.63 10.8069H959.109C958.641 8.57366 956.798 6.95647 954.331 6.95647C951.89 6.95647 950.072 8.47098 949.63 10.8069Z" fill="#616771"/>
<path d="M964.917 18.7388V5.13393H967.124V7.13616C968.241 5.75 969.903 4.92857 972.032 4.92857C975.642 4.92857 977.771 7.16183 977.771 11.192V18.7388H975.564V11.269C975.564 8.39397 974.214 6.90513 971.643 6.90513C968.916 6.90513 967.124 8.65067 967.124 11.2433V18.7388H964.917Z" fill="#616771"/>
<path d="M988.186 18.9699C984.057 18.9699 981.123 16.0692 981.123 11.9621C981.123 7.80357 984.031 4.9029 988.186 4.9029C991.588 4.9029 994.159 6.82813 994.964 9.98549H992.757C992.056 8.06027 990.394 6.95647 988.238 6.95647C985.356 6.95647 983.382 8.98438 983.382 11.9621C983.382 14.9141 985.356 16.9163 988.238 16.9163C990.445 16.9163 992.082 15.8125 992.757 13.8616H995.016C994.237 17.019 991.614 18.9699 988.186 18.9699Z" fill="#616771"/>
<path d="M1004.37 18.9699C1000.26 18.9699 997.302 16.0435 997.302 11.9364C997.302 7.82924 1000.26 4.9029 1004.37 4.9029C1008.68 4.9029 1011.72 7.95759 1011.46 12.6808H999.614C999.899 15.1964 1001.77 16.9163 1004.37 16.9163C1006.29 16.9163 1007.9 16.0949 1008.65 14.6574H1011.04C1010.08 17.327 1007.53 18.9699 1004.37 18.9699ZM999.666 10.8069H1009.14C1008.68 8.57366 1006.83 6.95647 1004.37 6.95647C1001.92 6.95647 1000.11 8.47098 999.666 10.8069Z" fill="#616771"/>
<path d="M1027.38 18.8158C1024.24 18.8158 1022.79 17.4554 1022.79 14.4777V6.95647H1019.9V5.13393H1022.79V1.92522L1024.99 1.6942V5.13393H1028.79V6.95647H1024.99V14.221C1024.99 16.0179 1025.72 16.7879 1027.64 16.7879C1028.03 16.7879 1028.5 16.7623 1028.97 16.7109V18.7388C1028.42 18.7902 1027.85 18.8158 1027.38 18.8158Z" fill="#616771"/>
<path d="M1038.25 18.9699C1034.07 18.9699 1031.08 16.0179 1031.08 11.9364C1031.08 7.85491 1034.07 4.9029 1038.25 4.9029C1042.46 4.9029 1045.42 7.85491 1045.42 11.9364C1045.42 16.0179 1042.46 18.9699 1038.25 18.9699ZM1033.34 11.9364C1033.34 14.8371 1035.39 16.9163 1038.25 16.9163C1041.11 16.9163 1043.18 14.8371 1043.18 11.9364C1043.18 9.03572 1041.11 6.95647 1038.25 6.95647C1035.39 6.95647 1033.34 9.03572 1033.34 11.9364Z" fill="#616771"/>
<path d="M1063.23 18.9699C1061.08 18.9699 1059.26 18.1484 1058.04 16.7366V18.7388H1055.83V0.770088H1058.04V7.13616C1059.26 5.72433 1061.08 4.9029 1063.23 4.9029C1067.26 4.9029 1070.14 7.85491 1070.14 11.9364C1070.14 16.0179 1067.26 18.9699 1063.23 18.9699ZM1057.99 11.9364C1057.99 14.8627 1060.07 16.9163 1062.95 16.9163C1065.83 16.9163 1067.88 14.8627 1067.88 11.9364C1067.88 9.01005 1065.83 6.95647 1062.95 6.95647C1060.07 6.95647 1057.99 9.01005 1057.99 11.9364Z" fill="#616771"/>
<path d="M1079.76 18.9699C1075.66 18.9699 1072.7 16.0435 1072.7 11.9364C1072.7 7.82924 1075.66 4.9029 1079.76 4.9029C1084.07 4.9029 1087.11 7.95759 1086.85 12.6808H1075.01C1075.29 15.1964 1077.16 16.9163 1079.76 16.9163C1081.68 16.9163 1083.29 16.0949 1084.05 14.6574H1086.44C1085.47 17.327 1082.93 18.9699 1079.76 18.9699ZM1075.06 10.8069H1084.54C1084.07 8.57366 1082.23 6.95647 1079.76 6.95647C1077.32 6.95647 1075.5 8.47098 1075.06 10.8069Z" fill="#616771"/>
<path d="M1090.35 18.7388V0.770088H1092.55V18.7388H1090.35Z" fill="#616771"/>
<path d="M1097.17 18.7388V5.13393H1099.38V18.7388H1097.17ZM1096.57 1.6942C1096.57 0.71875 1097.3 0 1098.29 0C1099.27 0 1100 0.71875 1100 1.6942C1100 2.59263 1099.27 3.31138 1098.29 3.31138C1097.3 3.31138 1096.57 2.59263 1096.57 1.6942Z" fill="#616771"/>
<path d="M1110.02 18.9699C1105.91 18.9699 1102.95 16.0435 1102.95 11.9364C1102.95 7.82924 1105.91 4.9029 1110.02 4.9029C1114.33 4.9029 1117.36 7.95759 1117.11 12.6808H1105.26C1105.55 15.1964 1107.42 16.9163 1110.02 16.9163C1111.94 16.9163 1113.55 16.0949 1114.3 14.6574H1116.69C1115.73 17.327 1113.18 18.9699 1110.02 18.9699ZM1105.32 10.8069H1114.79C1114.33 8.57366 1112.48 6.95647 1110.02 6.95647C1107.57 6.95647 1105.76 8.47098 1105.32 10.8069Z" fill="#616771"/>
<path d="M1124.17 18.7388L1118.33 5.26228V5.13393H1120.66L1123.26 11.423L1125 15.6842L1126.77 11.3973L1129.36 5.13393H1131.7V5.26228L1125.83 18.7388H1124.17Z" fill="#616771"/>
<path d="M1140.07 18.9699C1135.96 18.9699 1133 16.0435 1133 11.9364C1133 7.82924 1135.96 4.9029 1140.07 4.9029C1144.38 4.9029 1147.42 7.95759 1147.16 12.6808H1135.32C1135.6 15.1964 1137.47 16.9163 1140.07 16.9163C1141.99 16.9163 1143.6 16.0949 1144.35 14.6574H1146.74C1145.78 17.327 1143.24 18.9699 1140.07 18.9699ZM1135.37 10.8069H1144.85C1144.38 8.57366 1142.53 6.95647 1140.07 6.95647C1137.63 6.95647 1135.81 8.47098 1135.37 10.8069Z" fill="#616771"/>
<path d="M1157.48 18.7388V5.13393H1159.68V18.7388H1157.48ZM1156.88 1.6942C1156.88 0.71875 1157.61 0 1158.59 0C1159.58 0 1160.31 0.71875 1160.31 1.6942C1160.31 2.59263 1159.58 3.31138 1158.59 3.31138C1157.61 3.31138 1156.88 2.59263 1156.88 1.6942Z" fill="#616771"/>
<path d="M1164.3 18.7388V5.13393H1166.5V7.13616C1167.62 5.75 1169.28 4.92857 1171.41 4.92857C1175.02 4.92857 1177.15 7.16183 1177.15 11.192V18.7388H1174.94V11.269C1174.94 8.39397 1173.59 6.90513 1171.02 6.90513C1168.3 6.90513 1166.5 8.65067 1166.5 11.2433V18.7388H1164.3Z" fill="#616771"/>
<path d="M1193.82 18.9442C1190.21 18.9442 1188.16 16.6596 1188.16 12.6808V5.13393H1190.36V12.6808C1190.36 15.4788 1191.66 16.9676 1194.21 16.9676C1196.93 16.9676 1198.67 15.2734 1198.67 12.6808V5.13393H1200.88V18.7388H1198.67V16.7623C1197.53 18.1741 1195.87 18.9442 1193.82 18.9442Z" fill="#616771"/>
<path d="M1210.16 18.9442C1206.71 18.9442 1204.5 17.2757 1204.37 14.5033H1206.63C1206.73 16.0435 1208.11 16.9163 1210.19 16.9163C1212.32 16.9163 1213.72 16.2489 1213.72 14.9141C1213.72 13.7589 1212.91 13.3225 1210.03 12.8862C1206.08 12.3214 1204.6 11.2176 1204.6 8.80469C1204.6 6.21205 1207.04 4.87723 1210.16 4.87723C1213.38 4.87723 1215.41 6.44308 1215.56 8.98437H1213.33C1213.2 7.67522 1211.98 6.87946 1210.11 6.87946C1208.03 6.87946 1206.84 7.59821 1206.84 8.80469C1206.84 10.0112 1207.72 10.5246 1210.58 10.8839C1213.8 11.2946 1215.98 12.2188 1215.98 14.8114C1215.98 17.635 1213.41 18.9442 1210.16 18.9442Z" fill="#616771"/>
<path d="M1220.52 18.9442C1219.69 18.9442 1219.07 18.3025 1219.07 17.481C1219.07 16.6596 1219.69 16.0435 1220.52 16.0435C1221.35 16.0435 1222 16.6596 1222 17.481C1222 18.3025 1221.35 18.9442 1220.52 18.9442Z" fill="#616771"/>
</svg>
