<svg width="1408" height="79" viewBox="0 0 1408 79" fill="none" xmlns="http://www.w3.org/2000/svg">
<path d="M38.7048 78.5C16.1895 78.5 0 62.1694 0 39.5C0 16.8306 16.1895 0.5 38.7048 0.5C58.4324 0.5 73.4426 12.8554 76.7663 31.7645H56.3954C53.9294 24.4587 47.282 19.8388 39.1337 19.8388C28.4121 19.8388 20.6926 28.0041 20.6926 39.5C20.6926 50.9959 28.4121 59.1612 39.1337 59.1612C47.4965 59.1612 54.3583 54.219 56.717 46.4835H76.9807C73.8715 65.8223 58.7541 78.5 38.7048 78.5Z" fill="#282A2D"/>
<path d="M123.868 78.5C100.71 78.5 84.1985 62.1694 84.1985 39.5C84.1985 16.8306 100.71 0.5 123.868 0.5C146.92 0.5 163.431 16.8306 163.431 39.5C163.431 62.1694 146.92 78.5 123.868 78.5ZM104.891 39.5C104.891 50.9959 112.932 59.1612 123.868 59.1612C134.804 59.1612 142.738 50.9959 142.738 39.5C142.738 28.0041 134.804 19.8388 123.868 19.8388C112.932 19.8388 104.891 28.0041 104.891 39.5Z" fill="#282A2D"/>
<path d="M174.977 77.1033V1.8967H190.201L217.756 39.7149L217.434 22.7397V1.8967H237.376V77.1033H221.937L194.597 39.5L194.919 58.8388V77.1033H174.977Z" fill="#282A2D"/>
<path d="M278.737 78.1777C260.832 78.1777 249.36 69.1529 248.609 52.7149H268.444C268.873 57.7645 272.304 60.343 278.737 60.343C284.526 60.343 287.957 58.0868 287.957 54.6488C287.957 50.781 284.419 48.7397 275.091 47.2355C259.867 44.8719 249.467 38.9628 249.467 24.5661C249.467 9.41735 261.475 0.71488 278.094 0.71488C294.605 0.71488 305.648 10.062 306.72 25.1033H287.207C286.564 20.6983 283.347 18.3347 277.879 18.3347C272.411 18.3347 269.302 20.376 269.302 24.0289C269.302 27.6818 272.411 29.2934 281.846 30.7975C297.5 33.0537 308.114 39.6074 308.114 54.0041C308.114 69.6901 295.57 78.1777 278.737 78.1777Z" fill="#282A2D"/>
<path d="M349.215 78.2851C330.452 78.2851 318.123 67.4339 318.123 49.9215V1.8967H338.386V46.5909C338.386 54.8636 342.461 58.9463 349.215 58.9463C355.863 58.9463 359.829 54.8636 359.829 46.5909V1.8967H380.093V49.9215C380.093 67.3264 367.763 78.2851 349.215 78.2851Z" fill="#282A2D"/>
<path d="M394.695 77.1033V1.8967H414.852V58.3017H445.623V77.1033H394.695Z" fill="#282A2D"/>
<path d="M462.256 77.1033V20.376H443.386V1.8967H501.283V20.376H482.52V77.1033H462.256Z" fill="#282A2D"/>
<path d="M499.28 77.1033V74.8471L526.513 1.8967H545.061L572.401 74.8471V77.1033H551.494L547.956 65.5H523.725L519.973 77.1033H499.28ZM528.443 49.4917H543.238L535.84 28.219L528.443 49.4917Z" fill="#282A2D"/>
<path d="M589.191 77.1033V20.376H570.321V1.8967H628.218V20.376H609.455V77.1033H589.191Z" fill="#282A2D"/>
<path d="M635.509 77.1033V59.376H646.445V19.3017H635.723V1.8967H677.43V19.3017H666.709V59.376H677.645V77.1033H635.509Z" fill="#282A2D"/>
<path d="M725.753 78.5C702.594 78.5 686.083 62.1694 686.083 39.5C686.083 16.8306 702.594 0.5 725.753 0.5C748.804 0.5 765.315 16.8306 765.315 39.5C765.315 62.1694 748.804 78.5 725.753 78.5ZM706.775 39.5C706.775 50.9959 714.817 59.1612 725.753 59.1612C736.689 59.1612 744.623 50.9959 744.623 39.5C744.623 28.0041 736.689 19.8388 725.753 19.8388C714.817 19.8388 706.775 28.0041 706.775 39.5Z" fill="#282A2D"/>
<path d="M776.861 77.1033V1.8967H792.086L819.64 39.7149L819.318 22.7397V1.8967H839.26V77.1033H823.821L796.481 39.5L796.803 58.8388V77.1033H776.861Z" fill="#282A2D"/>
<path d="M909.851 78.1777C891.946 78.1777 880.474 69.1529 879.723 52.7149H899.558C899.987 57.7645 903.418 60.343 909.851 60.343C915.64 60.343 919.071 58.0868 919.071 54.6488C919.071 50.781 915.533 48.7397 906.206 47.2355C890.981 44.8719 880.581 38.9628 880.581 24.5661C880.581 9.41735 892.589 0.71488 909.208 0.71488C925.719 0.71488 936.762 10.062 937.834 25.1033H918.321C917.678 20.6983 914.461 18.3347 908.993 18.3347C903.525 18.3347 900.416 20.376 900.416 24.0289C900.416 27.6818 903.525 29.2934 912.96 30.7975C928.614 33.0537 939.228 39.6074 939.228 54.0041C939.228 69.6901 926.684 78.1777 909.851 78.1777Z" fill="#282A2D"/>
<path d="M949.987 77.1033V1.8967H999.092V19.5165H969.929V30.7975H996.84V48.095H969.929V59.1612H999.95V77.1033H949.987Z" fill="#282A2D"/>
<path d="M1012.83 77.1033V1.8967H1041.35C1058.93 1.8967 1069.54 11.4587 1069.54 26.9298C1069.54 37.6736 1064.29 45.624 1055.07 49.1694L1072.76 74.8471V77.1033H1050.67L1032.88 50.4587V77.1033H1012.83ZM1032.77 36.5992H1040.81C1046.28 36.5992 1049.49 33.8058 1049.49 28.5413C1049.49 23.2769 1046.28 20.376 1040.81 20.376H1032.77V36.5992Z" fill="#282A2D"/>
<path d="M1100.88 77.1033L1073 4.1529V1.8967H1094.02L1099.59 18.0124L1109.24 46.6983L1119 18.0124L1124.57 1.8967H1145.27V4.1529L1117.5 77.1033H1100.88Z" fill="#282A2D"/>
<path d="M1151.21 77.1033V59.376H1162.14V19.3017H1151.42V1.8967H1193.13V19.3017H1182.41V59.376H1193.34V77.1033H1151.21Z" fill="#282A2D"/>
<path d="M1240.48 78.5C1217.97 78.5 1201.78 62.1694 1201.78 39.5C1201.78 16.8306 1217.97 0.5 1240.48 0.5C1260.21 0.5 1275.22 12.8554 1278.55 31.7645H1258.17C1255.71 24.4587 1249.06 19.8388 1240.91 19.8388C1230.19 19.8388 1222.47 28.0041 1222.47 39.5C1222.47 50.9959 1230.19 59.1612 1240.91 59.1612C1249.28 59.1612 1256.14 54.219 1258.5 46.4835H1278.76C1275.65 65.8223 1260.53 78.5 1240.48 78.5Z" fill="#282A2D"/>
<path d="M1289.73 77.1033V1.8967H1338.84V19.5165H1309.67V30.7975H1336.58V48.095H1309.67V59.1612H1339.69V77.1033H1289.73Z" fill="#282A2D"/>
<path d="M1378.62 78.1777C1360.72 78.1777 1349.25 69.1529 1348.5 52.7149H1368.33C1368.76 57.7645 1372.19 60.343 1378.62 60.343C1384.41 60.343 1387.84 58.0868 1387.84 54.6488C1387.84 50.781 1384.31 48.7397 1374.98 47.2355C1359.75 44.8719 1349.35 38.9628 1349.35 24.5661C1349.35 9.41735 1361.36 0.71488 1377.98 0.71488C1394.49 0.71488 1405.53 10.062 1406.61 25.1033H1387.09C1386.45 20.6983 1383.23 18.3347 1377.77 18.3347C1372.3 18.3347 1369.19 20.376 1369.19 24.0289C1369.19 27.6818 1372.3 29.2934 1381.73 30.7975C1397.39 33.0537 1408 39.6074 1408 54.0041C1408 69.6901 1395.46 78.1777 1378.62 78.1777Z" fill="#282A2D"/>
</svg>
