<svg width="1048" height="90" viewBox="0 0 1048 90" fill="none" xmlns="http://www.w3.org/2000/svg">
<path d="M0 87.5735V1.59671H54.1688V22.4768H23.0924V37.4613H51.4665V58.2185H23.0924V87.5735H0Z" fill="#282A2D"/>
<path d="M68.3933 87.5735V1.59671H124.65V21.7398H91.24V34.6363H122.071V54.411H91.24V67.0619H125.633V87.5735H68.3933Z" fill="#282A2D"/>
<path d="M140.385 87.5735V1.59671H196.642V21.7398H163.232V34.6363H194.063V54.411H163.232V67.0619H197.625V87.5735H140.385Z" fill="#282A2D"/>
<path d="M287.013 89.1702C260.481 89.1702 241.565 70.5009 241.565 44.5851C241.565 18.6692 260.481 0 287.013 0C313.422 0 332.338 18.6692 332.338 44.5851C332.338 70.5009 313.422 89.1702 287.013 89.1702ZM265.272 44.5851C265.272 57.7272 274.484 67.0619 287.013 67.0619C299.542 67.0619 308.631 57.7272 308.631 44.5851C308.631 31.4429 299.542 22.1083 287.013 22.1083C274.484 22.1083 265.272 31.4429 265.272 44.5851Z" fill="#282A2D"/>
<path d="M345.565 87.5735V1.59671H399.734V22.4768H368.658V37.4613H397.032V58.2185H368.658V87.5735H345.565Z" fill="#282A2D"/>
<path d="M477.294 88.8017C456.781 88.8017 443.638 78.4845 442.778 59.6924H465.502C465.993 65.4652 469.924 68.4129 477.294 68.4129C483.927 68.4129 487.857 65.8336 487.857 61.9033C487.857 57.4816 483.804 55.148 473.117 53.4284C455.675 50.7263 443.761 43.971 443.761 27.5126C443.761 10.1944 457.518 0.245652 476.557 0.245652C495.473 0.245652 508.124 10.9313 509.353 28.1267H486.997C486.26 23.0909 482.575 20.3888 476.311 20.3888C470.047 20.3888 466.484 22.7224 466.484 26.8984C466.484 31.0745 470.047 32.9168 480.856 34.6363C498.789 37.2157 510.95 44.7079 510.95 61.1663C510.95 79.0986 496.578 88.8017 477.294 88.8017Z" fill="#282A2D"/>
<path d="M523.276 87.5735V1.59671H579.533V21.7398H546.123V34.6363H576.954V54.411H546.123V67.0619H580.516V87.5735H523.276Z" fill="#282A2D"/>
<path d="M595.268 87.5735V1.59671H627.941C648.086 1.59671 660.246 12.528 660.246 30.2147C660.246 42.4971 654.227 51.5861 643.664 55.6392L663.931 84.9942V87.5735H638.628L618.237 57.1131V87.5735H595.268ZM618.115 41.2688H627.327C633.591 41.2688 637.276 38.0754 637.276 32.057C637.276 26.0387 633.591 22.7224 627.327 22.7224H618.115V41.2688Z" fill="#282A2D"/>
<path d="M696.147 87.5735L664.211 4.17602V1.59671H688.286L694.673 20.0203L705.728 52.8143L716.906 20.0203L723.293 1.59671H747V4.17602L715.186 87.5735H696.147Z" fill="#282A2D"/>
<path d="M753.803 87.5735V67.3075H766.331V21.4942H754.048V1.59671H801.83V21.4942H789.547V67.3075H802.075V87.5735H753.803Z" fill="#282A2D"/>
<path d="M856.085 89.1702C830.29 89.1702 811.743 70.5009 811.743 44.5851C811.743 18.6692 830.29 0 856.085 0C878.686 0 895.883 14.1248 899.69 35.7418H876.352C873.527 27.3897 865.912 22.1083 856.576 22.1083C844.293 22.1083 835.449 31.4429 835.449 44.5851C835.449 57.7272 844.293 67.0619 856.576 67.0619C866.157 67.0619 874.018 61.412 876.721 52.5686H899.936C896.374 74.6769 879.055 89.1702 856.085 89.1702Z" fill="#282A2D"/>
<path d="M912.504 87.5735V1.59671H968.761V21.7398H935.351V34.6363H966.182V54.411H935.351V67.0619H969.744V87.5735H912.504Z" fill="#282A2D"/>
<path d="M1014.34 88.8017C993.831 88.8017 980.688 78.4845 979.828 59.6924H1002.55C1003.04 65.4652 1006.97 68.4129 1014.34 68.4129C1020.98 68.4129 1024.91 65.8336 1024.91 61.9033C1024.91 57.4816 1020.85 55.148 1010.17 53.4284C992.726 50.7263 980.811 43.971 980.811 27.5126C980.811 10.1944 994.568 0.245652 1013.61 0.245652C1032.52 0.245652 1045.17 10.9313 1046.4 28.1267H1024.05C1023.31 23.0909 1019.63 20.3888 1013.36 20.3888C1007.1 20.3888 1003.53 22.7224 1003.53 26.8984C1003.53 31.0745 1007.1 32.9168 1017.91 34.6363C1035.84 37.2157 1048 44.7079 1048 61.1663C1048 79.0986 1033.63 88.8017 1014.34 88.8017Z" fill="#282A2D"/>
</svg>
