<svg width="215" height="75" viewBox="0 0 215 75" fill="none" xmlns="http://www.w3.org/2000/svg">
<g clip-path="url(#clip0_10_2)">
<path d="M0 26.4144C0 10.9243 11.0603 0 26.8074 0C40.8935 0 51.2972 8.75752 53.2543 22.1453H37.0694C35.6917 17.9536 31.9448 15.4127 27.2452 15.4127C21.0262 15.4127 16.8415 19.8237 16.8415 26.4144C16.8415 33.0052 21.0262 37.4162 27.2452 37.4162C32.0865 37.4162 35.9106 34.669 37.2883 30.2451H53.3315C51.5289 43.9295 41.048 52.8289 26.8203 52.8289C11.0603 52.8289 0 41.9046 0 26.4144Z" fill="#F58029"/>
<path d="M56.2802 32.5666C56.2802 20.6234 63.9413 12.6655 74.7827 12.6655C79.2634 12.6655 83.2421 14.1101 86.2679 16.5735L86.77 13.3878H100.058V51.7455H86.7829L86.2679 48.5598C83.1648 51.0232 79.2634 52.4678 74.7827 52.4678C63.7352 52.4678 56.2802 44.2906 56.2802 32.5666ZM78.1819 39.3766C82.006 39.3766 84.6842 36.552 84.6842 32.5795C84.6842 28.5297 82.006 25.7825 78.1819 25.7825C74.2805 25.7825 71.6023 28.5297 71.6023 32.5795C71.6023 36.552 74.2805 39.3766 78.1819 39.3766Z" fill="#F58029"/>
<path d="M107.371 1.0835H123.26V51.7456H107.371V1.0835Z" fill="#F58029"/>
<path d="M146.668 13.3877H130.985V51.7454H146.668V13.3877Z" fill="#F58029"/>
<path d="M153.608 13.3878H167.772L168.274 17.2958C171.094 14.1874 175.278 12.5881 179.617 12.5881C189.442 12.5881 194.283 19.2433 194.283 29.3809V51.7455H178.536V30.6836C178.536 27.4979 176.952 25.6922 174.197 25.6922C171.312 25.6922 169.278 27.6397 169.278 30.761V51.7455H153.608V13.3878Z" fill="#F58029"/>
<path d="M107.101 70.228L112.496 55.1377H117.801L123.208 70.228V70.7697H117.994L117.44 68.6932H112.856L112.251 70.7697H107.101V70.228ZM116.526 64.9657L115.161 60.774L113.796 64.9657H116.526Z" fill="#F58029"/>
<path d="M123.814 70.4471H128.333C128.487 71.092 129.067 71.3629 129.955 71.3629C131.088 71.3629 131.874 70.7825 131.874 69.6475V69.2218C131.05 69.6862 130.071 69.957 128.977 69.957C125.719 69.957 123.389 67.687 123.389 64.3981C123.389 61.0705 125.706 58.6458 128.977 58.6458C130.354 58.6458 131.565 59.0714 132.492 59.8323L132.621 58.9424H136.702V68.8478C136.702 73.0396 134.024 75.0129 130.02 75.0129C126.62 75 124.123 73.6457 123.814 70.4471ZM130.033 66.4359C131.191 66.4359 131.951 65.6492 131.951 64.54C131.951 63.4437 131.191 62.644 130.033 62.644C128.874 62.644 128.114 63.4437 128.114 64.54C128.114 65.6492 128.874 66.4359 130.033 66.4359Z" fill="#F58029"/>
<path d="M138.299 64.8495C138.299 61.1737 140.99 58.6458 144.891 58.6458C149.166 58.6458 152.063 61.7025 151.381 65.92H142.844C143.14 66.9261 143.848 67.4549 144.956 67.4549C145.651 67.4549 146.243 67.2098 146.668 66.81H151.175C150.312 69.4927 147.943 71.0533 144.891 71.0533C140.99 71.0533 138.299 68.5383 138.299 64.8495ZM147.067 63.6887C146.797 62.773 146.114 62.1926 144.994 62.1926C143.9 62.1926 143.166 62.7472 142.857 63.6887H147.067Z" fill="#F58029"/>
<path d="M153.029 58.9425H157.394L157.548 60.142C158.411 59.1876 159.711 58.6846 161.05 58.6846C164.076 58.6846 165.57 60.7353 165.57 63.8565V70.7568H160.716V64.2564C160.716 63.2761 160.226 62.7215 159.377 62.7215C158.488 62.7215 157.857 63.3277 157.857 64.2822V70.7568H153.029V58.9425Z" fill="#F58029"/>
<path d="M166.973 64.8495C166.973 61.1737 169.651 58.6458 173.566 58.6458C177.107 58.6458 179.669 60.761 180.029 64.0241H175.574C175.24 63.2373 174.531 62.7472 173.656 62.7472C172.471 62.7472 171.673 63.5985 171.673 64.8495C171.673 66.1006 172.471 66.9519 173.656 66.9519C174.57 66.9519 175.265 66.4359 175.574 65.6621H180.029C179.669 68.9252 177.132 71.0662 173.566 71.0662C169.651 71.0533 166.973 68.5383 166.973 64.8495Z" fill="#F58029"/>
<path d="M182.501 74.2264L184.175 70.2281L179.939 59.4198V58.9426H184.845L185.914 62.2186L186.622 64.9658L187.33 62.2186L188.399 58.9426H193.304V59.4327L187.472 74.652H182.501V74.2264Z" fill="#F58029"/>
<path d="M138.853 10.2795C143.913 10.2795 147.595 6.43603 147.595 1.0835H130.046C130.046 6.43603 133.728 10.2795 138.853 10.2795Z" fill="#F58029"/>
<path d="M207.403 28.6973C207.635 29.1616 207.854 29.613 208.086 30.0773C209.438 32.8632 211.073 35.4814 212.747 38.0868C213.403 39.1186 213.983 40.2278 214.446 41.3499C215.309 43.4522 215.155 45.5287 214.099 47.5666C212.85 49.9526 210.88 51.3714 208.253 51.6809C205.305 52.0292 202.897 50.8684 201.184 48.4178C200.231 47.0507 199.678 45.5158 199.755 43.8262C199.819 42.4591 200.231 41.1822 200.901 39.9956C201.674 38.6285 202.523 37.3 203.36 35.9845C204.712 33.8305 205.935 31.6121 207.043 29.3293C207.133 29.1358 207.236 28.9423 207.326 28.7618C207.326 28.736 207.352 28.736 207.403 28.6973ZM205.871 50.1461C208.24 50.5588 210.403 50.1203 212.206 48.4178C213.867 46.8443 214.227 44.613 213.738 42.717C213.12 47.4376 210.275 49.6173 205.871 50.1461Z" fill="#F58029"/>
</g>
<defs>
<clipPath id="clip0_10_2">
<rect width="215" height="75" fill="white"/>
</clipPath>
</defs>
</svg>
