<svg width="222" height="80" viewBox="0 0 222 80" fill="none" xmlns="http://www.w3.org/2000/svg">
<path d="M110.159 74.9923V74.4443L115.706 59.01H121.161L126.73 74.4443V74.9923H121.367L120.794 72.8689H116.072L115.454 74.9923H110.159ZM117.058 69.056H119.854L118.456 64.7636L117.058 69.056Z" fill="#FD8126"/>
<path d="M133.785 79.3303C130.278 79.3303 127.711 77.9376 127.39 74.6726H132.043C132.204 75.3348 132.799 75.6087 133.716 75.6087C134.885 75.6087 135.687 75.0151 135.687 73.8507V73.4169C134.839 73.8964 133.831 74.1703 132.708 74.1703C129.361 74.1703 126.955 71.8415 126.955 68.4852C126.955 65.0833 129.338 62.5946 132.708 62.5946C134.129 62.5946 135.367 63.0284 136.329 63.8047L136.467 62.8914H140.661V73.0288C140.661 77.3211 137.911 79.3303 133.785 79.3303ZM131.814 68.6222C131.814 69.7638 132.593 70.5629 133.785 70.5629C134.977 70.5629 135.756 69.7638 135.756 68.6222C135.756 67.5034 134.977 66.6815 133.785 66.6815C132.593 66.6815 131.814 67.5034 131.814 68.6222Z" fill="#FD8126"/>
<path d="M149.093 75.2891C145.082 75.2891 142.309 72.7091 142.309 68.9419C142.309 65.1746 145.082 62.5946 149.093 62.5946C153.494 62.5946 156.474 65.7226 155.763 70.0378H146.985C147.283 71.0652 148.016 71.6132 149.162 71.6132C149.873 71.6132 150.492 71.362 150.927 70.9511H155.557C154.663 73.6909 152.233 75.2891 149.093 75.2891ZM147.008 67.7546H151.34C151.065 66.8185 150.354 66.2249 149.208 66.2249C148.085 66.2249 147.329 66.7957 147.008 67.7546Z" fill="#FD8126"/>
<path d="M157.478 74.9923V62.8914H161.971L162.131 64.1243C163.025 63.1426 164.354 62.6403 165.73 62.6403C168.847 62.6403 170.383 64.7408 170.383 67.9373V74.9923H165.386V68.3482C165.386 67.3436 164.882 66.7728 164.011 66.7728C163.094 66.7728 162.452 67.3893 162.452 68.3711V74.9923H157.478Z" fill="#FD8126"/>
<path d="M178.639 75.2891C174.605 75.2891 171.855 72.7091 171.855 68.9419C171.855 65.1746 174.605 62.5946 178.639 62.5946C182.283 62.5946 184.919 64.7636 185.286 68.0971H180.702C180.358 67.298 179.625 66.7957 178.731 66.7957C177.516 66.7957 176.691 67.6633 176.691 68.9419C176.691 70.2204 177.516 71.088 178.731 71.088C179.67 71.088 180.381 70.5629 180.702 69.7638H185.286C184.919 73.0972 182.306 75.2891 178.639 75.2891Z" fill="#FD8126"/>
<path d="M187.846 78.965V78.5312L189.565 74.4443L185.21 63.3937V62.8914H190.252L191.352 66.2477L192.086 69.056L192.819 66.2477L193.919 62.8914H198.962V63.3937L192.957 78.965H187.846Z" fill="#FD8126"/>
<path d="M0 27.0171C0 11.1733 11.3736 0 27.5704 0C42.0622 0 52.7628 8.96101 54.7669 22.6521H38.1215C36.7082 18.3615 32.8422 15.7693 28.0116 15.7693C21.6181 15.7693 17.3109 20.2833 17.3109 27.0246C17.3109 33.7658 21.6181 38.2799 28.0116 38.2799C32.9917 38.2799 36.9325 35.4642 38.3383 30.9501H54.8342C52.9722 44.9392 42.1968 54.0492 27.5629 54.0492C11.3662 54.0417 0 42.8609 0 27.0171Z" fill="#FD8126"/>
<path d="M57.8926 33.3112C57.8926 21.095 65.7741 12.9534 76.9159 12.9534C81.5222 12.9534 85.6125 14.4357 88.7307 16.9534L89.2542 13.6983H102.931V52.9316H89.2542L88.7307 49.6764C85.5377 52.1941 81.5222 53.6765 76.9159 53.6765C65.5498 53.669 57.8926 45.3039 57.8926 33.3112ZM80.408 40.2685C84.3488 40.2685 87.1006 37.3783 87.1006 33.3112C87.1006 29.1621 84.3488 26.3539 80.408 26.3539C76.3925 26.3539 73.6481 29.1696 73.6481 33.3112C73.6481 37.3857 76.4 40.2685 80.408 40.2685Z" fill="#FD8126"/>
<path d="M110.439 1.11011H126.785V52.9321H110.439V1.11011Z" fill="#FD8126"/>
<path d="M158.004 13.6908H172.571L173.087 17.6909C175.988 14.5102 180.295 12.8789 184.752 12.8789C194.862 12.8789 199.835 19.6872 199.835 30.0561V52.9316H183.631V31.3894C183.631 28.1342 181.993 26.2795 179.174 26.2795C176.198 26.2795 174.119 28.2758 174.119 31.4639V52.9316H157.989V13.6908H158.004Z" fill="#FD8126"/>
<path d="M150.856 13.6909H134.726V52.9242H150.856V13.6909Z" fill="#FD8126"/>
<path d="M142.825 10.5106C148.029 10.5106 151.82 6.5776 151.82 1.11011H133.754C133.754 6.5776 137.545 10.5106 142.825 10.5106Z" fill="#FD8126"/>
<path d="M213.332 30.0935C213.564 30.5702 213.796 31.0321 214.027 31.5013C215.426 34.3468 217.101 37.0284 218.813 39.6951C219.494 40.7529 220.084 41.8777 220.563 43.0397C221.453 45.1924 221.296 47.3228 220.204 49.3936C218.918 51.8368 216.891 53.2894 214.192 53.6097C211.156 53.9672 208.681 52.7828 206.916 50.2726C205.929 48.8722 205.368 47.3079 205.443 45.5723C205.51 44.1719 205.936 42.8609 206.624 41.6616C207.425 40.2687 208.284 38.913 209.152 37.5498C210.55 35.3524 211.799 33.0805 212.936 30.7416C213.033 30.5479 213.13 30.3468 213.227 30.1531C213.25 30.1382 213.28 30.1308 213.332 30.0935ZM211.754 52.0305C214.192 52.4551 216.42 52.0007 218.267 50.2577C219.98 48.6487 220.346 46.3619 219.838 44.4326C219.217 49.2595 216.286 51.4942 211.754 52.0305Z" fill="#FD8126"/>
</svg>
