<svg width="461" height="300" viewBox="0 0 461 300" fill="none" xmlns="http://www.w3.org/2000/svg">
<rect x="0.5" y="0.5" width="459.8" height="299" fill="white" stroke="#EAEAEA"/>
<circle cx="230.4" cy="81.6" r="33.1" stroke="#EAEAEA"/>
<path d="M219 70V93.3333C219 93.7015 219.298 94 219.667 94H243" stroke="#FD8126" stroke-width="2" stroke-linecap="round" stroke-linejoin="round"/>
<path d="M240.333 72.6667L235.05 81.9123C235.021 81.9642 234.96 81.99 234.902 81.9755L229.755 80.6887C229.702 80.6754 229.646 80.696 229.614 80.7405L223 90" stroke="#FD8126" stroke-width="2" stroke-linecap="round" stroke-linejoin="round"/>
<path d="M241.667 79.3333L240.464 73.3204C240.392 72.9593 240.041 72.7252 239.68 72.7974L233.667 74" stroke="#FD8126" stroke-width="2" stroke-linecap="round" stroke-linejoin="round"/>
<path d="M121.343 211.4V199.56H122.911V204.696H128.559V199.56H130.127V211.4H128.559V206.104H122.911V211.4H121.343ZM136.318 202.76C136.852 202.76 137.3 202.845 137.662 203.016C138.025 203.187 138.318 203.389 138.542 203.624C138.766 203.848 138.937 204.061 139.054 204.264H139.15V202.92H140.67V211.4H139.15V210.056H139.054C138.937 210.259 138.766 210.477 138.542 210.712C138.318 210.947 138.025 211.149 137.662 211.32C137.3 211.48 136.852 211.56 136.318 211.56C135.678 211.56 135.118 211.437 134.638 211.192C134.158 210.936 133.758 210.6 133.438 210.184C133.118 209.757 132.878 209.283 132.718 208.76C132.558 208.237 132.478 207.704 132.478 207.16C132.478 206.616 132.558 206.083 132.718 205.56C132.878 205.037 133.118 204.568 133.438 204.152C133.758 203.725 134.158 203.389 134.638 203.144C135.118 202.888 135.678 202.76 136.318 202.76ZM136.574 204.056C136.009 204.056 135.534 204.211 135.15 204.52C134.766 204.819 134.478 205.203 134.286 205.672C134.105 206.141 134.014 206.637 134.014 207.16C134.014 207.672 134.105 208.168 134.286 208.648C134.478 209.117 134.766 209.507 135.15 209.816C135.534 210.115 136.009 210.264 136.574 210.264C137.14 210.264 137.609 210.115 137.982 209.816C138.366 209.507 138.649 209.117 138.83 208.648C139.022 208.168 139.118 207.672 139.118 207.16C139.118 206.637 139.022 206.141 138.83 205.672C138.649 205.203 138.366 204.819 137.982 204.52C137.609 204.211 137.14 204.056 136.574 204.056ZM143.016 211.4V202.92H144.536V204.152H144.632C144.707 204.024 144.829 203.848 145 203.624C145.181 203.4 145.437 203.203 145.768 203.032C146.099 202.851 146.515 202.76 147.016 202.76C147.635 202.76 148.163 202.904 148.6 203.192C149.037 203.469 149.368 203.848 149.592 204.328C149.827 204.808 149.944 205.347 149.944 205.944V211.4H148.424V206.04C148.424 205.475 148.264 205.005 147.944 204.632C147.635 204.259 147.181 204.072 146.584 204.072C146.104 204.072 145.715 204.195 145.416 204.44C145.117 204.675 144.893 204.989 144.744 205.384C144.605 205.768 144.536 206.179 144.536 206.616V211.4H143.016ZM155.98 211.56C155.34 211.56 154.78 211.437 154.3 211.192C153.82 210.936 153.42 210.6 153.1 210.184C152.78 209.757 152.54 209.283 152.38 208.76C152.22 208.237 152.14 207.704 152.14 207.16C152.14 206.616 152.22 206.083 152.38 205.56C152.54 205.037 152.78 204.568 153.1 204.152C153.42 203.725 153.82 203.389 154.3 203.144C154.78 202.888 155.34 202.76 155.98 202.76C156.513 202.76 156.961 202.845 157.324 203.016C157.687 203.187 157.98 203.389 158.204 203.624C158.428 203.848 158.599 204.061 158.716 204.264H158.812V199.24H160.332V211.4H158.812V210.056H158.716C158.599 210.259 158.428 210.477 158.204 210.712C157.98 210.947 157.687 211.149 157.324 211.32C156.961 211.48 156.513 211.56 155.98 211.56ZM156.236 210.264C156.801 210.264 157.271 210.115 157.644 209.816C158.028 209.507 158.311 209.117 158.492 208.648C158.684 208.168 158.78 207.672 158.78 207.16C158.78 206.637 158.684 206.141 158.492 205.672C158.311 205.203 158.028 204.819 157.644 204.52C157.271 204.211 156.801 204.056 156.236 204.056C155.671 204.056 155.196 204.211 154.812 204.52C154.428 204.819 154.14 205.203 153.948 205.672C153.767 206.141 153.676 206.637 153.676 207.16C153.676 207.672 153.767 208.168 153.948 208.648C154.14 209.117 154.428 209.507 154.812 209.816C155.196 210.115 155.671 210.264 156.236 210.264ZM163.009 211.4L163.025 199.24H164.529V211.4H163.009ZM168.032 201.304C167.744 201.304 167.504 201.208 167.312 201.016C167.13 200.824 167.04 200.595 167.04 200.328C167.04 200.051 167.13 199.816 167.312 199.624C167.504 199.432 167.744 199.336 168.032 199.336C168.309 199.336 168.544 199.432 168.736 199.624C168.928 199.816 169.024 200.051 169.024 200.328C169.024 200.595 168.928 200.824 168.736 201.016C168.544 201.208 168.309 201.304 168.032 201.304ZM167.28 211.4V202.92H168.8V211.4H167.28ZM171.37 211.4V202.92H172.89V204.152H172.986C173.061 204.024 173.184 203.848 173.354 203.624C173.536 203.4 173.792 203.203 174.122 203.032C174.453 202.851 174.869 202.76 175.37 202.76C175.989 202.76 176.517 202.904 176.954 203.192C177.392 203.469 177.722 203.848 177.946 204.328C178.181 204.808 178.298 205.347 178.298 205.944V211.4H176.778V206.04C176.778 205.475 176.618 205.005 176.298 204.632C175.989 204.259 175.536 204.072 174.938 204.072C174.458 204.072 174.069 204.195 173.77 204.44C173.472 204.675 173.248 204.989 173.098 205.384C172.96 205.768 172.89 206.179 172.89 206.616V211.4H171.37ZM184.734 214.76C184.03 214.76 183.444 214.664 182.974 214.472C182.505 214.291 182.126 214.056 181.838 213.768C181.561 213.491 181.353 213.213 181.214 212.936C181.076 212.659 180.985 212.424 180.942 212.232C180.9 212.051 180.878 211.96 180.878 211.96H182.398C182.398 211.96 182.425 212.035 182.478 212.184C182.532 212.333 182.633 212.504 182.782 212.696C182.942 212.888 183.177 213.059 183.486 213.208C183.796 213.357 184.212 213.432 184.734 213.432C185.353 213.432 185.838 213.309 186.19 213.064C186.542 212.829 186.793 212.52 186.942 212.136C187.102 211.752 187.182 211.347 187.182 210.92V209.944H187.102C186.996 210.125 186.825 210.333 186.59 210.568C186.366 210.792 186.068 210.989 185.694 211.16C185.321 211.32 184.862 211.4 184.318 211.4C183.678 211.4 183.118 211.277 182.638 211.032C182.158 210.787 181.758 210.456 181.438 210.04C181.129 209.624 180.894 209.16 180.734 208.648C180.574 208.136 180.494 207.613 180.494 207.08C180.494 206.547 180.574 206.024 180.734 205.512C180.894 205 181.129 204.536 181.438 204.12C181.758 203.704 182.158 203.373 182.638 203.128C183.118 202.883 183.678 202.76 184.318 202.76C184.862 202.76 185.321 202.845 185.694 203.016C186.068 203.176 186.366 203.368 186.59 203.592C186.825 203.816 186.996 204.024 187.102 204.216H187.182V202.92H188.702V210.904C188.702 212.088 188.356 213.027 187.662 213.72C186.98 214.413 186.004 214.76 184.734 214.76ZM184.606 210.104C185.172 210.104 185.641 209.96 186.014 209.672C186.398 209.373 186.681 208.995 186.862 208.536C187.054 208.077 187.15 207.592 187.15 207.08C187.15 206.568 187.054 206.083 186.862 205.624C186.681 205.155 186.398 204.776 186.014 204.488C185.641 204.2 185.172 204.056 184.606 204.056C184.041 204.056 183.566 204.2 183.182 204.488C182.798 204.776 182.51 205.155 182.318 205.624C182.137 206.083 182.046 206.568 182.046 207.08C182.046 207.592 182.137 208.077 182.318 208.536C182.51 208.995 182.798 209.373 183.182 209.672C183.566 209.96 184.041 210.104 184.606 210.104ZM198.863 211.56C197.956 211.56 197.194 211.352 196.575 210.936C195.956 210.509 195.487 209.96 195.167 209.288C194.847 208.616 194.687 207.907 194.687 207.16C194.687 206.403 194.847 205.693 195.167 205.032C195.487 204.36 195.956 203.816 196.575 203.4C197.194 202.973 197.956 202.76 198.863 202.76C199.77 202.76 200.532 202.973 201.151 203.4C201.77 203.816 202.239 204.36 202.559 205.032C202.879 205.693 203.039 206.403 203.039 207.16C203.039 207.907 202.879 208.616 202.559 209.288C202.239 209.96 201.77 210.509 201.151 210.936C200.532 211.352 199.77 211.56 198.863 211.56ZM198.863 210.232C199.439 210.232 199.919 210.088 200.303 209.8C200.698 209.501 200.991 209.117 201.183 208.648C201.386 208.179 201.487 207.683 201.487 207.16C201.487 206.627 201.386 206.131 201.183 205.672C200.991 205.203 200.698 204.824 200.303 204.536C199.919 204.237 199.439 204.088 198.863 204.088C198.298 204.088 197.818 204.237 197.423 204.536C197.028 204.824 196.73 205.203 196.527 205.672C196.335 206.131 196.239 206.627 196.239 207.16C196.239 207.683 196.335 208.179 196.527 208.648C196.73 209.117 197.028 209.501 197.423 209.8C197.818 210.088 198.298 210.232 198.863 210.232ZM205.385 214.536V202.92H206.905V204.264H207.001C207.129 204.061 207.299 203.843 207.513 203.608C207.737 203.373 208.03 203.176 208.393 203.016C208.755 202.845 209.203 202.76 209.737 202.76C210.377 202.76 210.937 202.888 211.417 203.144C211.897 203.389 212.297 203.725 212.617 204.152C212.937 204.568 213.177 205.037 213.337 205.56C213.497 206.083 213.577 206.616 213.577 207.16C213.577 207.704 213.497 208.237 213.337 208.76C213.177 209.283 212.937 209.757 212.617 210.184C212.297 210.6 211.897 210.936 211.417 211.192C210.937 211.437 210.377 211.56 209.737 211.56C209.203 211.56 208.755 211.475 208.393 211.304C208.03 211.133 207.737 210.931 207.513 210.696C207.299 210.461 207.129 210.248 207.001 210.056H206.905V214.536H205.385ZM206.937 207.16C206.937 207.672 207.027 208.168 207.209 208.648C207.401 209.117 207.683 209.507 208.057 209.816C208.441 210.115 208.915 210.264 209.481 210.264C210.057 210.264 210.531 210.115 210.905 209.816C211.289 209.507 211.571 209.117 211.753 208.648C211.945 208.168 212.041 207.672 212.041 207.16C212.041 206.637 211.945 206.141 211.753 205.672C211.571 205.203 211.289 204.819 210.905 204.52C210.531 204.211 210.057 204.056 209.481 204.056C208.915 204.056 208.441 204.211 208.057 204.52C207.683 204.819 207.401 205.203 207.209 205.672C207.027 206.141 206.937 206.637 206.937 207.16ZM219.552 211.56C218.859 211.56 218.256 211.437 217.744 211.192C217.243 210.936 216.827 210.595 216.496 210.168C216.176 209.741 215.936 209.272 215.776 208.76C215.616 208.237 215.536 207.704 215.536 207.16C215.536 206.627 215.611 206.099 215.76 205.576C215.92 205.053 216.16 204.579 216.48 204.152C216.811 203.725 217.221 203.389 217.712 203.144C218.213 202.888 218.805 202.76 219.488 202.76C220.213 202.76 220.853 202.925 221.408 203.256C221.963 203.587 222.4 204.077 222.72 204.728C223.04 205.379 223.2 206.195 223.2 207.176V207.624H217.072C217.104 208.104 217.216 208.547 217.408 208.952C217.611 209.347 217.893 209.667 218.256 209.912C218.619 210.147 219.051 210.264 219.552 210.264C219.989 210.264 220.341 210.195 220.608 210.056C220.885 209.907 221.104 209.736 221.264 209.544C221.424 209.352 221.531 209.187 221.584 209.048C221.648 208.899 221.68 208.824 221.68 208.824H223.104C223.104 208.824 223.077 208.92 223.024 209.112C222.971 209.293 222.875 209.517 222.736 209.784C222.597 210.051 222.395 210.323 222.128 210.6C221.861 210.867 221.52 211.096 221.104 211.288C220.688 211.469 220.171 211.56 219.552 211.56ZM217.088 206.44H221.712C221.691 205.885 221.573 205.437 221.36 205.096C221.147 204.744 220.875 204.483 220.544 204.312C220.213 204.141 219.861 204.056 219.488 204.056C218.816 204.056 218.267 204.275 217.84 204.712C217.413 205.139 217.163 205.715 217.088 206.44ZM225.386 211.4V202.92H226.906V203.976H226.97C227.151 203.656 227.418 203.373 227.77 203.128C228.122 202.883 228.618 202.76 229.258 202.76C229.439 202.76 229.605 202.771 229.754 202.792C229.903 202.803 229.978 202.808 229.978 202.808V204.264C229.978 204.264 229.893 204.259 229.722 204.248C229.562 204.227 229.391 204.216 229.21 204.216C228.474 204.216 227.903 204.429 227.498 204.856C227.103 205.272 226.906 205.955 226.906 206.904V211.4H225.386ZM234.803 202.76C235.336 202.76 235.784 202.845 236.147 203.016C236.51 203.187 236.803 203.389 237.027 203.624C237.251 203.848 237.422 204.061 237.539 204.264H237.635V202.92H239.155V211.4H237.635V210.056H237.539C237.422 210.259 237.251 210.477 237.027 210.712C236.803 210.947 236.51 211.149 236.147 211.32C235.784 211.48 235.336 211.56 234.803 211.56C234.163 211.56 233.603 211.437 233.123 211.192C232.643 210.936 232.243 210.6 231.923 210.184C231.603 209.757 231.363 209.283 231.203 208.76C231.043 208.237 230.963 207.704 230.963 207.16C230.963 206.616 231.043 206.083 231.203 205.56C231.363 205.037 231.603 204.568 231.923 204.152C232.243 203.725 232.643 203.389 233.123 203.144C233.603 202.888 234.163 202.76 234.803 202.76ZM235.059 204.056C234.494 204.056 234.019 204.211 233.635 204.52C233.251 204.819 232.963 205.203 232.771 205.672C232.59 206.141 232.499 206.637 232.499 207.16C232.499 207.672 232.59 208.168 232.771 208.648C232.963 209.117 233.251 209.507 233.635 209.816C234.019 210.115 234.494 210.264 235.059 210.264C235.624 210.264 236.094 210.115 236.467 209.816C236.851 209.507 237.134 209.117 237.315 208.648C237.507 208.168 237.603 207.672 237.603 207.16C237.603 206.637 237.507 206.141 237.315 205.672C237.134 205.203 236.851 204.819 236.467 204.52C236.094 204.211 235.624 204.056 235.059 204.056ZM244.788 211.56C243.914 211.56 243.252 211.336 242.804 210.888C242.367 210.44 242.148 209.811 242.148 209V204.168H240.628V202.92H242.148V200.792H243.668V202.92H245.732V204.168H243.668V209C243.668 209.427 243.786 209.741 244.02 209.944C244.255 210.136 244.596 210.232 245.044 210.232C245.279 210.232 245.503 210.216 245.716 210.184C245.93 210.152 246.036 210.136 246.036 210.136V211.432C246.036 211.432 245.914 211.453 245.668 211.496C245.423 211.539 245.13 211.56 244.788 211.56ZM249.136 201.304C248.848 201.304 248.608 201.208 248.416 201.016C248.235 200.824 248.144 200.595 248.144 200.328C248.144 200.051 248.235 199.816 248.416 199.624C248.608 199.432 248.848 199.336 249.136 199.336C249.413 199.336 249.648 199.432 249.84 199.624C250.032 199.816 250.128 200.051 250.128 200.328C250.128 200.595 250.032 200.824 249.84 201.016C249.648 201.208 249.413 201.304 249.136 201.304ZM248.384 211.4V202.92H249.904V211.4H248.384ZM256.491 211.56C255.584 211.56 254.821 211.352 254.203 210.936C253.584 210.509 253.115 209.96 252.795 209.288C252.475 208.616 252.315 207.907 252.315 207.16C252.315 206.403 252.475 205.693 252.795 205.032C253.115 204.36 253.584 203.816 254.203 203.4C254.821 202.973 255.584 202.76 256.491 202.76C257.397 202.76 258.16 202.973 258.779 203.4C259.397 203.816 259.867 204.36 260.187 205.032C260.507 205.693 260.667 206.403 260.667 207.16C260.667 207.907 260.507 208.616 260.187 209.288C259.867 209.96 259.397 210.509 258.779 210.936C258.16 211.352 257.397 211.56 256.491 211.56ZM256.491 210.232C257.067 210.232 257.547 210.088 257.931 209.8C258.325 209.501 258.619 209.117 258.811 208.648C259.013 208.179 259.115 207.683 259.115 207.16C259.115 206.627 259.013 206.131 258.811 205.672C258.619 205.203 258.325 204.824 257.931 204.536C257.547 204.237 257.067 204.088 256.491 204.088C255.925 204.088 255.445 204.237 255.051 204.536C254.656 204.824 254.357 205.203 254.155 205.672C253.963 206.131 253.867 206.627 253.867 207.16C253.867 207.683 253.963 208.179 254.155 208.648C254.357 209.117 254.656 209.501 255.051 209.8C255.445 210.088 255.925 210.232 256.491 210.232ZM262.852 211.4V202.92H264.372V204.152H264.468C264.543 204.024 264.666 203.848 264.836 203.624C265.018 203.4 265.274 203.203 265.604 203.032C265.935 202.851 266.351 202.76 266.852 202.76C267.471 202.76 267.999 202.904 268.436 203.192C268.874 203.469 269.204 203.848 269.428 204.328C269.663 204.808 269.78 205.347 269.78 205.944V211.4H268.26V206.04C268.26 205.475 268.1 205.005 267.78 204.632C267.471 204.259 267.018 204.072 266.42 204.072C265.94 204.072 265.551 204.195 265.252 204.44C264.954 204.675 264.73 204.989 264.58 205.384C264.442 205.768 264.372 206.179 264.372 206.616V211.4H262.852ZM275.24 211.56C274.59 211.56 274.051 211.469 273.624 211.288C273.208 211.107 272.878 210.883 272.632 210.616C272.387 210.339 272.206 210.067 272.088 209.8C271.971 209.523 271.896 209.293 271.864 209.112C271.832 208.931 271.816 208.84 271.816 208.84H273.352C273.352 208.84 273.368 208.915 273.4 209.064C273.443 209.203 273.523 209.368 273.64 209.56C273.768 209.741 273.96 209.907 274.216 210.056C274.483 210.195 274.835 210.264 275.272 210.264C275.774 210.264 276.163 210.147 276.44 209.912C276.718 209.667 276.856 209.368 276.856 209.016C276.856 208.707 276.744 208.461 276.52 208.28C276.307 208.099 275.998 207.96 275.592 207.864L274.44 207.592C274.014 207.485 273.614 207.341 273.24 207.16C272.867 206.979 272.563 206.733 272.328 206.424C272.104 206.104 271.992 205.709 271.992 205.24C271.992 204.515 272.264 203.923 272.808 203.464C273.352 202.995 274.062 202.76 274.936 202.76C275.523 202.76 276.008 202.845 276.392 203.016C276.776 203.176 277.08 203.379 277.304 203.624C277.539 203.869 277.71 204.115 277.816 204.36C277.934 204.605 278.008 204.813 278.04 204.984C278.072 205.144 278.088 205.224 278.088 205.224H276.616C276.616 205.224 276.6 205.165 276.568 205.048C276.536 204.92 276.462 204.781 276.344 204.632C276.238 204.472 276.072 204.333 275.848 204.216C275.624 204.088 275.326 204.024 274.952 204.024C274.44 204.024 274.067 204.141 273.832 204.376C273.598 204.611 273.48 204.867 273.48 205.144C273.48 205.411 273.587 205.629 273.8 205.8C274.024 205.96 274.312 206.083 274.664 206.168L275.832 206.44C276.558 206.611 277.155 206.893 277.624 207.288C278.104 207.672 278.344 208.227 278.344 208.952C278.344 209.421 278.222 209.859 277.976 210.264C277.731 210.659 277.379 210.973 276.92 211.208C276.462 211.443 275.902 211.56 275.24 211.56ZM290.685 214.52V210.056H290.589C290.471 210.259 290.301 210.477 290.077 210.712C289.853 210.947 289.559 211.149 289.197 211.32C288.834 211.48 288.386 211.56 287.853 211.56C287.213 211.56 286.653 211.437 286.173 211.192C285.693 210.936 285.293 210.6 284.973 210.184C284.653 209.757 284.413 209.283 284.253 208.76C284.093 208.237 284.013 207.704 284.013 207.16C284.013 206.616 284.093 206.083 284.253 205.56C284.413 205.037 284.653 204.568 284.973 204.152C285.293 203.725 285.693 203.389 286.173 203.144C286.653 202.888 287.213 202.76 287.853 202.76C288.386 202.76 288.834 202.845 289.197 203.016C289.559 203.187 289.853 203.389 290.077 203.624C290.301 203.848 290.471 204.061 290.589 204.264H290.685V202.92H292.205V214.52H290.685ZM288.109 210.264C288.674 210.264 289.143 210.115 289.517 209.816C289.901 209.507 290.183 209.117 290.365 208.648C290.557 208.168 290.653 207.672 290.653 207.16C290.653 206.637 290.557 206.141 290.365 205.672C290.183 205.203 289.901 204.819 289.517 204.52C289.143 204.211 288.674 204.056 288.109 204.056C287.543 204.056 287.069 204.211 286.685 204.52C286.301 204.819 286.013 205.203 285.821 205.672C285.639 206.141 285.549 206.637 285.549 207.16C285.549 207.672 285.639 208.168 285.821 208.648C286.013 209.117 286.301 209.507 286.685 209.816C287.069 210.115 287.543 210.264 288.109 210.264ZM297.49 211.56C296.648 211.56 295.976 211.299 295.474 210.776C294.973 210.253 294.722 209.528 294.722 208.6V202.92H296.242V208.52C296.242 209.075 296.392 209.501 296.69 209.8C297 210.099 297.405 210.248 297.906 210.248C298.418 210.248 298.829 210.115 299.138 209.848C299.448 209.581 299.672 209.24 299.81 208.824C299.949 208.408 300.018 207.981 300.018 207.544V202.92H301.538V211.4H300.018V210.184H299.922C299.858 210.312 299.736 210.488 299.554 210.712C299.373 210.925 299.117 211.123 298.786 211.304C298.456 211.475 298.024 211.56 297.49 211.56ZM304.889 201.304C304.601 201.304 304.361 201.208 304.169 201.016C303.987 200.824 303.897 200.595 303.897 200.328C303.897 200.051 303.987 199.816 304.169 199.624C304.361 199.432 304.601 199.336 304.889 199.336C305.166 199.336 305.401 199.432 305.593 199.624C305.785 199.816 305.881 200.051 305.881 200.328C305.881 200.595 305.785 200.824 305.593 201.016C305.401 201.208 305.166 201.304 304.889 201.304ZM304.137 211.4V202.92H305.657V211.4H304.137ZM312.243 211.56C311.55 211.56 310.942 211.437 310.419 211.192C309.897 210.936 309.459 210.6 309.107 210.184C308.766 209.757 308.505 209.283 308.323 208.76C308.153 208.237 308.067 207.704 308.067 207.16C308.067 206.616 308.153 206.088 308.323 205.576C308.494 205.053 308.75 204.579 309.091 204.152C309.443 203.725 309.881 203.389 310.403 203.144C310.926 202.888 311.539 202.76 312.243 202.76C312.926 202.76 313.491 202.861 313.939 203.064C314.387 203.267 314.745 203.523 315.011 203.832C315.289 204.131 315.491 204.435 315.619 204.744C315.758 205.043 315.849 205.293 315.891 205.496C315.934 205.699 315.955 205.8 315.955 205.8H314.483C314.483 205.8 314.457 205.715 314.403 205.544C314.35 205.363 314.249 205.16 314.099 204.936C313.95 204.712 313.726 204.515 313.427 204.344C313.129 204.163 312.734 204.072 312.243 204.072C311.657 204.072 311.161 204.221 310.755 204.52C310.361 204.808 310.062 205.187 309.859 205.656C309.667 206.125 309.571 206.627 309.571 207.16C309.571 207.693 309.667 208.195 309.859 208.664C310.062 209.133 310.361 209.517 310.755 209.816C311.161 210.104 311.657 210.248 312.243 210.248C312.734 210.248 313.129 210.163 313.427 209.992C313.726 209.811 313.95 209.608 314.099 209.384C314.249 209.16 314.35 208.963 314.403 208.792C314.457 208.611 314.483 208.52 314.483 208.52H315.955C315.955 208.52 315.934 208.621 315.891 208.824C315.849 209.027 315.758 209.283 315.619 209.592C315.491 209.891 315.289 210.195 315.011 210.504C314.745 210.803 314.387 211.053 313.939 211.256C313.491 211.459 312.926 211.56 312.243 211.56ZM318.312 211.4V199.24H319.832V206.312L323.208 202.92H325.192L321.288 206.776L325.272 211.4H323.336L319.832 207.32V211.4H318.312ZM327.299 211.4L327.315 199.24H328.819V211.4H327.299ZM331.649 214.52C331.404 214.52 331.196 214.509 331.025 214.488C330.854 214.467 330.769 214.456 330.769 214.456V213.16C330.769 213.16 330.854 213.165 331.025 213.176C331.206 213.197 331.398 213.208 331.601 213.208C332.23 213.208 332.742 213.075 333.137 212.808C333.542 212.552 333.884 212.125 334.161 211.528L330.881 202.92H332.465L334.913 209.544L337.377 202.92H338.977L335.697 211.416C335.281 212.483 334.742 213.267 334.081 213.768C333.43 214.269 332.62 214.52 331.649 214.52Z" fill="#616771"/>
<path d="M111.133 164.47C109.513 164.47 108.091 164.182 106.867 163.606C105.661 163.012 104.644 162.229 103.816 161.257C103.006 160.267 102.394 159.169 101.98 157.963C101.584 156.739 101.386 155.488 101.386 154.21C101.386 152.932 101.584 151.681 101.98 150.457C102.394 149.233 103.006 148.135 103.816 147.163C104.644 146.173 105.661 145.39 106.867 144.814C108.091 144.238 109.513 143.95 111.133 143.95C112.483 143.95 113.644 144.121 114.616 144.463C115.588 144.805 116.398 145.246 117.046 145.786C117.694 146.326 118.207 146.902 118.585 147.514C118.981 148.126 119.278 148.702 119.476 149.242C119.674 149.782 119.8 150.223 119.854 150.565C119.926 150.907 119.962 151.078 119.962 151.078H116.317C116.317 151.078 116.281 150.952 116.209 150.7C116.155 150.448 116.029 150.133 115.831 149.755C115.651 149.359 115.372 148.972 114.994 148.594C114.616 148.216 114.112 147.901 113.482 147.649C112.87 147.397 112.105 147.271 111.187 147.271C110.179 147.271 109.297 147.469 108.541 147.865C107.785 148.243 107.155 148.765 106.651 149.431C106.147 150.097 105.769 150.844 105.517 151.672C105.283 152.5 105.166 153.346 105.166 154.21C105.166 155.074 105.283 155.92 105.517 156.748C105.769 157.558 106.147 158.296 106.651 158.962C107.155 159.628 107.785 160.159 108.541 160.555C109.297 160.951 110.179 161.149 111.187 161.149C112.105 161.149 112.87 161.023 113.482 160.771C114.112 160.501 114.616 160.177 114.994 159.799C115.372 159.421 115.651 159.043 115.831 158.665C116.029 158.287 116.155 157.972 116.209 157.72C116.281 157.45 116.317 157.315 116.317 157.315H119.962C119.962 157.315 119.926 157.486 119.854 157.828C119.8 158.17 119.674 158.62 119.476 159.178C119.278 159.718 118.981 160.294 118.585 160.906C118.207 161.5 117.694 162.076 117.046 162.634C116.398 163.174 115.588 163.615 114.616 163.957C113.644 164.299 112.483 164.47 111.133 164.47ZM127.285 164.47C125.791 164.47 124.657 164.011 123.883 163.093C123.127 162.175 122.749 160.996 122.749 159.556V149.89H126.313V158.962C126.313 159.736 126.52 160.357 126.934 160.825C127.348 161.275 127.933 161.5 128.689 161.5C129.355 161.5 129.895 161.329 130.309 160.987C130.723 160.645 131.02 160.204 131.2 159.664C131.398 159.124 131.497 158.566 131.497 157.99V149.89H135.088V164.2H131.497V162.148H131.335C131.155 162.472 130.894 162.814 130.552 163.174C130.228 163.534 129.796 163.84 129.256 164.092C128.734 164.344 128.077 164.47 127.285 164.47ZM144.104 164.47C142.934 164.47 141.971 164.317 141.215 164.011C140.459 163.687 139.856 163.291 139.406 162.823C138.974 162.337 138.65 161.86 138.434 161.392C138.218 160.924 138.074 160.537 138.002 160.231C137.948 159.907 137.921 159.745 137.921 159.745H141.323C141.323 159.745 141.35 159.844 141.404 160.042C141.476 160.24 141.602 160.474 141.782 160.744C141.98 160.996 142.277 161.221 142.673 161.419C143.069 161.617 143.591 161.716 144.239 161.716C145.013 161.716 145.571 161.554 145.913 161.23C146.255 160.888 146.426 160.51 146.426 160.096C146.426 159.7 146.273 159.385 145.967 159.151C145.679 158.899 145.247 158.71 144.671 158.584L142.7 158.179C141.908 158.017 141.17 157.783 140.486 157.477C139.802 157.153 139.244 156.721 138.812 156.181C138.38 155.623 138.164 154.912 138.164 154.048C138.164 152.77 138.65 151.717 139.622 150.889C140.594 150.043 141.917 149.62 143.591 149.62C144.653 149.62 145.526 149.764 146.21 150.052C146.912 150.34 147.47 150.7 147.884 151.132C148.316 151.564 148.631 151.996 148.829 152.428C149.045 152.86 149.18 153.229 149.234 153.535C149.306 153.823 149.342 153.967 149.342 153.967H146.048C146.048 153.967 146.021 153.886 145.967 153.724C145.913 153.544 145.796 153.346 145.616 153.13C145.454 152.914 145.202 152.725 144.86 152.563C144.536 152.383 144.095 152.293 143.537 152.293C142.781 152.293 142.241 152.455 141.917 152.779C141.611 153.103 141.458 153.445 141.458 153.805C141.458 154.201 141.629 154.507 141.971 154.723C142.313 154.939 142.754 155.101 143.294 155.209L145.157 155.614C146.489 155.884 147.578 156.352 148.424 157.018C149.288 157.684 149.72 158.647 149.72 159.907C149.72 160.753 149.495 161.527 149.045 162.229C148.613 162.913 147.974 163.462 147.128 163.876C146.3 164.272 145.292 164.47 144.104 164.47ZM158.643 164.47C157.671 164.47 156.87 164.326 156.24 164.038C155.61 163.75 155.115 163.372 154.755 162.904C154.413 162.436 154.17 161.923 154.026 161.365C153.882 160.807 153.81 160.258 153.81 159.718V152.779H151.353V149.89H153.81V146.326H157.401V149.89H160.614V152.779H157.401V159.637C157.401 160.915 158.121 161.554 159.561 161.554C159.903 161.554 160.218 161.536 160.506 161.5C160.812 161.446 160.965 161.419 160.965 161.419V164.227C160.965 164.227 160.731 164.263 160.263 164.335C159.813 164.425 159.273 164.47 158.643 164.47ZM170.598 164.47C169.032 164.47 167.7 164.119 166.602 163.417C165.504 162.715 164.667 161.806 164.091 160.69C163.533 159.556 163.254 158.341 163.254 157.045C163.254 155.749 163.533 154.543 164.091 153.427C164.667 152.293 165.504 151.375 166.602 150.673C167.7 149.971 169.032 149.62 170.598 149.62C172.182 149.62 173.514 149.971 174.594 150.673C175.692 151.375 176.52 152.293 177.078 153.427C177.654 154.543 177.942 155.749 177.942 157.045C177.942 158.341 177.654 159.556 177.078 160.69C176.52 161.806 175.692 162.715 174.594 163.417C173.514 164.119 172.182 164.47 170.598 164.47ZM170.598 161.473C171.408 161.473 172.083 161.266 172.623 160.852C173.181 160.438 173.604 159.898 173.892 159.232C174.18 158.548 174.324 157.819 174.324 157.045C174.324 156.253 174.18 155.524 173.892 154.858C173.604 154.192 173.181 153.652 172.623 153.238C172.083 152.824 171.408 152.617 170.598 152.617C169.806 152.617 169.131 152.824 168.573 153.238C168.015 153.652 167.592 154.192 167.304 154.858C167.016 155.524 166.872 156.253 166.872 157.045C166.872 157.819 167.016 158.548 167.304 159.232C167.592 159.898 168.015 160.438 168.573 160.852C169.131 161.266 169.806 161.473 170.598 161.473ZM180.867 164.2V149.89H184.458V151.888H184.593C184.773 151.564 185.025 151.231 185.349 150.889C185.673 150.529 186.087 150.232 186.591 149.998C187.113 149.746 187.752 149.62 188.508 149.62C189.57 149.62 190.443 149.872 191.127 150.376C191.811 150.88 192.315 151.528 192.639 152.32H192.693C193.053 151.636 193.584 151.015 194.286 150.457C195.006 149.899 195.96 149.62 197.148 149.62C198.156 149.62 198.993 149.854 199.659 150.322C200.343 150.772 200.847 151.384 201.171 152.158C201.513 152.932 201.684 153.769 201.684 154.669V164.2H198.093V155.425C198.093 154.597 197.886 153.922 197.472 153.4C197.076 152.86 196.482 152.59 195.69 152.59C195.06 152.59 194.547 152.761 194.151 153.103C193.773 153.427 193.494 153.841 193.314 154.345C193.152 154.849 193.071 155.362 193.071 155.884V164.2H189.48V155.425C189.48 154.597 189.282 153.922 188.886 153.4C188.49 152.86 187.887 152.59 187.077 152.59C186.447 152.59 185.934 152.761 185.538 153.103C185.16 153.427 184.881 153.85 184.701 154.372C184.539 154.876 184.458 155.38 184.458 155.884V164.2H180.867ZM211.715 164.47C210.491 164.47 209.429 164.263 208.529 163.849C207.647 163.417 206.909 162.85 206.315 162.148C205.739 161.428 205.307 160.627 205.019 159.745C204.731 158.863 204.587 157.963 204.587 157.045C204.587 156.127 204.722 155.236 204.992 154.372C205.28 153.49 205.703 152.689 206.261 151.969C206.837 151.249 207.566 150.682 208.448 150.268C209.33 149.836 210.374 149.62 211.58 149.62C212.876 149.62 214.019 149.908 215.009 150.484C215.999 151.06 216.773 151.906 217.331 153.022C217.889 154.12 218.168 155.488 218.168 157.126V158.044H208.205C208.259 159.016 208.592 159.862 209.204 160.582C209.816 161.284 210.653 161.635 211.715 161.635C212.327 161.635 212.831 161.536 213.227 161.338C213.623 161.14 213.929 160.915 214.145 160.663C214.361 160.393 214.514 160.168 214.604 159.988C214.694 159.79 214.739 159.691 214.739 159.691H218.06C218.06 159.691 218.015 159.853 217.925 160.177C217.835 160.483 217.664 160.879 217.412 161.365C217.178 161.833 216.827 162.31 216.359 162.796C215.891 163.264 215.279 163.66 214.523 163.984C213.767 164.308 212.831 164.47 211.715 164.47ZM208.205 155.695H214.712C214.658 154.579 214.325 153.751 213.713 153.211C213.101 152.671 212.381 152.401 211.553 152.401C210.635 152.401 209.87 152.698 209.258 153.292C208.646 153.868 208.295 154.669 208.205 155.695ZM221.199 164.2V149.89H224.763V151.861H224.898C225.15 151.303 225.564 150.79 226.14 150.322C226.716 149.854 227.58 149.62 228.732 149.62C229.092 149.62 229.389 149.647 229.623 149.701C229.857 149.737 229.974 149.755 229.974 149.755V153.238C229.974 153.238 229.839 153.22 229.569 153.184C229.317 153.148 229.002 153.13 228.624 153.13C227.364 153.13 226.41 153.481 225.762 154.183C225.114 154.885 224.79 156.019 224.79 157.585V164.2H221.199ZM239.917 157.207V154.318H249.988V157.207H239.917ZM270.122 164.47C268.502 164.47 267.08 164.182 265.856 163.606C264.65 163.012 263.633 162.229 262.805 161.257C261.995 160.267 261.383 159.169 260.969 157.963C260.573 156.739 260.375 155.488 260.375 154.21C260.375 152.932 260.573 151.681 260.969 150.457C261.383 149.233 261.995 148.135 262.805 147.163C263.633 146.173 264.65 145.39 265.856 144.814C267.08 144.238 268.502 143.95 270.122 143.95C271.472 143.95 272.633 144.121 273.605 144.463C274.577 144.805 275.387 145.246 276.035 145.786C276.683 146.326 277.196 146.902 277.574 147.514C277.97 148.126 278.267 148.702 278.465 149.242C278.663 149.782 278.789 150.223 278.843 150.565C278.915 150.907 278.951 151.078 278.951 151.078H275.306C275.306 151.078 275.27 150.952 275.198 150.7C275.144 150.448 275.018 150.133 274.82 149.755C274.64 149.359 274.361 148.972 273.983 148.594C273.605 148.216 273.101 147.901 272.471 147.649C271.859 147.397 271.094 147.271 270.176 147.271C269.168 147.271 268.286 147.469 267.53 147.865C266.774 148.243 266.144 148.765 265.64 149.431C265.136 150.097 264.758 150.844 264.506 151.672C264.272 152.5 264.155 153.346 264.155 154.21C264.155 155.074 264.272 155.92 264.506 156.748C264.758 157.558 265.136 158.296 265.64 158.962C266.144 159.628 266.774 160.159 267.53 160.555C268.286 160.951 269.168 161.149 270.176 161.149C271.094 161.149 271.859 161.023 272.471 160.771C273.101 160.501 273.605 160.177 273.983 159.799C274.361 159.421 274.64 159.043 274.82 158.665C275.018 158.287 275.144 157.972 275.198 157.72C275.27 157.45 275.306 157.315 275.306 157.315H278.951C278.951 157.315 278.915 157.486 278.843 157.828C278.789 158.17 278.663 158.62 278.465 159.178C278.267 159.718 277.97 160.294 277.574 160.906C277.196 161.5 276.683 162.076 276.035 162.634C275.387 163.174 274.577 163.615 273.605 163.957C272.633 164.299 271.472 164.47 270.122 164.47ZM288.65 164.47C287.426 164.47 286.364 164.263 285.464 163.849C284.582 163.417 283.844 162.85 283.25 162.148C282.674 161.428 282.242 160.627 281.954 159.745C281.666 158.863 281.522 157.963 281.522 157.045C281.522 156.127 281.657 155.236 281.927 154.372C282.215 153.49 282.638 152.689 283.196 151.969C283.772 151.249 284.501 150.682 285.383 150.268C286.265 149.836 287.309 149.62 288.515 149.62C289.811 149.62 290.954 149.908 291.944 150.484C292.934 151.06 293.708 151.906 294.266 153.022C294.824 154.12 295.103 155.488 295.103 157.126V158.044H285.14C285.194 159.016 285.527 159.862 286.139 160.582C286.751 161.284 287.588 161.635 288.65 161.635C289.262 161.635 289.766 161.536 290.162 161.338C290.558 161.14 290.864 160.915 291.08 160.663C291.296 160.393 291.449 160.168 291.539 159.988C291.629 159.79 291.674 159.691 291.674 159.691H294.995C294.995 159.691 294.95 159.853 294.86 160.177C294.77 160.483 294.599 160.879 294.347 161.365C294.113 161.833 293.762 162.31 293.294 162.796C292.826 163.264 292.214 163.66 291.458 163.984C290.702 164.308 289.766 164.47 288.65 164.47ZM285.14 155.695H291.647C291.593 154.579 291.26 153.751 290.648 153.211C290.036 152.671 289.316 152.401 288.488 152.401C287.57 152.401 286.805 152.698 286.193 153.292C285.581 153.868 285.23 154.669 285.14 155.695ZM298.028 164.2V149.89H301.619V151.942H301.781C301.925 151.69 302.15 151.384 302.456 151.024C302.762 150.646 303.185 150.322 303.725 150.052C304.265 149.764 304.949 149.62 305.777 149.62C306.875 149.62 307.775 149.872 308.477 150.376C309.197 150.862 309.728 151.51 310.07 152.32C310.43 153.13 310.61 154.003 310.61 154.939V164.2H307.019V155.425C307.019 154.651 306.803 153.985 306.371 153.427C305.939 152.869 305.291 152.59 304.427 152.59C303.761 152.59 303.221 152.761 302.807 153.103C302.393 153.427 302.087 153.85 301.889 154.372C301.709 154.894 301.619 155.443 301.619 156.019V164.2H298.028ZM319.979 164.47C319.007 164.47 318.206 164.326 317.576 164.038C316.946 163.75 316.451 163.372 316.091 162.904C315.749 162.436 315.506 161.923 315.362 161.365C315.218 160.807 315.146 160.258 315.146 159.718V152.779H312.689V149.89H315.146V146.326H318.737V149.89H321.95V152.779H318.737V159.637C318.737 160.915 319.457 161.554 320.897 161.554C321.239 161.554 321.554 161.536 321.842 161.5C322.148 161.446 322.301 161.419 322.301 161.419V164.227C322.301 164.227 322.067 164.263 321.599 164.335C321.149 164.425 320.609 164.47 319.979 164.47ZM325.123 164.2V149.89H328.687V151.861H328.822C329.074 151.303 329.488 150.79 330.064 150.322C330.64 149.854 331.504 149.62 332.656 149.62C333.016 149.62 333.313 149.647 333.547 149.701C333.781 149.737 333.898 149.755 333.898 149.755V153.238C333.898 153.238 333.763 153.22 333.493 153.184C333.241 153.148 332.926 153.13 332.548 153.13C331.288 153.13 330.334 153.481 329.686 154.183C329.038 154.885 328.714 156.019 328.714 157.585V164.2H325.123ZM338.826 147.676C338.196 147.676 337.674 147.469 337.26 147.055C336.864 146.641 336.666 146.146 336.666 145.57C336.666 144.994 336.864 144.499 337.26 144.085C337.674 143.671 338.196 143.464 338.826 143.464C339.456 143.464 339.978 143.671 340.392 144.085C340.806 144.499 341.013 144.994 341.013 145.57C341.013 146.146 340.806 146.641 340.392 147.055C339.978 147.469 339.456 147.676 338.826 147.676ZM337.044 164.2V149.89H340.635V164.2H337.044ZM351.356 164.47C350.132 164.47 349.061 164.263 348.143 163.849C347.225 163.417 346.46 162.85 345.848 162.148C345.236 161.428 344.777 160.627 344.471 159.745C344.183 158.863 344.039 157.963 344.039 157.045C344.039 156.127 344.183 155.227 344.471 154.345C344.777 153.463 345.227 152.671 345.821 151.969C346.433 151.249 347.198 150.682 348.116 150.268C349.034 149.836 350.114 149.62 351.356 149.62C352.58 149.62 353.597 149.8 354.407 150.16C355.217 150.52 355.856 150.97 356.324 151.51C356.81 152.05 357.17 152.59 357.404 153.13C357.638 153.652 357.791 154.093 357.863 154.453C357.935 154.813 357.971 154.993 357.971 154.993H354.596C354.596 154.993 354.56 154.876 354.488 154.642C354.416 154.39 354.272 154.102 354.056 153.778C353.84 153.454 353.516 153.166 353.084 152.914C352.67 152.662 352.112 152.536 351.41 152.536C350.582 152.536 349.88 152.752 349.304 153.184C348.746 153.598 348.323 154.147 348.035 154.831C347.747 155.515 347.603 156.253 347.603 157.045C347.603 157.837 347.747 158.575 348.035 159.259C348.323 159.943 348.746 160.501 349.304 160.933C349.88 161.347 350.582 161.554 351.41 161.554C352.112 161.554 352.67 161.428 353.084 161.176C353.516 160.924 353.84 160.636 354.056 160.312C354.272 159.988 354.416 159.709 354.488 159.475C354.56 159.223 354.596 159.097 354.596 159.097H357.971C357.971 159.097 357.935 159.277 357.863 159.637C357.791 159.997 357.638 160.447 357.404 160.987C357.17 161.509 356.81 162.04 356.324 162.58C355.856 163.12 355.217 163.57 354.407 163.93C353.597 164.29 352.58 164.47 351.356 164.47Z" fill="#434447"/>
</svg>
