<svg width="519" height="337" viewBox="0 0 519 337" fill="none" xmlns="http://www.w3.org/2000/svg">
<path d="M0.552002 0H518.184V337H0.552002V0Z" fill="white"/>
<path fill-rule="evenodd" clip-rule="evenodd" d="M516.836 1.348H1.9V335.652H516.836V1.348ZM0.552002 0V337H518.184V0H0.552002Z" fill="#EAEAEA"/>
<path d="M41.4504 238.596V225.386H49.3389V227.027H43.1489V231.104H48.9804V232.708H43.1489V236.954H49.471V238.596H41.4504Z" fill="#616771"/>
<path d="M50.7787 238.596V238.502L54.5342 233.538L50.9108 228.688V228.594H52.7036L54.2889 230.708L55.5155 232.406L58.3086 228.594H60.0826V228.688L56.478 233.519L60.2713 238.502V238.596H58.4218L56.7233 236.369L55.4967 234.69L54.2889 236.369L52.6092 238.596H50.7787Z" fill="#616771"/>
<path d="M67.6883 238.766C66.1219 238.766 64.8009 238.162 63.9139 237.124V241.502H62.3097V228.594H63.9139V230.066C64.8009 229.028 66.1219 228.424 67.6883 228.424C70.6134 228.424 72.7082 230.594 72.7082 233.595C72.7082 236.596 70.6134 238.766 67.6883 238.766ZM63.8761 233.595C63.8761 235.746 65.3859 237.256 67.4807 237.256C69.5755 237.256 71.0664 235.746 71.0664 233.595C71.0664 231.444 69.5755 229.934 67.4807 229.934C65.3859 229.934 63.8761 231.444 63.8761 233.595Z" fill="#616771"/>
<path d="M79.6994 238.766C76.7176 238.766 74.5662 236.614 74.5662 233.595C74.5662 230.575 76.7176 228.424 79.6994 228.424C82.8322 228.424 85.0402 230.67 84.8515 234.142H76.2458C76.4534 235.992 77.8122 237.256 79.6994 237.256C81.0959 237.256 82.266 236.652 82.8133 235.595H84.5495C83.8513 237.558 82.0018 238.766 79.6994 238.766ZM76.2836 232.765H83.1719C82.8322 231.123 81.4923 229.934 79.6994 229.934C77.9254 229.934 76.6044 231.047 76.2836 232.765Z" fill="#616771"/>
<path d="M87.3926 238.596V228.594H88.9967V230.085C89.6949 229.009 90.7329 228.443 92.0351 228.443C92.4125 228.443 92.8466 228.499 93.2995 228.613V230.066C92.922 229.972 92.5635 229.915 92.2238 229.915C90.3743 229.915 88.9967 231.236 88.9967 233.161V238.596H87.3926Z" fill="#616771"/>
<path d="M95.5385 238.596V228.594H97.1426V238.596H95.5385ZM95.1044 226.065C95.1044 225.348 95.6328 224.819 96.35 224.819C97.0671 224.819 97.5955 225.348 97.5955 226.065C97.5955 226.726 97.0671 227.254 96.35 227.254C95.6328 227.254 95.1044 226.726 95.1044 226.065Z" fill="#616771"/>
<path d="M104.874 238.766C101.893 238.766 99.7412 236.614 99.7412 233.595C99.7412 230.575 101.893 228.424 104.874 228.424C108.007 228.424 110.215 230.67 110.026 234.142H101.421C101.628 235.992 102.987 237.256 104.874 237.256C106.271 237.256 107.441 236.652 107.988 235.595H109.724C109.026 237.558 107.177 238.766 104.874 238.766ZM101.459 232.765H108.347C108.007 231.123 106.667 229.934 104.874 229.934C103.1 229.934 101.779 231.047 101.459 232.765Z" fill="#616771"/>
<path d="M112.568 238.596V228.594H114.172V230.066C114.983 229.047 116.191 228.443 117.738 228.443C120.362 228.443 121.909 230.085 121.909 233.048V238.596H120.305V233.104C120.305 230.991 119.324 229.896 117.455 229.896C115.474 229.896 114.172 231.179 114.172 233.085V238.596H112.568Z" fill="#616771"/>
<path d="M129.478 238.766C126.477 238.766 124.345 236.633 124.345 233.614C124.345 230.557 126.458 228.424 129.478 228.424C131.95 228.424 133.819 229.839 134.404 232.161H132.799C132.29 230.745 131.082 229.934 129.516 229.934C127.421 229.934 125.987 231.425 125.987 233.614C125.987 235.784 127.421 237.256 129.516 237.256C131.12 237.256 132.309 236.445 132.799 235.01H134.441C133.875 237.332 131.969 238.766 129.478 238.766Z" fill="#616771"/>
<path d="M141.236 238.766C138.254 238.766 136.103 236.614 136.103 233.595C136.103 230.575 138.254 228.424 141.236 228.424C144.369 228.424 146.577 230.67 146.388 234.142H137.783C137.99 235.992 139.349 237.256 141.236 237.256C142.633 237.256 143.803 236.652 144.35 235.595H146.086C145.388 237.558 143.539 238.766 141.236 238.766ZM137.82 232.765H144.709C144.369 231.123 143.029 229.934 141.236 229.934C139.462 229.934 138.141 231.047 137.82 232.765Z" fill="#616771"/>
<path d="M153.194 238.766C150.25 238.766 148.174 236.596 148.174 233.595C148.174 230.594 150.25 228.424 153.194 228.424C154.761 228.424 156.082 229.028 156.969 230.066V225.386H158.573V238.596H156.969V237.124C156.082 238.162 154.761 238.766 153.194 238.766ZM149.816 233.595C149.816 235.746 151.307 237.256 153.383 237.256C155.497 237.256 156.988 235.746 156.988 233.595C156.988 231.444 155.497 229.934 153.383 229.934C151.307 229.934 149.816 231.444 149.816 233.595Z" fill="#616771"/>
<path d="M171.163 238.766C168.219 238.766 166.143 236.596 166.143 233.595C166.143 230.594 168.219 228.424 171.163 228.424C172.711 228.424 174.013 229.028 174.9 230.009V228.594H176.504V238.596H174.9V237.181C174.013 238.162 172.711 238.766 171.163 238.766ZM167.785 233.595C167.785 235.746 169.276 237.256 171.352 237.256C173.428 237.256 174.938 235.746 174.938 233.595C174.938 231.444 173.428 229.934 171.352 229.934C169.276 229.934 167.785 231.444 167.785 233.595Z" fill="#616771"/>
<path d="M184.119 238.766C181.175 238.766 179.099 236.596 179.099 233.595C179.099 230.594 181.175 228.424 184.119 228.424C185.686 228.424 187.007 229.028 187.894 230.066V225.386H189.498V238.596H187.894V237.124C187.007 238.162 185.686 238.766 184.119 238.766ZM180.741 233.595C180.741 235.746 182.232 237.256 184.308 237.256C186.422 237.256 187.913 235.746 187.913 233.595C187.913 231.444 186.422 229.934 184.308 229.934C182.232 229.934 180.741 231.444 180.741 233.595Z" fill="#616771"/>
<path d="M195.734 238.596L191.488 228.688V228.594H193.186L195.074 233.217L196.338 236.35L197.621 233.199L199.509 228.594H201.207V228.688L196.942 238.596H195.734Z" fill="#616771"/>
<path d="M207.288 238.766C204.306 238.766 202.155 236.614 202.155 233.595C202.155 230.575 204.306 228.424 207.288 228.424C210.421 228.424 212.629 230.67 212.44 234.142H203.835C204.042 235.992 205.401 237.256 207.288 237.256C208.685 237.256 209.855 236.652 210.402 235.595H212.138C211.44 237.558 209.591 238.766 207.288 238.766ZM203.872 232.765H210.761C210.421 231.123 209.081 229.934 207.288 229.934C205.514 229.934 204.193 231.047 203.872 232.765Z" fill="#616771"/>
<path d="M214.981 238.596V228.594H216.585V230.085C217.284 229.009 218.322 228.443 219.624 228.443C220.001 228.443 220.435 228.499 220.888 228.613V230.066C220.511 229.972 220.152 229.915 219.813 229.915C217.963 229.915 216.585 231.236 216.585 233.161V238.596H214.981Z" fill="#616771"/>
<path d="M227.204 238.653C224.92 238.653 223.863 237.652 223.863 235.463V229.934H221.768V228.594H223.863V226.235L225.467 226.065V228.594H228.223V229.934H225.467V235.275C225.467 236.596 225.996 237.162 227.392 237.162C227.675 237.162 228.015 237.143 228.355 237.105V238.596C227.958 238.634 227.543 238.653 227.204 238.653Z" fill="#616771"/>
<path d="M230.757 238.596V228.594H232.361V238.596H230.757ZM230.323 226.065C230.323 225.348 230.851 224.819 231.569 224.819C232.286 224.819 232.814 225.348 232.814 226.065C232.814 226.726 232.286 227.254 231.569 227.254C230.851 227.254 230.323 226.726 230.323 226.065Z" fill="#616771"/>
<path d="M239.244 238.747C236.734 238.747 235.13 237.52 235.035 235.482H236.677C236.753 236.614 237.753 237.256 239.263 237.256C240.81 237.256 241.829 236.765 241.829 235.784C241.829 234.935 241.244 234.614 239.149 234.293C236.281 233.878 235.205 233.067 235.205 231.293C235.205 229.386 236.979 228.405 239.244 228.405C241.584 228.405 243.056 229.556 243.169 231.425H241.546C241.452 230.462 240.565 229.877 239.206 229.877C237.696 229.877 236.828 230.406 236.828 231.293C236.828 232.18 237.47 232.557 239.546 232.821C241.886 233.123 243.471 233.803 243.471 235.709C243.471 237.785 241.603 238.747 239.244 238.747Z" fill="#616771"/>
<path d="M245.998 238.596V228.594H247.603V238.596H245.998ZM245.564 226.065C245.564 225.348 246.093 224.819 246.81 224.819C247.527 224.819 248.056 225.348 248.056 226.065C248.056 226.726 247.527 227.254 246.81 227.254C246.093 227.254 245.564 226.726 245.564 226.065Z" fill="#616771"/>
<path d="M250.956 238.596V228.594H252.56V230.066C253.372 229.047 254.579 228.443 256.127 228.443C258.75 228.443 260.298 230.085 260.298 233.048V238.596H258.694V233.104C258.694 230.991 257.712 229.896 255.844 229.896C253.862 229.896 252.56 231.179 252.56 233.085V238.596H250.956Z" fill="#616771"/>
<path d="M267.999 241.729C265.659 241.729 263.601 240.71 263.167 238.615H264.828C265.187 239.747 266.47 240.257 267.848 240.257C269.905 240.257 271.377 239.181 271.377 237.143V236.52C270.471 237.501 269.169 238.124 267.678 238.124C264.828 238.124 262.733 236.048 262.733 233.293C262.733 230.538 264.828 228.424 267.678 228.424C269.169 228.424 270.471 229.028 271.377 230.028V228.594H272.981V237.181C272.981 240.049 270.829 241.729 267.999 241.729ZM264.375 233.293C264.375 235.218 265.809 236.671 267.885 236.671C269.961 236.671 271.414 235.275 271.414 233.293C271.414 231.274 269.961 229.915 267.885 229.915C265.809 229.915 264.375 231.349 264.375 233.293Z" fill="#616771"/>
<path d="M284.82 238.747C282.31 238.747 280.706 237.52 280.612 235.482H282.254C282.329 236.614 283.329 237.256 284.839 237.256C286.387 237.256 287.406 236.765 287.406 235.784C287.406 234.935 286.821 234.614 284.726 234.293C281.857 233.878 280.782 233.067 280.782 231.293C280.782 229.386 282.556 228.405 284.82 228.405C287.161 228.405 288.633 229.556 288.746 231.425H287.123C287.028 230.462 286.141 229.877 284.783 229.877C283.273 229.877 282.405 230.406 282.405 231.293C282.405 232.18 283.046 232.557 285.122 232.821C287.462 233.123 289.048 233.803 289.048 235.709C289.048 237.785 287.179 238.747 284.82 238.747Z" fill="#616771"/>
<path d="M296.954 238.766C295.387 238.766 294.066 238.162 293.179 237.124V241.502H291.575V228.594H293.179V230.066C294.066 229.028 295.387 228.424 296.954 228.424C299.879 228.424 301.974 230.594 301.974 233.595C301.974 236.596 299.879 238.766 296.954 238.766ZM293.141 233.595C293.141 235.746 294.651 237.256 296.746 237.256C298.841 237.256 300.332 235.746 300.332 233.595C300.332 231.444 298.841 229.934 296.746 229.934C294.651 229.934 293.141 231.444 293.141 233.595Z" fill="#616771"/>
<path d="M308.965 238.766C305.983 238.766 303.832 236.614 303.832 233.595C303.832 230.575 305.983 228.424 308.965 228.424C312.098 228.424 314.306 230.67 314.117 234.142H305.511C305.719 235.992 307.078 237.256 308.965 237.256C310.361 237.256 311.531 236.652 312.079 235.595H313.815C313.117 237.558 311.267 238.766 308.965 238.766ZM305.549 232.765H312.437C312.098 231.123 310.758 229.934 308.965 229.934C307.191 229.934 305.87 231.047 305.549 232.765Z" fill="#616771"/>
<path d="M321.036 238.766C318.036 238.766 315.903 236.633 315.903 233.614C315.903 230.557 318.017 228.424 321.036 228.424C323.508 228.424 325.377 229.839 325.962 232.161H324.358C323.848 230.745 322.64 229.934 321.074 229.934C318.979 229.934 317.545 231.425 317.545 233.614C317.545 235.784 318.979 237.256 321.074 237.256C322.678 237.256 323.867 236.445 324.358 235.01H326C325.433 237.332 323.527 238.766 321.036 238.766Z" fill="#616771"/>
<path d="M328.416 238.596V228.594H330.02V238.596H328.416ZM327.982 226.065C327.982 225.348 328.51 224.819 329.228 224.819C329.945 224.819 330.473 225.348 330.473 226.065C330.473 226.726 329.945 227.254 329.228 227.254C328.51 227.254 327.982 226.726 327.982 226.065Z" fill="#616771"/>
<path d="M337.639 238.766C334.695 238.766 332.619 236.596 332.619 233.595C332.619 230.594 334.695 228.424 337.639 228.424C339.186 228.424 340.488 229.028 341.375 230.009V228.594H342.979V238.596H341.375V237.181C340.488 238.162 339.186 238.766 337.639 238.766ZM334.261 233.595C334.261 235.746 335.751 237.256 337.827 237.256C339.903 237.256 341.413 235.746 341.413 233.595C341.413 231.444 339.903 229.934 337.827 229.934C335.751 229.934 334.261 231.444 334.261 233.595Z" fill="#616771"/>
<path d="M346.33 238.596V225.386H347.934V238.596H346.33Z" fill="#616771"/>
<path d="M351.287 238.596V228.594H352.891V238.596H351.287ZM350.853 226.065C350.853 225.348 351.382 224.819 352.099 224.819C352.816 224.819 353.344 225.348 353.344 226.065C353.344 226.726 352.816 227.254 352.099 227.254C351.382 227.254 350.853 226.726 350.853 226.065Z" fill="#616771"/>
<path d="M359.774 238.747C357.264 238.747 355.66 237.52 355.565 235.482H357.207C357.283 236.614 358.283 237.256 359.793 237.256C361.34 237.256 362.359 236.765 362.359 235.784C362.359 234.935 361.774 234.614 359.68 234.293C356.811 233.878 355.735 233.067 355.735 231.293C355.735 229.386 357.509 228.405 359.774 228.405C362.114 228.405 363.586 229.556 363.699 231.425H362.076C361.982 230.462 361.095 229.877 359.736 229.877C358.226 229.877 357.358 230.406 357.358 231.293C357.358 232.18 358 232.557 360.076 232.821C362.416 233.123 364.001 233.803 364.001 235.709C364.001 237.785 362.133 238.747 359.774 238.747Z" fill="#616771"/>
<path d="M370.421 238.653C368.137 238.653 367.08 237.652 367.08 235.463V229.934H364.986V228.594H367.08V226.235L368.684 226.065V228.594H371.44V229.934H368.684V235.275C368.684 236.596 369.213 237.162 370.609 237.162C370.892 237.162 371.232 237.143 371.572 237.105V238.596C371.176 238.634 370.76 238.653 370.421 238.653Z" fill="#616771"/>
<path d="M383.386 238.766C380.347 238.766 378.177 236.596 378.177 233.595C378.177 230.594 380.347 228.424 383.386 228.424C386.443 228.424 388.594 230.594 388.594 233.595C388.594 236.596 386.443 238.766 383.386 238.766ZM379.819 233.595C379.819 235.727 381.31 237.256 383.386 237.256C385.461 237.256 386.971 235.727 386.971 233.595C386.971 231.462 385.461 229.934 383.386 229.934C381.31 229.934 379.819 231.462 379.819 233.595Z" fill="#616771"/>
<path d="M391.206 238.596V228.594H392.81V230.066C393.622 229.047 394.829 228.443 396.377 228.443C399 228.443 400.548 230.085 400.548 233.048V238.596H398.943V233.104C398.943 230.991 397.962 229.896 396.094 229.896C394.112 229.896 392.81 231.179 392.81 233.085V238.596H391.206Z" fill="#616771"/>
<path d="M414.074 238.766C412.508 238.766 411.187 238.162 410.3 237.124V238.596H408.696V225.386H410.3V230.066C411.187 229.028 412.508 228.424 414.074 228.424C416.999 228.424 419.094 230.594 419.094 233.595C419.094 236.596 416.999 238.766 414.074 238.766ZM410.262 233.595C410.262 235.746 411.772 237.256 413.867 237.256C415.961 237.256 417.452 235.746 417.452 233.595C417.452 231.444 415.961 229.934 413.867 229.934C411.772 229.934 410.262 231.444 410.262 233.595Z" fill="#616771"/>
<path d="M425.67 238.747C423.047 238.747 421.556 237.067 421.556 234.142V228.594H423.16V234.142C423.16 236.199 424.104 237.294 425.953 237.294C427.935 237.294 429.199 236.048 429.199 234.142V228.594H430.803V238.596H429.199V237.143C428.369 238.181 427.161 238.747 425.67 238.747Z" fill="#616771"/>
<path d="M438.283 238.766C435.339 238.766 433.263 236.596 433.263 233.595C433.263 230.594 435.339 228.424 438.283 228.424C439.85 228.424 441.171 229.028 442.058 230.066V225.386H443.662V238.596H442.058V237.124C441.171 238.162 439.85 238.766 438.283 238.766ZM434.905 233.595C434.905 235.746 436.396 237.256 438.472 237.256C440.586 237.256 442.076 235.746 442.076 233.595C442.076 231.444 440.586 229.934 438.472 229.934C436.396 229.934 434.905 231.444 434.905 233.595Z" fill="#616771"/>
<path d="M451.54 241.729C449.2 241.729 447.143 240.71 446.709 238.615H448.369C448.728 239.747 450.011 240.257 451.389 240.257C453.446 240.257 454.918 239.181 454.918 237.143V236.52C454.012 237.501 452.71 238.124 451.219 238.124C448.369 238.124 446.275 236.048 446.275 233.293C446.275 230.538 448.369 228.424 451.219 228.424C452.71 228.424 454.012 229.028 454.918 230.028V228.594H456.522V237.181C456.522 240.049 454.371 241.729 451.54 241.729ZM447.916 233.293C447.916 235.218 449.351 236.671 451.427 236.671C453.503 236.671 454.956 235.275 454.956 233.293C454.956 231.274 453.503 229.915 451.427 229.915C449.351 229.915 447.916 231.349 447.916 233.293Z" fill="#616771"/>
<path d="M464.253 238.766C461.272 238.766 459.12 236.614 459.12 233.595C459.12 230.575 461.272 228.424 464.253 228.424C467.386 228.424 469.594 230.67 469.405 234.142H460.8C461.007 235.992 462.366 237.256 464.253 237.256C465.65 237.256 466.82 236.652 467.367 235.595H469.103C468.405 237.558 466.556 238.766 464.253 238.766ZM460.837 232.765H467.726C467.386 231.123 466.046 229.934 464.253 229.934C462.479 229.934 461.158 231.047 460.837 232.765Z" fill="#616771"/>
<path d="M475.875 238.653C473.592 238.653 472.535 237.652 472.535 235.463V229.934H470.44V228.594H472.535V226.235L474.139 226.065V228.594H476.894V229.934H474.139V235.275C474.139 236.596 474.668 237.162 476.064 237.162C476.347 237.162 476.687 237.143 477.027 237.105V238.596C476.63 238.634 476.215 238.653 475.875 238.653Z" fill="#616771"/>
<path d="M76 193.051V168.408H85.6423C89.7189 168.408 92.5549 170.978 92.5549 174.85C92.5549 176.963 91.7395 178.723 90.2861 179.92C92.3776 181.046 93.6538 183.299 93.6538 185.939C93.6538 190.234 90.6406 193.051 86.2094 193.051H76ZM80.0767 189.143H85.8549C88.0528 189.143 89.4353 187.911 89.4353 185.623C89.4353 183.44 88.1237 182.138 85.9258 182.138H80.0767V189.143ZM80.0767 178.406H85.3232C87.3438 178.406 88.3718 177.209 88.3718 175.308C88.3718 173.407 87.1666 172.281 85.2169 172.281H80.0767V178.406Z" fill="#282A2D"/>
<path d="M104.995 193.367C100.174 193.367 97.4442 190.34 97.4442 184.919V174.393H101.379V184.707C101.379 188.087 102.903 189.812 105.881 189.812C109.143 189.812 111.234 187.805 111.234 184.672V174.393H115.169V193.051H111.305L111.269 190.762C109.674 192.487 107.547 193.367 104.995 193.367Z" fill="#282A2D"/>
<path d="M128.547 193.403C123.017 193.403 119.153 189.284 119.153 183.722C119.153 178.089 123.052 174.041 128.547 174.041C131.135 174.041 133.368 174.921 134.999 176.47V168.408H138.934V193.051H135.211L135.141 190.833C133.51 192.452 131.206 193.403 128.547 193.403ZM123.123 183.722C123.123 187.277 125.605 189.741 129.079 189.741C132.588 189.741 135.07 187.277 135.07 183.722C135.07 180.166 132.588 177.702 129.079 177.702C125.605 177.702 123.123 180.166 123.123 183.722Z" fill="#282A2D"/>
<path d="M153.062 199C148.524 199 144.589 196.993 143.916 192.839H147.886C148.453 194.67 150.58 195.48 152.778 195.48C156.146 195.48 158.698 193.79 158.698 190.481V189.671C157.067 191.15 154.834 192.065 152.388 192.065C147.106 192.065 143.171 188.298 143.171 183.088C143.171 177.948 147.071 174.041 152.388 174.041C154.905 174.041 157.174 174.991 158.804 176.54L158.875 174.393H162.598V190.34C162.598 195.867 158.45 199 153.062 199ZM147.177 183.123C147.177 186.292 149.517 188.615 152.955 188.615C156.394 188.615 158.734 186.397 158.734 183.123C158.734 179.779 156.394 177.631 152.955 177.631C149.517 177.631 147.177 179.92 147.177 183.123Z" fill="#282A2D"/>
<path d="M176.592 193.403C170.956 193.403 166.844 189.354 166.844 183.722C166.844 178.089 170.956 174.041 176.592 174.041C182.689 174.041 186.872 178.441 186.341 185.024H170.885C171.381 187.911 173.579 189.812 176.592 189.812C178.825 189.812 180.704 188.861 181.591 187.348H185.844C184.533 191.079 180.988 193.403 176.592 193.403ZM170.991 181.997H182.335C181.661 179.427 179.534 177.631 176.592 177.631C173.721 177.631 171.629 179.356 170.991 181.997Z" fill="#282A2D"/>
<path d="M198.283 193.227C193.923 193.227 191.654 191.29 191.654 187.066V177.667H188.002V174.393H191.654V170.133L195.589 169.711V174.393H200.481V177.667H195.589V186.608C195.589 188.791 196.617 189.671 198.956 189.671C199.488 189.671 200.091 189.636 200.729 189.53V193.051C199.878 193.156 198.992 193.227 198.283 193.227Z" fill="#282A2D"/>
<path d="M225.631 193.403C218.293 193.403 212.975 188.052 212.975 180.729C212.975 173.407 218.293 168.056 225.631 168.056C232.933 168.056 238.251 173.407 238.251 180.729C238.251 188.052 232.933 193.403 225.631 193.403ZM217.265 180.729C217.265 185.763 220.739 189.354 225.631 189.354C230.523 189.354 233.961 185.763 233.961 180.729C233.961 175.695 230.523 172.105 225.631 172.105C220.739 172.105 217.265 175.695 217.265 180.729Z" fill="#282A2D"/>
<path d="M253.153 193.403C250.565 193.403 248.332 192.523 246.701 190.974V198.578H242.766V174.393H246.488L246.559 176.611C248.19 174.991 250.494 174.041 253.153 174.041C258.648 174.041 262.547 178.089 262.547 183.722C262.547 189.284 258.718 193.403 253.153 193.403ZM246.63 183.722C246.63 187.277 249.112 189.741 252.621 189.741C256.095 189.741 258.577 187.277 258.577 183.722C258.577 180.166 256.095 177.702 252.621 177.702C249.112 177.702 246.63 180.166 246.63 183.722Z" fill="#282A2D"/>
<path d="M274.555 193.227C270.194 193.227 267.926 191.29 267.926 187.066V177.667H264.274V174.393H267.926V170.133L271.861 169.711V174.393H276.753V177.667H271.861V186.608C271.861 188.791 272.889 189.671 275.228 189.671C275.76 189.671 276.363 189.636 277.001 189.53V193.051C276.15 193.156 275.264 193.227 274.555 193.227Z" fill="#282A2D"/>
<path d="M281.075 193.051V174.393H285.01V193.051H281.075ZM280.331 169.675C280.331 168.127 281.501 167 283.06 167C284.62 167 285.79 168.127 285.79 169.675C285.79 171.154 284.62 172.281 283.06 172.281C281.501 172.281 280.331 171.154 280.331 169.675Z" fill="#282A2D"/>
<path d="M290.658 193.051V174.393H294.522L294.557 176.681C296.011 174.991 298.067 174.076 300.406 174.076C303.278 174.076 305.405 175.167 306.61 177.35C308.382 175.202 310.758 174.076 313.523 174.076C318.344 174.076 320.932 177.033 320.932 182.525V193.051H316.997V182.736C316.997 179.356 315.614 177.631 312.814 177.631C309.73 177.631 307.78 179.638 307.78 182.736V193.051H303.845V182.736C303.845 179.356 302.427 177.631 299.626 177.631C296.578 177.631 294.593 179.638 294.593 182.736V193.051H290.658Z" fill="#282A2D"/>
<path d="M326.273 193.051V174.393H330.208V193.051H326.273ZM325.529 169.675C325.529 168.127 326.699 167 328.259 167C329.818 167 330.988 168.127 330.988 169.675C330.988 171.154 329.818 172.281 328.259 172.281C326.699 172.281 325.529 171.154 325.529 169.675Z" fill="#282A2D"/>
<path d="M334.119 193.051V190.762L343.867 177.878H334.792V174.393H349.433V176.54L339.578 189.53H349.681V193.051H334.119Z" fill="#282A2D"/>
<path d="M361.31 193.403C355.744 193.403 351.88 189.319 351.88 183.722C351.88 178.054 355.815 174.041 361.31 174.041C363.933 174.041 366.202 174.956 367.833 176.54L367.904 174.393H371.626V193.051H367.904L367.833 190.868C366.202 192.487 363.933 193.403 361.31 193.403ZM355.886 183.722C355.886 187.277 358.368 189.741 361.806 189.741C365.28 189.741 367.762 187.277 367.762 183.722C367.762 180.166 365.28 177.702 361.806 177.702C358.368 177.702 355.886 180.166 355.886 183.722Z" fill="#282A2D"/>
<path d="M385.258 193.227C380.898 193.227 378.629 191.29 378.629 187.066V177.667H374.978V174.393H378.629V170.133L382.564 169.711V174.393H387.456V177.667H382.564V186.608C382.564 188.791 383.592 189.671 385.932 189.671C386.464 189.671 387.066 189.636 387.704 189.53V193.051C386.854 193.156 385.967 193.227 385.258 193.227Z" fill="#282A2D"/>
<path d="M391.779 193.051V174.393H395.714V193.051H391.779ZM391.034 169.675C391.034 168.127 392.204 167 393.764 167C395.324 167 396.494 168.127 396.494 169.675C396.494 171.154 395.324 172.281 393.764 172.281C392.204 172.281 391.034 171.154 391.034 169.675Z" fill="#282A2D"/>
<path d="M409.94 193.403C404.126 193.403 400.014 189.354 400.014 183.722C400.014 178.089 404.126 174.041 409.94 174.041C415.718 174.041 419.866 178.089 419.866 183.722C419.866 189.354 415.718 193.403 409.94 193.403ZM404.02 183.722C404.02 187.242 406.501 189.741 409.94 189.741C413.379 189.741 415.86 187.242 415.86 183.722C415.86 180.201 413.379 177.702 409.94 177.702C406.501 177.702 404.02 180.201 404.02 183.722Z" fill="#282A2D"/>
<path d="M424.133 193.051V174.393H427.997L428.033 176.681C429.593 175.026 431.684 174.076 434.378 174.076C439.27 174.076 442 177.139 442 182.525V193.051H438.065V182.806C438.065 179.392 436.505 177.631 433.492 177.631C430.195 177.631 428.068 179.673 428.068 182.806V193.051H424.133Z" fill="#282A2D"/>
<path fill-rule="evenodd" clip-rule="evenodd" d="M259.368 128.06C279.469 128.06 295.764 111.765 295.764 91.664C295.764 71.563 279.469 55.268 259.368 55.268C239.267 55.268 222.972 71.563 222.972 91.664C222.972 111.765 239.267 128.06 259.368 128.06ZM259.368 129.408C280.213 129.408 297.112 112.509 297.112 91.664C297.112 70.8185 280.213 53.92 259.368 53.92C238.523 53.92 221.624 70.8185 221.624 91.664C221.624 112.509 238.523 129.408 259.368 129.408Z" fill="#EAEAEA"/>
<path fill-rule="evenodd" clip-rule="evenodd" d="M260 84C253.925 84 249 88.9249 249 95C249 101.075 253.925 106 260 106C266.075 106 271 101.075 271 95C271 88.9249 266.075 84 260 84ZM247 95C247 87.8203 252.82 82 260 82C267.18 82 273 87.8203 273 95C273 102.18 267.18 108 260 108C252.82 108 247 102.18 247 95Z" fill="#FD8126"/>
<path fill-rule="evenodd" clip-rule="evenodd" d="M256.333 92.0667C256.333 90.1889 257.856 88.6667 259.733 88.6667H260.267C262.144 88.6667 263.667 90.1889 263.667 92.0667V92.3333C263.667 92.8856 263.219 93.3333 262.667 93.3333C262.114 93.3333 261.667 92.8856 261.667 92.3333V92.0667C261.667 91.2935 261.04 90.6667 260.267 90.6667H259.733C258.96 90.6667 258.333 91.2935 258.333 92.0667V92.6C258.333 93.3732 258.96 94 259.733 94H260.267C262.144 94 263.667 95.5222 263.667 97.4V97.9333C263.667 99.8111 262.144 101.333 260.267 101.333H259.733C257.856 101.333 256.333 99.8111 256.333 97.9333V97.6667C256.333 97.1144 256.781 96.6667 257.333 96.6667C257.886 96.6667 258.333 97.1144 258.333 97.6667V97.9333C258.333 98.7065 258.96 99.3333 259.733 99.3333H260.267C261.04 99.3333 261.667 98.7065 261.667 97.9333V97.4C261.667 96.6268 261.04 96 260.267 96H259.733C257.856 96 256.333 94.4778 256.333 92.6V92.0667Z" fill="#FD8126"/>
<path fill-rule="evenodd" clip-rule="evenodd" d="M260 87.3333C260.552 87.3333 261 87.7811 261 88.3333V89.6667C261 90.219 260.552 90.6667 260 90.6667C259.448 90.6667 259 90.219 259 89.6667V88.3333C259 87.7811 259.448 87.3333 260 87.3333Z" fill="#FD8126"/>
<path fill-rule="evenodd" clip-rule="evenodd" d="M260 99.3333C260.552 99.3333 261 99.7811 261 100.333V101.667C261 102.219 260.552 102.667 260 102.667C259.448 102.667 259 102.219 259 101.667V100.333C259 99.7811 259.448 99.3333 260 99.3333Z" fill="#FD8126"/>
</svg>
