<svg width="519" height="337" viewBox="0 0 519 337" fill="none" xmlns="http://www.w3.org/2000/svg">
<path d="M0.815918 0H518.448V337H0.815918V0Z" fill="white"/>
<path fill-rule="evenodd" clip-rule="evenodd" d="M517.1 1.348H2.16392V335.652H517.1V1.348ZM0.815918 0V337H518.448V0H0.815918Z" fill="#EAEAEA"/>
<path fill-rule="evenodd" clip-rule="evenodd" d="M259.632 128.06C279.733 128.06 296.028 111.765 296.028 91.664C296.028 71.563 279.733 55.268 259.632 55.268C239.531 55.268 223.236 71.563 223.236 91.664C223.236 111.765 239.531 128.06 259.632 128.06ZM259.632 129.408C280.477 129.408 297.376 112.509 297.376 91.664C297.376 70.8185 280.477 53.92 259.632 53.92C238.787 53.92 221.888 70.8185 221.888 91.664C221.888 112.509 238.787 129.408 259.632 129.408Z" fill="#EAEAEA"/>
<path fill-rule="evenodd" clip-rule="evenodd" d="M248 91C248 83.8203 253.82 78 261 78C268.18 78 274 83.8203 274 91C274 98.1797 268.18 104 261 104H250.333C249.045 104 248 102.955 248 101.667V91ZM261 80C254.925 80 250 84.9249 250 91V101.667C250 101.851 250.149 102 250.333 102H261C267.075 102 272 97.0751 272 91C272 84.9249 267.075 80 261 80Z" fill="#FD8126"/>
<path fill-rule="evenodd" clip-rule="evenodd" d="M266.973 86.2318C267.398 86.5853 267.455 87.2159 267.101 87.6402L260.435 95.6402C260.108 96.0328 259.537 96.1155 259.112 95.832L255.112 93.1654C254.652 92.859 254.528 92.2382 254.835 91.7786C255.141 91.3191 255.762 91.1949 256.221 91.5013L259.474 93.6695L265.565 86.3598C265.919 85.9355 266.549 85.8782 266.973 86.2318Z" fill="#FD8126"/>
<path d="M91.8379 224.777V211.566H96.5559C99.4433 211.566 100.915 213.642 100.915 215.68C100.915 217.643 99.5943 219.492 96.9522 219.643L101.274 224.607V224.777H99.2546L94.329 218.945V218.19H96.5748C98.1412 218.19 99.1791 217.247 99.1791 215.699C99.1791 214.17 98.1034 213.17 96.4993 213.17H93.5364V224.777H91.8379Z" fill="#616771"/>
<path d="M107.901 224.946C104.919 224.946 102.767 222.795 102.767 219.775C102.767 216.756 104.919 214.605 107.901 214.605C111.033 214.605 113.241 216.85 113.053 220.323H104.447C104.655 222.172 106.013 223.437 107.901 223.437C109.297 223.437 110.467 222.833 111.015 221.776H112.751C112.052 223.739 110.203 224.946 107.901 224.946ZM104.485 218.945H111.373C111.033 217.303 109.693 216.114 107.901 216.114C106.127 216.114 104.806 217.228 104.485 218.945Z" fill="#616771"/>
<path d="M119.991 224.946C117.047 224.946 114.971 222.776 114.971 219.775C114.971 216.775 117.047 214.605 119.991 214.605C121.538 214.605 122.841 215.208 123.728 216.19V214.774H125.332V224.777H123.728V223.361C122.841 224.343 121.538 224.946 119.991 224.946ZM116.613 219.775C116.613 221.927 118.104 223.437 120.18 223.437C122.256 223.437 123.765 221.927 123.765 219.775C123.765 217.624 122.256 216.114 120.18 216.114C118.104 216.114 116.613 217.624 116.613 219.775Z" fill="#616771"/>
<path d="M133.192 224.946C130.192 224.946 128.059 222.814 128.059 219.794C128.059 216.737 130.173 214.605 133.192 214.605C135.665 214.605 137.533 216.02 138.118 218.341H136.514C136.004 216.926 134.796 216.114 133.23 216.114C131.135 216.114 129.701 217.605 129.701 219.794C129.701 221.965 131.135 223.437 133.23 223.437C134.834 223.437 136.023 222.625 136.514 221.191H138.156C137.59 223.512 135.683 224.946 133.192 224.946Z" fill="#616771"/>
<path d="M140.704 224.777V211.566H142.308V216.246C143.12 215.227 144.365 214.623 145.8 214.623C148.536 214.623 150.046 216.265 150.046 219.228V224.777H148.442V219.285C148.442 217.171 147.46 216.077 145.592 216.077C143.611 216.077 142.308 217.36 142.308 219.266V224.777H140.704Z" fill="#616771"/>
<path d="M162.723 224.946C159.779 224.946 157.703 222.776 157.703 219.775C157.703 216.775 159.779 214.605 162.723 214.605C164.271 214.605 165.573 215.208 166.46 216.19V214.774H168.064V224.777H166.46V223.361C165.573 224.343 164.271 224.946 162.723 224.946ZM159.345 219.775C159.345 221.927 160.836 223.437 162.912 223.437C164.988 223.437 166.498 221.927 166.498 219.775C166.498 217.624 164.988 216.114 162.912 216.114C160.836 216.114 159.345 217.624 159.345 219.775Z" fill="#616771"/>
<path d="M176.636 224.777V211.566H178.24V224.777H176.636Z" fill="#616771"/>
<path d="M185.991 224.946C183.047 224.946 180.971 222.776 180.971 219.775C180.971 216.775 183.047 214.605 185.991 214.605C187.538 214.605 188.841 215.208 189.728 216.19V214.774H191.332V224.777H189.728V223.361C188.841 224.343 187.538 224.946 185.991 224.946ZM182.613 219.775C182.613 221.927 184.104 223.437 186.18 223.437C188.256 223.437 189.765 221.927 189.765 219.775C189.765 217.624 188.256 216.114 186.18 216.114C184.104 216.114 182.613 217.624 182.613 219.775Z" fill="#616771"/>
<path d="M194.814 224.777V214.774H196.418V216.265C197.116 215.19 198.154 214.623 199.457 214.623C199.834 214.623 200.268 214.68 200.721 214.793V216.246C200.344 216.152 199.985 216.095 199.645 216.095C197.796 216.095 196.418 217.416 196.418 219.341V224.777H194.814Z" fill="#616771"/>
<path d="M207.179 227.909C204.838 227.909 202.781 226.89 202.347 224.795H204.008C204.367 225.928 205.65 226.437 207.028 226.437C209.085 226.437 210.557 225.362 210.557 223.323V222.701C209.651 223.682 208.349 224.305 206.858 224.305C204.008 224.305 201.913 222.229 201.913 219.474C201.913 216.718 204.008 214.605 206.858 214.605C208.349 214.605 209.651 215.208 210.557 216.209V214.774H212.161V223.361C212.161 226.23 210.009 227.909 207.179 227.909ZM203.555 219.474C203.555 221.398 204.989 222.852 207.065 222.852C209.141 222.852 210.594 221.455 210.594 219.474C210.594 217.454 209.141 216.095 207.065 216.095C204.989 216.095 203.555 217.53 203.555 219.474Z" fill="#616771"/>
<path d="M220.024 224.946C217.042 224.946 214.891 222.795 214.891 219.775C214.891 216.756 217.042 214.605 220.024 214.605C223.157 214.605 225.365 216.85 225.176 220.323H216.57C216.778 222.172 218.137 223.437 220.024 223.437C221.421 223.437 222.591 222.833 223.138 221.776H224.874C224.176 223.739 222.326 224.946 220.024 224.946ZM216.608 218.945H223.497C223.157 217.303 221.817 216.114 220.024 216.114C218.25 216.114 216.929 217.228 216.608 218.945Z" fill="#616771"/>
<path d="M232.939 224.777V214.774H234.543V216.246C235.355 215.227 236.562 214.623 238.11 214.623C240.733 214.623 242.281 216.265 242.281 219.228V224.777H240.677V219.285C240.677 217.171 239.695 216.077 237.827 216.077C235.845 216.077 234.543 217.36 234.543 219.266V224.777H232.939Z" fill="#616771"/>
<path d="M249.566 224.928C246.943 224.928 245.452 223.248 245.452 220.323V214.774H247.056V220.323C247.056 222.38 248 223.474 249.849 223.474C251.831 223.474 253.095 222.229 253.095 220.323V214.774H254.7V224.777H253.095V223.323C252.265 224.361 251.057 224.928 249.566 224.928Z" fill="#616771"/>
<path d="M258.046 224.777V214.774H259.651V216.171C260.424 215.171 261.575 214.623 262.859 214.623C264.482 214.623 265.652 215.284 266.293 216.548C267.18 215.322 268.52 214.623 270.049 214.623C272.616 214.623 274.031 216.265 274.031 219.228V224.777H272.427V219.247C272.427 217.171 271.559 216.077 269.86 216.077C268.03 216.077 266.841 217.322 266.841 219.228V224.777H265.237V219.247C265.237 217.171 264.369 216.077 262.67 216.077C260.839 216.077 259.651 217.322 259.651 219.228V224.777H258.046Z" fill="#616771"/>
<path d="M282.742 224.946C281.176 224.946 279.855 224.343 278.968 223.305V224.777H277.364V211.566H278.968V216.246C279.855 215.208 281.176 214.605 282.742 214.605C285.668 214.605 287.762 216.775 287.762 219.775C287.762 222.776 285.668 224.946 282.742 224.946ZM278.93 219.775C278.93 221.927 280.44 223.437 282.535 223.437C284.63 223.437 286.12 221.927 286.12 219.775C286.12 217.624 284.63 216.114 282.535 216.114C280.44 216.114 278.93 217.624 278.93 219.775Z" fill="#616771"/>
<path d="M294.886 224.946C291.904 224.946 289.752 222.795 289.752 219.775C289.752 216.756 291.904 214.605 294.886 214.605C298.018 214.605 300.226 216.85 300.038 220.323H291.432C291.64 222.172 292.998 223.437 294.886 223.437C296.282 223.437 297.452 222.833 297.999 221.776H299.736C299.037 223.739 297.188 224.946 294.886 224.946ZM291.47 218.945H298.358C298.018 217.303 296.678 216.114 294.886 216.114C293.112 216.114 291.791 217.228 291.47 218.945Z" fill="#616771"/>
<path d="M302.711 224.777V214.774H304.315V216.265C305.013 215.19 306.051 214.623 307.353 214.623C307.731 214.623 308.165 214.68 308.618 214.793V216.246C308.24 216.152 307.882 216.095 307.542 216.095C305.693 216.095 304.315 217.416 304.315 219.341V224.777H302.711Z" fill="#616771"/>
<path d="M320.532 224.946C317.494 224.946 315.324 222.776 315.324 219.775C315.324 216.775 317.494 214.605 320.532 214.605C323.59 214.605 325.741 216.775 325.741 219.775C325.741 222.776 323.59 224.946 320.532 224.946ZM316.966 219.775C316.966 221.908 318.456 223.437 320.532 223.437C322.608 223.437 324.118 221.908 324.118 219.775C324.118 217.643 322.608 216.114 320.532 216.114C318.456 216.114 316.966 217.643 316.966 219.775Z" fill="#616771"/>
<path d="M329.074 214.397C329.074 212.472 330.131 211.377 332.339 211.377C332.717 211.377 333.113 211.415 333.566 211.472V212.774C333.207 212.736 332.886 212.717 332.603 212.717C331.094 212.717 330.678 213.246 330.678 214.454V214.774H333.471V216.114H330.678V224.777H329.074V216.114H327.036V214.774H329.074V214.397Z" fill="#616771"/>
<path d="M346.181 224.946C344.614 224.946 343.293 224.343 342.406 223.305V227.683H340.802V214.774H342.406V216.246C343.293 215.208 344.614 214.605 346.181 214.605C349.106 214.605 351.201 216.775 351.201 219.775C351.201 222.776 349.106 224.946 346.181 224.946ZM342.368 219.775C342.368 221.927 343.878 223.437 345.973 223.437C348.068 223.437 349.559 221.927 349.559 219.775C349.559 217.624 348.068 216.114 345.973 216.114C343.878 216.114 342.368 217.624 342.368 219.775Z" fill="#616771"/>
<path d="M358.399 224.946C355.361 224.946 353.191 222.776 353.191 219.775C353.191 216.775 355.361 214.605 358.399 214.605C361.457 214.605 363.608 216.775 363.608 219.775C363.608 222.776 361.457 224.946 358.399 224.946ZM354.832 219.775C354.832 221.908 356.323 223.437 358.399 223.437C360.475 223.437 361.985 221.908 361.985 219.775C361.985 217.643 360.475 216.114 358.399 216.114C356.323 216.114 354.832 217.643 354.832 219.775Z" fill="#616771"/>
<path d="M370.281 224.833C367.997 224.833 366.94 223.833 366.94 221.644V216.114H364.846V214.774H366.94V212.415L368.544 212.246V214.774H371.3V216.114H368.544V221.455C368.544 222.776 369.073 223.342 370.469 223.342C370.752 223.342 371.092 223.323 371.432 223.286V224.777C371.036 224.814 370.62 224.833 370.281 224.833Z" fill="#616771"/>
<path d="M378.234 224.946C375.252 224.946 373.101 222.795 373.101 219.775C373.101 216.756 375.252 214.605 378.234 214.605C381.367 214.605 383.575 216.85 383.386 220.323H374.78C374.988 222.172 376.347 223.437 378.234 223.437C379.631 223.437 380.801 222.833 381.348 221.776H383.084C382.386 223.739 380.536 224.946 378.234 224.946ZM374.818 218.945H381.706C381.367 217.303 380.027 216.114 378.234 216.114C376.46 216.114 375.139 217.228 374.818 218.945Z" fill="#616771"/>
<path d="M386.059 224.777V214.774H387.663V216.246C388.475 215.227 389.683 214.623 391.23 214.623C393.853 214.623 395.401 216.265 395.401 219.228V224.777H393.797V219.285C393.797 217.171 392.815 216.077 390.947 216.077C388.966 216.077 387.663 217.36 387.663 219.266V224.777H386.059Z" fill="#616771"/>
<path d="M402.616 224.833C400.332 224.833 399.275 223.833 399.275 221.644V216.114H397.181V214.774H399.275V212.415L400.879 212.246V214.774H403.635V216.114H400.879V221.455C400.879 222.776 401.408 223.342 402.804 223.342C403.087 223.342 403.427 223.323 403.767 223.286V224.777C403.371 224.814 402.955 224.833 402.616 224.833Z" fill="#616771"/>
<path d="M406.301 224.777V214.774H407.905V224.777H406.301ZM405.867 212.246C405.867 211.528 406.396 211 407.113 211C407.83 211 408.358 211.528 408.358 212.246C408.358 212.906 407.83 213.434 407.113 213.434C406.396 213.434 405.867 212.906 405.867 212.246Z" fill="#616771"/>
<path d="M415.656 224.946C412.712 224.946 410.636 222.776 410.636 219.775C410.636 216.775 412.712 214.605 415.656 214.605C417.204 214.605 418.506 215.208 419.393 216.19V214.774H420.997V224.777H419.393V223.361C418.506 224.343 417.204 224.946 415.656 224.946ZM412.278 219.775C412.278 221.927 413.769 223.437 415.845 223.437C417.921 223.437 419.43 221.927 419.43 219.775C419.43 217.624 417.921 216.114 415.845 216.114C413.769 216.114 412.278 217.624 412.278 219.775Z" fill="#616771"/>
<path d="M424.479 224.777V211.566H426.083V224.777H424.479Z" fill="#616771"/>
<path d="M68.6837 251.906C65.6831 251.906 63.5505 249.774 63.5505 246.754C63.5505 243.697 65.6642 241.565 68.6837 241.565C71.156 241.565 73.0243 242.98 73.6093 245.301H72.0052C71.4956 243.886 70.2878 243.074 68.7215 243.074C66.6267 243.074 65.1924 244.565 65.1924 246.754C65.1924 248.925 66.6267 250.397 68.7215 250.397C70.3256 250.397 71.5145 249.585 72.0052 248.151H73.6471C73.0809 250.472 71.1748 251.906 68.6837 251.906Z" fill="#616771"/>
<path d="M80.1588 251.888C77.5356 251.888 76.0447 250.208 76.0447 247.283V241.734H77.6488V247.283C77.6488 249.34 78.5924 250.434 80.4419 250.434C82.4234 250.434 83.6878 249.189 83.6878 247.283V241.734H85.292V251.737H83.6878V250.283C82.8575 251.321 81.6497 251.888 80.1588 251.888Z" fill="#616771"/>
<path d="M92.1679 251.888C89.6579 251.888 88.0538 250.661 87.9594 248.623H89.6013C89.6768 249.755 90.677 250.397 92.1867 250.397C93.7342 250.397 94.7533 249.906 94.7533 248.925C94.7533 248.075 94.1683 247.755 92.0735 247.434C89.205 247.019 88.1292 246.207 88.1292 244.433C88.1292 242.527 89.9032 241.546 92.1679 241.546C94.508 241.546 95.98 242.697 96.0932 244.565H94.4702C94.3759 243.603 93.4889 243.018 92.1301 243.018C90.6204 243.018 89.7522 243.546 89.7522 244.433C89.7522 245.32 90.3939 245.698 92.4698 245.962C94.8099 246.264 96.3952 246.943 96.3952 248.849C96.3952 250.925 94.5269 251.888 92.1679 251.888Z" fill="#616771"/>
<path d="M102.947 251.793C100.663 251.793 99.6064 250.793 99.6064 248.604V243.074H97.5116V241.734H99.6064V239.375L101.21 239.206V241.734H103.966V243.074H101.21V248.415C101.21 249.736 101.739 250.302 103.135 250.302C103.419 250.302 103.758 250.283 104.098 250.246V251.737C103.702 251.774 103.286 251.793 102.947 251.793Z" fill="#616771"/>
<path d="M110.976 251.906C107.937 251.906 105.767 249.736 105.767 246.735C105.767 243.735 107.937 241.565 110.976 241.565C114.033 241.565 116.184 243.735 116.184 246.735C116.184 249.736 114.033 251.906 110.976 251.906ZM107.409 246.735C107.409 248.868 108.9 250.397 110.976 250.397C113.051 250.397 114.561 248.868 114.561 246.735C114.561 244.603 113.051 243.074 110.976 243.074C108.9 243.074 107.409 244.603 107.409 246.735Z" fill="#616771"/>
<path d="M118.928 251.737V241.734H120.532V243.131C121.306 242.131 122.457 241.583 123.74 241.583C125.363 241.583 126.533 242.244 127.175 243.508C128.062 242.282 129.402 241.583 130.931 241.583C133.497 241.583 134.913 243.225 134.913 246.188V251.737H133.309V246.207C133.309 244.131 132.44 243.037 130.742 243.037C128.911 243.037 127.722 244.282 127.722 246.188V251.737H126.118V246.207C126.118 244.131 125.25 243.037 123.552 243.037C121.721 243.037 120.532 244.282 120.532 246.188V251.737H118.928Z" fill="#616771"/>
<path d="M142.624 251.906C139.642 251.906 137.491 249.755 137.491 246.735C137.491 243.716 139.642 241.565 142.624 241.565C145.757 241.565 147.965 243.81 147.776 247.283H139.17C139.378 249.132 140.737 250.397 142.624 250.397C144.02 250.397 145.19 249.793 145.738 248.736H147.474C146.776 250.699 144.926 251.906 142.624 251.906ZM139.208 245.905H146.096C145.757 244.263 144.417 243.074 142.624 243.074C140.85 243.074 139.529 244.188 139.208 245.905Z" fill="#616771"/>
<path d="M150.449 251.737V241.734H152.053V243.225C152.751 242.15 153.789 241.583 155.092 241.583C155.469 241.583 155.903 241.64 156.356 241.753V243.206C155.979 243.112 155.62 243.055 155.28 243.055C153.431 243.055 152.053 244.376 152.053 246.301V251.737H150.449Z" fill="#616771"/>
<path d="M161.943 251.888C159.433 251.888 157.829 250.661 157.734 248.623H159.376C159.452 249.755 160.452 250.397 161.962 250.397C163.509 250.397 164.528 249.906 164.528 248.925C164.528 248.075 163.943 247.755 161.848 247.434C158.98 247.019 157.904 246.207 157.904 244.433C157.904 242.527 159.678 241.546 161.943 241.546C164.283 241.546 165.755 242.697 165.868 244.565H164.245C164.151 243.603 163.264 243.018 161.905 243.018C160.395 243.018 159.527 243.546 159.527 244.433C159.527 245.32 160.169 245.698 162.245 245.962C164.585 246.264 166.17 246.943 166.17 248.849C166.17 250.925 164.302 251.888 161.943 251.888Z" fill="#616771"/>
<path d="M175.981 251.737L172.395 241.829V241.734H174.056L175.15 244.905L176.641 249.302L179.51 242.414H180.661L183.492 249.302L185.002 244.905L186.115 241.734H187.757V241.829L184.152 251.737H182.926L181.303 247.811L180.076 244.735L178.83 247.811L177.189 251.737H175.981Z" fill="#616771"/>
<path d="M189.901 251.737V238.526H191.505V243.206C192.317 242.187 193.562 241.583 194.996 241.583C197.733 241.583 199.243 243.225 199.243 246.188V251.737H197.638V246.245C197.638 244.131 196.657 243.037 194.789 243.037C192.807 243.037 191.505 244.32 191.505 246.226V251.737H189.901Z" fill="#616771"/>
<path d="M206.944 251.906C203.962 251.906 201.81 249.755 201.81 246.735C201.81 243.716 203.962 241.565 206.944 241.565C210.076 241.565 212.284 243.81 212.096 247.283H203.49C203.698 249.132 205.056 250.397 206.944 250.397C208.34 250.397 209.51 249.793 210.057 248.736H211.794C211.095 250.699 209.246 251.906 206.944 251.906ZM203.528 245.905H210.416C210.076 244.263 208.736 243.074 206.944 243.074C205.17 243.074 203.849 244.188 203.528 245.905Z" fill="#616771"/>
<path d="M214.769 251.737V241.734H216.373V243.206C217.184 242.187 218.392 241.583 219.94 241.583C222.563 241.583 224.11 243.225 224.11 246.188V251.737H222.506V246.245C222.506 244.131 221.525 243.037 219.657 243.037C217.675 243.037 216.373 244.32 216.373 246.226V251.737H214.769Z" fill="#616771"/>
<path d="M232.523 251.737V241.734H234.127V243.225C234.825 242.15 235.863 241.583 237.165 241.583C237.543 241.583 237.977 241.64 238.43 241.753V243.206C238.052 243.112 237.694 243.055 237.354 243.055C235.505 243.055 234.127 244.376 234.127 246.301V251.737H232.523Z" fill="#616771"/>
<path d="M244.764 251.888C242.141 251.888 240.65 250.208 240.65 247.283V241.734H242.254V247.283C242.254 249.34 243.197 250.434 245.047 250.434C247.029 250.434 248.293 249.189 248.293 247.283V241.734H249.897V251.737H248.293V250.283C247.463 251.321 246.255 251.888 244.764 251.888Z" fill="#616771"/>
<path d="M253.244 251.737V241.734H254.848V243.206C255.66 242.187 256.867 241.583 258.415 241.583C261.038 241.583 262.586 243.225 262.586 246.188V251.737H260.981V246.245C260.981 244.131 260 243.037 258.132 243.037C256.15 243.037 254.848 244.32 254.848 246.226V251.737H253.244Z" fill="#616771"/>
<path d="M265.908 251.737V241.734H267.512V243.206C268.324 242.187 269.532 241.583 271.079 241.583C273.702 241.583 275.25 243.225 275.25 246.188V251.737H273.646V246.245C273.646 244.131 272.664 243.037 270.796 243.037C268.814 243.037 267.512 244.32 267.512 246.226V251.737H265.908Z" fill="#616771"/>
<path d="M278.572 251.737V241.734H280.177V251.737H278.572ZM278.138 239.206C278.138 238.488 278.667 237.96 279.384 237.96C280.101 237.96 280.63 238.488 280.63 239.206C280.63 239.866 280.101 240.394 279.384 240.394C278.667 240.394 278.138 239.866 278.138 239.206Z" fill="#616771"/>
<path d="M283.662 251.737V241.734H285.266V243.206C286.078 242.187 287.286 241.583 288.833 241.583C291.456 241.583 293.004 243.225 293.004 246.188V251.737H291.4V246.245C291.4 244.131 290.418 243.037 288.55 243.037C286.568 243.037 285.266 244.32 285.266 246.226V251.737H283.662Z" fill="#616771"/>
<path d="M300.837 254.869C298.497 254.869 296.44 253.85 296.006 251.755H297.666C298.025 252.888 299.308 253.397 300.686 253.397C302.743 253.397 304.215 252.322 304.215 250.283V249.661C303.309 250.642 302.007 251.265 300.516 251.265C297.666 251.265 295.572 249.189 295.572 246.434C295.572 243.678 297.666 241.565 300.516 241.565C302.007 241.565 303.309 242.168 304.215 243.169V241.734H305.819V250.321C305.819 253.19 303.668 254.869 300.837 254.869ZM297.213 246.434C297.213 248.358 298.648 249.812 300.724 249.812C302.8 249.812 304.253 248.415 304.253 246.434C304.253 244.414 302.8 243.055 300.724 243.055C298.648 243.055 297.213 244.49 297.213 246.434Z" fill="#616771"/>
<path d="M314.526 251.737V238.526H322.131V240.168H316.224V244.414H321.641V246.037H316.224V251.737H314.526Z" fill="#616771"/>
<path d="M328.854 251.906C325.91 251.906 323.834 249.736 323.834 246.735C323.834 243.735 325.91 241.565 328.854 241.565C330.401 241.565 331.703 242.168 332.59 243.15V241.734H334.194V251.737H332.59V250.321C331.703 251.303 330.401 251.906 328.854 251.906ZM325.475 246.735C325.475 248.887 326.966 250.397 329.042 250.397C331.118 250.397 332.628 248.887 332.628 246.735C332.628 244.584 331.118 243.074 329.042 243.074C326.966 243.074 325.475 244.584 325.475 246.735Z" fill="#616771"/>
<path d="M342.055 251.906C339.054 251.906 336.922 249.774 336.922 246.754C336.922 243.697 339.035 241.565 342.055 241.565C344.527 241.565 346.395 242.98 346.981 245.301H345.376C344.867 243.886 343.659 243.074 342.093 243.074C339.998 243.074 338.564 244.565 338.564 246.754C338.564 248.925 339.998 250.397 342.093 250.397C343.697 250.397 344.886 249.585 345.376 248.151H347.018C346.452 250.472 344.546 251.906 342.055 251.906Z" fill="#616771"/>
<path d="M353.945 251.906C350.963 251.906 348.812 249.755 348.812 246.735C348.812 243.716 350.963 241.565 353.945 241.565C357.078 241.565 359.286 243.81 359.097 247.283H350.492C350.699 249.132 352.058 250.397 353.945 250.397C355.342 250.397 356.512 249.793 357.059 248.736H358.795C358.097 250.699 356.248 251.906 353.945 251.906ZM350.529 245.905H357.418C357.078 244.263 355.738 243.074 353.945 243.074C352.171 243.074 350.85 244.188 350.529 245.905Z" fill="#616771"/>
<path d="M367.149 251.906C365.583 251.906 364.262 251.303 363.375 250.265V251.737H361.77V238.526H363.375V243.206C364.262 242.168 365.583 241.565 367.149 241.565C370.074 241.565 372.169 243.735 372.169 246.735C372.169 249.736 370.074 251.906 367.149 251.906ZM363.337 246.735C363.337 248.887 364.847 250.397 366.941 250.397C369.036 250.397 370.527 248.887 370.527 246.735C370.527 244.584 369.036 243.074 366.941 243.074C364.847 243.074 363.337 244.584 363.337 246.735Z" fill="#616771"/>
<path d="M379.368 251.906C376.329 251.906 374.159 249.736 374.159 246.735C374.159 243.735 376.329 241.565 379.368 241.565C382.425 241.565 384.576 243.735 384.576 246.735C384.576 249.736 382.425 251.906 379.368 251.906ZM375.801 246.735C375.801 248.868 377.292 250.397 379.368 250.397C381.444 250.397 382.953 248.868 382.953 246.735C382.953 244.603 381.444 243.074 379.368 243.074C377.292 243.074 375.801 244.603 375.801 246.735Z" fill="#616771"/>
<path d="M391.774 251.906C388.736 251.906 386.565 249.736 386.565 246.735C386.565 243.735 388.736 241.565 391.774 241.565C394.831 241.565 396.983 243.735 396.983 246.735C396.983 249.736 394.831 251.906 391.774 251.906ZM388.207 246.735C388.207 248.868 389.698 250.397 391.774 250.397C393.85 250.397 395.36 248.868 395.36 246.735C395.36 244.603 393.85 243.074 391.774 243.074C389.698 243.074 388.207 244.603 388.207 246.735Z" fill="#616771"/>
<path d="M406.086 251.737L401.878 246.962V246.528L405.86 241.734H407.766V241.829L403.633 246.698L408.087 251.642V251.737H406.086ZM399.726 251.737V238.526H401.331V251.737H399.726Z" fill="#616771"/>
<path d="M419.534 251.906C416.59 251.906 414.514 249.736 414.514 246.735C414.514 243.735 416.59 241.565 419.534 241.565C421.081 241.565 422.384 242.168 423.271 243.15V241.734H424.875V251.737H423.271V250.321C422.384 251.303 421.081 251.906 419.534 251.906ZM416.156 246.735C416.156 248.887 417.647 250.397 419.723 250.397C421.799 250.397 423.308 248.887 423.308 246.735C423.308 244.584 421.799 243.074 419.723 243.074C417.647 243.074 416.156 244.584 416.156 246.735Z" fill="#616771"/>
<path d="M432.622 251.906C429.678 251.906 427.602 249.736 427.602 246.735C427.602 243.735 429.678 241.565 432.622 241.565C434.189 241.565 435.51 242.168 436.397 243.206V238.526H438.001V251.737H436.397V250.265C435.51 251.303 434.189 251.906 432.622 251.906ZM429.244 246.735C429.244 248.887 430.735 250.397 432.811 250.397C434.924 250.397 436.415 248.887 436.415 246.735C436.415 244.584 434.924 243.074 432.811 243.074C430.735 243.074 429.244 244.584 429.244 246.735Z" fill="#616771"/>
<path d="M445.03 251.888C442.52 251.888 440.915 250.661 440.821 248.623H442.463C442.538 249.755 443.539 250.397 445.048 250.397C446.596 250.397 447.615 249.906 447.615 248.925C447.615 248.075 447.03 247.755 444.935 247.434C442.067 247.019 440.991 246.207 440.991 244.433C440.991 242.527 442.765 241.546 445.03 241.546C447.37 241.546 448.842 242.697 448.955 244.565H447.332C447.238 243.603 446.351 243.018 444.992 243.018C443.482 243.018 442.614 243.546 442.614 244.433C442.614 245.32 443.256 245.698 445.332 245.962C447.672 246.264 449.257 246.943 449.257 248.849C449.257 250.925 447.389 251.888 445.03 251.888Z" fill="#616771"/>
<path d="M452.69 251.888C452.086 251.888 451.633 251.416 451.633 250.812C451.633 250.208 452.086 249.755 452.69 249.755C453.294 249.755 453.766 250.208 453.766 250.812C453.766 251.416 453.294 251.888 452.69 251.888Z" fill="#616771"/>
<path d="M66 184.676V167.691H72.1631C75.9482 167.691 77.9136 170.336 77.9136 173.126C77.9136 175.553 76.4335 177.761 73.4976 178.27L78.4717 184.385V184.676H75.1233L69.4212 177.373V175.989H72.1631C73.8858 175.989 75.0019 174.946 75.0019 173.223C75.0019 171.501 73.8373 170.409 72.066 170.409H68.8389V184.676H66Z" fill="#282A2D"/>
<path d="M86.4804 184.919C82.6224 184.919 79.8078 182.128 79.8078 178.246C79.8078 174.364 82.6224 171.573 86.4804 171.573C90.6538 171.573 93.5169 174.606 93.153 179.144H82.5739C82.9136 181.133 84.4179 182.444 86.4804 182.444C88.009 182.444 89.295 181.789 89.9016 180.745H92.8133C91.9155 183.317 89.4891 184.919 86.4804 184.919ZM82.6467 177.057H90.4111C89.9501 175.286 88.4943 174.048 86.4804 174.048C84.515 174.048 83.0834 175.237 82.6467 177.057Z" fill="#282A2D"/>
<path d="M101.541 184.919C97.7313 184.919 95.0865 182.104 95.0865 178.246C95.0865 174.34 97.7799 171.573 101.541 171.573C103.336 171.573 104.889 172.204 106.005 173.296L106.054 171.816H108.602V184.676H106.054L106.005 183.172C104.889 184.288 103.336 184.919 101.541 184.919ZM97.8284 178.246C97.8284 180.697 99.5269 182.395 101.88 182.395C104.258 182.395 105.957 180.697 105.957 178.246C105.957 175.795 104.258 174.097 101.88 174.097C99.5269 174.097 97.8284 175.795 97.8284 178.246Z" fill="#282A2D"/>
<path d="M118.175 184.919C114.269 184.919 111.503 182.177 111.503 178.27C111.503 174.315 114.245 171.573 118.175 171.573C121.475 171.573 123.95 173.515 124.63 176.596H121.936C121.354 175.019 119.995 174.097 118.224 174.097C115.846 174.097 114.22 175.771 114.22 178.27C114.22 180.721 115.846 182.395 118.224 182.395C120.044 182.395 121.378 181.473 121.936 179.872H124.654C123.999 182.953 121.499 184.919 118.175 184.919Z" fill="#282A2D"/>
<path d="M127.372 184.676V167.691H130.065V173.393C131.133 172.253 132.613 171.598 134.287 171.598C137.781 171.598 139.601 173.709 139.601 177.421V184.676H136.908V177.615C136.908 175.262 135.84 174.048 133.777 174.048C131.521 174.048 130.065 175.456 130.065 177.615V184.676H127.372Z" fill="#282A2D"/>
<path d="M149.589 184.676V171.816H152.233L152.258 173.393C153.252 172.229 154.66 171.598 156.261 171.598C158.227 171.598 159.682 172.35 160.507 173.854C161.721 172.374 163.346 171.598 165.239 171.598C168.539 171.598 170.31 173.636 170.31 177.421V184.676H167.617V177.567C167.617 175.237 166.67 174.048 164.754 174.048C162.643 174.048 161.308 175.431 161.308 177.567V184.676H158.615V177.567C158.615 175.237 157.644 174.048 155.727 174.048C153.641 174.048 152.282 175.431 152.282 177.567V184.676H149.589Z" fill="#282A2D"/>
<path d="M179.838 184.919C175.859 184.919 173.044 182.128 173.044 178.246C173.044 174.364 175.859 171.573 179.838 171.573C183.793 171.573 186.632 174.364 186.632 178.246C186.632 182.128 183.793 184.919 179.838 184.919ZM175.786 178.246C175.786 180.672 177.485 182.395 179.838 182.395C182.192 182.395 183.89 180.672 183.89 178.246C183.89 175.82 182.192 174.097 179.838 174.097C177.485 174.097 175.786 175.82 175.786 178.246Z" fill="#282A2D"/>
<path d="M189.553 184.676V171.816H192.174L192.222 173.442C193.12 172.253 194.382 171.622 195.91 171.622C196.396 171.622 196.929 171.695 197.463 171.816V174.267C197.002 174.17 196.541 174.097 196.104 174.097C193.848 174.097 192.246 175.577 192.246 177.858V184.676H189.553Z" fill="#282A2D"/>
<path d="M205.275 184.919C201.417 184.919 198.602 182.128 198.602 178.246C198.602 174.364 201.417 171.573 205.275 171.573C209.448 171.573 212.311 174.606 211.947 179.144H201.368C201.708 181.133 203.212 182.444 205.275 182.444C206.803 182.444 208.089 181.789 208.696 180.745H211.608C210.71 183.317 208.283 184.919 205.275 184.919ZM201.441 177.057H209.206C208.744 175.286 207.289 174.048 205.275 174.048C203.309 174.048 201.878 175.237 201.441 177.057Z" fill="#282A2D"/>
<path d="M228.258 184.919C226.487 184.919 224.958 184.312 223.842 183.244V188.485H221.149V171.816H223.696L223.745 173.345C224.861 172.229 226.438 171.573 228.258 171.573C232.019 171.573 234.688 174.364 234.688 178.246C234.688 182.08 232.067 184.919 228.258 184.919ZM223.793 178.246C223.793 180.697 225.492 182.395 227.894 182.395C230.272 182.395 231.97 180.697 231.97 178.246C231.97 175.795 230.272 174.097 227.894 174.097C225.492 174.097 223.793 175.795 223.793 178.246Z" fill="#282A2D"/>
<path d="M243.46 184.919C239.481 184.919 236.666 182.128 236.666 178.246C236.666 174.364 239.481 171.573 243.46 171.573C247.415 171.573 250.254 174.364 250.254 178.246C250.254 182.128 247.415 184.919 243.46 184.919ZM239.408 178.246C239.408 180.672 241.107 182.395 243.46 182.395C245.814 182.395 247.512 180.672 247.512 178.246C247.512 175.82 245.814 174.097 243.46 174.097C241.107 174.097 239.408 175.82 239.408 178.246Z" fill="#282A2D"/>
<path d="M258.494 184.797C255.509 184.797 253.956 183.463 253.956 180.551V174.073H251.457V171.816H253.956V168.88L256.65 168.589V171.816H259.998V174.073H256.65V180.236C256.65 181.74 257.353 182.347 258.955 182.347C259.319 182.347 259.731 182.322 260.168 182.25V184.676C259.585 184.749 258.979 184.797 258.494 184.797Z" fill="#282A2D"/>
<path d="M268.565 184.919C264.707 184.919 261.893 182.128 261.893 178.246C261.893 174.364 264.707 171.573 268.565 171.573C272.739 171.573 275.602 174.606 275.238 179.144H264.659C264.998 181.133 266.503 182.444 268.565 182.444C270.094 182.444 271.38 181.789 271.986 180.745H274.898C274 183.317 271.574 184.919 268.565 184.919ZM264.731 177.057H272.496C272.035 175.286 270.579 174.048 268.565 174.048C266.6 174.048 265.168 175.237 264.731 177.057Z" fill="#282A2D"/>
<path d="M278.093 184.676V171.816H280.738L280.762 173.393C281.83 172.253 283.262 171.598 285.106 171.598C288.454 171.598 290.322 173.709 290.322 177.421V184.676H287.629V177.615C287.629 175.262 286.561 174.048 284.499 174.048C282.242 174.048 280.787 175.456 280.787 177.615V184.676H278.093Z" fill="#282A2D"/>
<path d="M299.235 184.797C296.251 184.797 294.698 183.463 294.698 180.551V174.073H292.199V171.816H294.698V168.88L297.391 168.589V171.816H300.74V174.073H297.391V180.236C297.391 181.74 298.095 182.347 299.696 182.347C300.06 182.347 300.473 182.322 300.91 182.25V184.676C300.327 184.749 299.721 184.797 299.235 184.797Z" fill="#282A2D"/>
<path d="M303.699 184.676V171.816H306.392V184.676H303.699ZM303.189 168.565C303.189 167.497 303.99 166.721 305.057 166.721C306.125 166.721 306.926 167.497 306.926 168.565C306.926 169.584 306.125 170.36 305.057 170.36C303.99 170.36 303.189 169.584 303.189 168.565Z" fill="#282A2D"/>
<path d="M315.79 184.919C311.98 184.919 309.335 182.104 309.335 178.246C309.335 174.34 312.029 171.573 315.79 171.573C317.585 171.573 319.138 172.204 320.254 173.296L320.303 171.816H322.85V184.676H320.303L320.254 183.172C319.138 184.288 317.585 184.919 315.79 184.919ZM312.077 178.246C312.077 180.697 313.776 182.395 316.129 182.395C318.507 182.395 320.206 180.697 320.206 178.246C320.206 175.795 318.507 174.097 316.129 174.097C313.776 174.097 312.077 175.795 312.077 178.246Z" fill="#282A2D"/>
<path d="M326.674 184.676V167.691H329.367V184.676H326.674Z" fill="#282A2D"/>
<path d="M345.329 184.919C341.422 184.919 338.656 182.177 338.656 178.27C338.656 174.315 341.398 171.573 345.329 171.573C348.629 171.573 351.104 173.515 351.783 176.596H349.09C348.507 175.019 347.148 174.097 345.377 174.097C342.999 174.097 341.374 175.771 341.374 178.27C341.374 180.721 342.999 182.395 345.377 182.395C347.197 182.395 348.532 181.473 349.09 179.872H351.807C351.152 182.953 348.653 184.919 345.329 184.919Z" fill="#282A2D"/>
<path d="M359.499 184.894C356.199 184.894 354.331 182.808 354.331 179.071V171.816H357.024V178.925C357.024 181.255 358.068 182.444 360.106 182.444C362.338 182.444 363.77 181.061 363.77 178.901V171.816H366.463V184.676H363.818L363.794 183.099C362.702 184.288 361.246 184.894 359.499 184.894Z" fill="#282A2D"/>
<path d="M374.698 184.894C371.422 184.894 369.36 183.293 369.238 180.648H371.956C372.053 181.861 373.121 182.517 374.746 182.517C376.372 182.517 377.488 182.007 377.488 180.988C377.488 180.09 376.833 179.75 374.455 179.411C370.864 178.877 369.408 177.736 369.408 175.456C369.408 172.932 371.713 171.573 374.698 171.573C377.731 171.573 379.696 173.102 379.842 175.553H377.173C377.051 174.534 376.129 173.927 374.625 173.927C373.048 173.927 372.126 174.485 372.126 175.407C372.126 176.353 372.878 176.766 375.232 177.081C378.216 177.47 380.206 178.416 380.206 180.867C380.206 183.56 377.804 184.894 374.698 184.894Z" fill="#282A2D"/>
<path d="M388.269 184.797C385.284 184.797 383.731 183.463 383.731 180.551V174.073H381.232V171.816H383.731V168.88L386.424 168.589V171.816H389.773V174.073H386.424V180.236C386.424 181.74 387.128 182.347 388.73 182.347C389.094 182.347 389.506 182.322 389.943 182.25V184.676C389.36 184.749 388.754 184.797 388.269 184.797Z" fill="#282A2D"/>
<path d="M398.461 184.919C394.482 184.919 391.667 182.128 391.667 178.246C391.667 174.364 394.482 171.573 398.461 171.573C402.416 171.573 405.255 174.364 405.255 178.246C405.255 182.128 402.416 184.919 398.461 184.919ZM394.409 178.246C394.409 180.672 396.108 182.395 398.461 182.395C400.815 182.395 402.513 180.672 402.513 178.246C402.513 175.82 400.815 174.097 398.461 174.097C396.108 174.097 394.409 175.82 394.409 178.246Z" fill="#282A2D"/>
<path d="M408.176 184.676V171.816H410.821L410.845 173.393C411.84 172.229 413.247 171.598 414.849 171.598C416.814 171.598 418.27 172.35 419.095 173.854C420.308 172.374 421.934 171.598 423.827 171.598C427.126 171.598 428.898 173.636 428.898 177.421V184.676H426.204V177.567C426.204 175.237 425.258 174.048 423.341 174.048C421.23 174.048 419.896 175.431 419.896 177.567V184.676H417.202V177.567C417.202 175.237 416.232 174.048 414.315 174.048C412.228 174.048 410.87 175.431 410.87 177.567V184.676H408.176Z" fill="#282A2D"/>
<path d="M438.305 184.919C434.447 184.919 431.632 182.128 431.632 178.246C431.632 174.364 434.447 171.573 438.305 171.573C442.478 171.573 445.341 174.606 444.977 179.144H434.398C434.738 181.133 436.242 182.444 438.305 182.444C439.833 182.444 441.119 181.789 441.726 180.745H444.637C443.74 183.317 441.313 184.919 438.305 184.919ZM434.471 177.057H442.235C441.774 175.286 440.318 174.048 438.305 174.048C436.339 174.048 434.908 175.237 434.471 177.057Z" fill="#282A2D"/>
<path d="M447.833 184.676V171.816H450.453L450.502 173.442C451.4 172.253 452.661 171.622 454.19 171.622C454.675 171.622 455.209 171.695 455.743 171.816V174.267C455.282 174.17 454.821 174.097 454.384 174.097C452.128 174.097 450.526 175.577 450.526 177.858V184.676H447.833Z" fill="#282A2D"/>
<path d="M462.508 184.894C459.233 184.894 457.17 183.293 457.049 180.648H459.766C459.863 181.861 460.931 182.517 462.557 182.517C464.182 182.517 465.299 182.007 465.299 180.988C465.299 180.09 464.643 179.75 462.266 179.411C458.674 178.877 457.219 177.736 457.219 175.456C457.219 172.932 459.524 171.573 462.508 171.573C465.541 171.573 467.507 173.102 467.652 175.553H464.983C464.862 174.534 463.94 173.927 462.435 173.927C460.858 173.927 459.936 174.485 459.936 175.407C459.936 176.353 460.688 176.766 463.042 177.081C466.026 177.47 468.016 178.416 468.016 180.867C468.016 183.56 465.614 184.894 462.508 184.894Z" fill="#282A2D"/>
</svg>
