<svg width="94" height="95" viewBox="0 0 94 95" fill="none" xmlns="http://www.w3.org/2000/svg">
<g clip-path="url(#clip0_8_238)">
<path d="M13.6681 80.3196C12.8865 79.905 12.4287 79.1499 11.8635 78.5247C9.90105 76.3515 8.20384 73.9745 6.70761 71.4566C4.0264 66.9484 2.1617 62.122 1.12466 56.9842C0.648717 54.6241 0.38911 52.2346 0.238371 49.8241C0.0792567 47.2867 0.271868 44.7855 0.524497 42.269C0.841329 39.116 1.54199 36.0538 2.51482 33.0488C3.6998 29.3877 5.337 25.9291 7.40269 22.6882C8.88636 20.3601 10.5626 18.173 12.4301 16.1268C14.962 13.3521 17.7912 10.9333 20.8981 8.8397C23.6393 6.99314 26.5564 5.47458 29.627 4.24215C32.5218 3.08089 35.5114 2.25183 38.5653 1.67678C40.3351 1.3432 42.1384 1.18827 43.9389 1.03195C46.0758 0.846319 48.2112 0.911919 50.3355 1.06964C53.5025 1.30412 56.6289 1.84148 59.687 2.72777C64.1715 4.0286 68.3754 5.93238 72.2989 8.481C75.2132 10.3736 77.8846 12.5496 80.3048 15.027C82.4138 17.1862 84.291 19.5394 85.9492 22.0713C87.8515 24.9786 89.4064 28.0548 90.6291 31.3041C91.7833 34.3733 92.5943 37.5319 93.066 40.7756C93.4136 43.1637 93.655 45.5671 93.5992 47.9762C93.4833 53.0287 92.7185 57.971 91.0548 62.7752C89.5544 67.1089 87.4817 71.1272 84.8326 74.858C84.4864 75.3452 84.0858 75.7918 83.7118 76.258C77.3026 74.2872 70.9171 72.2466 64.5721 70.0777C64.205 69.952 63.8728 69.7064 63.4555 69.7483C62.9028 69.3895 62.2705 69.2207 61.6647 68.9876C61.2195 68.7545 60.7771 68.5158 60.329 68.2883C59.2515 67.7412 58.4141 66.8996 57.5752 66.0593C57.2458 65.3936 56.9178 64.7264 56.5884 64.0606C55.871 61.4646 55.9311 58.8043 55.9408 56.1482C56.4921 55.3512 57.07 54.571 57.585 53.7517C57.9632 53.1516 58.3736 52.5667 58.4741 51.8144C58.6486 50.5024 58.6192 49.1807 58.7086 47.8645C58.8914 45.2056 58.9235 42.537 59.0268 39.8739C59.0812 38.4851 59.1552 37.0978 59.2208 35.7104C59.2766 34.5478 59.2934 33.3879 59.2027 32.2253C58.9933 29.5594 58.6346 26.9089 58.2996 24.2584C58.2452 23.8257 58.354 23.5759 58.7281 23.3568C59.2878 23.0274 59.8014 22.6198 60.3625 22.2904C60.7282 22.0755 60.7757 21.8926 60.544 21.5297C59.7414 20.2736 58.9012 19.0467 57.9102 17.9329C56.2311 16.0445 54.3999 14.3277 52.0355 13.3228C48.8979 11.9899 45.6501 12.0499 42.3798 12.7115C40.952 13.0004 39.5716 13.447 38.1912 14.1644C39.2827 14.833 40.2932 15.4527 41.4349 16.152C41.1614 16.219 41.0581 16.2441 40.9534 16.2692C36.4256 17.3928 32.6223 19.6148 29.8699 23.4824C29.4483 24.0742 29.3758 24.585 29.5223 25.2689C30.283 28.8113 30.9962 32.3634 31.7248 35.9114C31.5587 36.3915 31.1302 36.1417 30.8259 36.2282C29.1231 36.7154 28.4267 37.7887 28.3415 39.726C28.262 41.5348 28.7505 43.2544 29.5307 44.8818C29.8252 45.4973 30.3528 45.8658 30.9865 46.1017C31.9007 46.4422 32.8428 46.6767 33.8072 46.7996C34.3837 46.8721 34.6182 47.0759 34.6154 47.7165C34.5986 51.8912 34.6586 56.0645 34.4367 60.2363C34.3041 61.2133 34.212 62.1973 34.0319 63.1646C33.7388 64.7264 33.5337 66.3231 32.4994 67.6435C32.1351 68.1083 31.6048 68.3776 31.2516 68.8396C30.223 69.4412 29.1957 70.0428 28.1671 70.6443C27.6004 70.9695 26.9653 71.1775 26.4671 71.6213C26.3345 71.6548 26.1921 71.6674 26.0707 71.7246C22.7014 73.3353 19.2455 74.7394 15.7464 76.0416C15.417 76.1645 15.3012 76.3864 15.1755 76.6739C14.6535 77.877 14.2851 79.1499 13.6681 80.3196Z" fill="#FAD5A1"/>
<path d="M56.9556 93.2597C54.3833 93.8263 51.7844 94.1474 49.152 94.2828C47.9252 94.3456 46.7081 94.4307 45.484 94.3218C45.7115 94.0874 45.6236 93.7929 45.6166 93.5249C45.5231 89.8625 45.4212 86.1987 45.3193 82.5362C45.3152 82.3743 45.2705 82.2152 45.2663 82.0533C45.2328 80.5431 44.9369 79.019 45.9558 77.6414C46.7388 76.5834 47.1659 75.2979 47.9671 74.24C49.0222 75.5059 50.023 76.8151 51.1284 78.0406C51.4731 78.4216 51.7048 78.4258 52.0942 78.1062C53.236 77.1738 54.1753 76.0558 55.1202 74.9392C55.8376 74.0906 56.5048 73.196 57.352 72.4646C57.352 73.6356 57.352 74.8067 57.352 75.9777C57.278 76.6141 57.2026 77.2506 57.3087 77.8898C57.1957 78.1313 57.2278 78.3909 57.2208 78.6449C57.1356 81.7784 57.031 84.9104 56.9751 88.0438C56.9458 89.7829 56.823 91.5206 56.9556 93.2597Z" fill="#EEEDE3"/>
<path d="M63.4556 69.7442C63.8715 69.7037 64.2051 69.9494 64.5721 70.0736C70.9172 72.2426 77.3041 74.2831 83.7119 76.2539C82.5283 77.9818 81.0879 79.4864 79.6056 80.9478C76.281 84.2236 72.5418 86.9355 68.3979 89.0863C68.1745 89.2022 67.9331 89.2873 67.7014 89.3864C66.2917 87.2202 64.5442 85.3136 63.0005 83.2493C62.6851 82.8264 62.5637 82.5459 62.9643 82.0672C64.4982 80.2318 65.9679 78.3433 67.485 76.4926C67.8856 76.0041 67.8926 75.6105 67.4516 75.1555C66.9993 74.6893 66.5653 74.2008 66.1633 73.6913C65.1695 72.4394 64.1492 71.2027 63.4556 69.7442Z" fill="#826B63"/>
<path d="M40.077 93.8124C39.1837 93.8878 38.349 93.5695 37.4935 93.4104C35.4766 93.0336 33.4961 92.5143 31.5909 91.7341C31.5113 91.702 31.4499 91.6267 31.3801 91.5722C31.3662 89.0725 31.3871 86.5713 31.3243 84.0729C31.2852 82.5265 31.3913 80.9758 31.2126 79.4335C31.2238 78.8389 31.235 78.2457 31.2461 77.6512C31.2475 75.5003 31.2503 73.3481 31.2517 71.1973C31.3787 71.3285 31.5239 71.4457 31.63 71.5909C32.935 73.3928 34.2456 75.1905 35.5255 77.0091C35.8116 77.4153 35.9679 77.3888 36.2764 77.0398C37.1794 76.0154 38.116 75.0216 39.0385 74.0167C39.8648 75.3817 40.6883 76.7495 41.5174 78.1131C41.7393 78.476 41.844 78.818 41.7812 79.2828C41.4936 81.3666 41.2731 83.4588 41.0303 85.5482C40.712 88.302 40.3952 91.0572 40.077 93.8124Z" fill="#EEEDE3"/>
<path d="M40.077 93.8125C40.3952 91.0573 40.7107 88.3021 41.0303 85.5469C41.2718 83.4575 41.4937 81.3653 41.7812 79.2815C41.8454 78.8181 41.7393 78.4761 41.5174 78.1119C40.6869 76.7482 39.8649 75.3818 39.0386 74.0154C40.6004 72.1911 42.1622 70.3683 43.7687 68.4924C45.1086 70.4925 46.5476 72.3586 47.9657 74.2387C47.1646 75.298 46.7375 76.5835 45.9545 77.6415C44.9356 79.0191 45.2315 80.5432 45.265 82.0534C45.2691 82.2153 45.3138 82.3744 45.318 82.5363C45.4199 86.1988 45.5218 89.8612 45.6153 93.525C45.6223 93.793 45.7088 94.0875 45.4827 94.3219C43.6738 94.234 41.8635 94.1558 40.077 93.8125Z" fill="#F89677"/>
<path d="M13.6682 80.3198C14.2851 79.1502 14.6536 77.8787 15.1756 76.67C15.2998 76.3825 15.4171 76.1606 15.7465 76.0377C19.2456 74.7369 22.7014 73.3314 26.0707 71.7207C26.1922 71.6635 26.3345 71.6509 26.4671 71.6174C26.4518 71.9887 26.1977 72.2455 26.0149 72.533C24.735 74.5513 23.2095 76.3936 21.8319 78.3421C20.9121 79.6429 20.933 79.6652 22.4279 80.3087C23.6561 80.8377 24.8704 81.4001 26.1866 81.9919C24.3247 83.5538 22.3413 84.7346 20.4375 86.0284C19.6769 85.7241 19.092 85.1575 18.4528 84.6773C16.9007 83.5105 15.445 82.2278 14.066 80.8614C13.9083 80.7037 13.685 80.585 13.6682 80.3198Z" fill="#826B63"/>
<path d="M56.9556 93.2596C56.823 91.5205 56.9458 89.7828 56.9765 88.0451C57.0324 84.9117 57.137 81.7782 57.2222 78.6462C57.2292 78.3922 57.1971 78.134 57.3101 77.8911C57.398 77.9637 57.5055 78.0223 57.5711 78.1116C60.5203 82.1034 63.8324 85.8203 66.5792 89.9656C63.6942 91.367 60.6683 92.3607 57.5572 93.1116C57.3562 93.1605 57.1566 93.2107 56.9556 93.2596Z" fill="#826B63"/>
<path d="M31.2139 79.4335C31.3925 80.9758 31.2865 82.5265 31.3256 84.0729C31.3898 86.5713 31.3674 89.0725 31.3814 91.5722C31.0562 91.6895 30.7966 91.4843 30.5244 91.3824C27.5473 90.27 24.7042 88.8854 22.0313 87.1603C22.0704 87.1101 22.1542 87.0305 22.143 87.0137C21.7885 86.4959 22.1011 86.2768 22.5157 86.013C25.4062 84.1678 28.1349 82.1105 30.6375 79.7615C30.8008 79.608 30.9361 79.3916 31.2139 79.4335Z" fill="#826B63"/>
<path d="M66.5792 89.9658C63.8324 85.8205 60.5203 82.105 57.5711 78.1118C57.5055 78.0225 57.3981 77.9639 57.3101 77.8913C57.204 77.2507 57.2794 76.6142 57.3534 75.9791C57.3855 76.0112 57.4232 76.0406 57.4511 76.0768C58.7687 77.781 60.0821 79.4894 61.4066 81.188C61.5699 81.3974 61.7318 81.7868 62.0794 81.3485C63.2881 79.823 64.5037 78.303 65.7125 76.7789C66.127 76.2569 66.1186 75.7084 65.7515 75.171C65.4389 74.7118 65.0969 74.2736 64.7675 73.8255C63.6314 72.2776 62.4702 70.7451 61.6648 68.9851C62.2706 69.2168 62.9028 69.3871 63.4555 69.7458C64.1492 71.2057 65.1695 72.4423 66.1619 73.6957C66.5653 74.2052 66.9979 74.6937 67.4501 75.1598C67.8912 75.6135 67.8842 76.0085 67.4836 76.497C65.9679 78.3477 64.4982 80.2361 62.9629 82.0715C62.5623 82.5503 62.6837 82.8308 62.9991 83.2537C64.5428 85.318 66.2903 87.2246 67.7 89.3908C67.3734 89.6699 66.9672 89.8011 66.5792 89.9658Z" fill="#111224"/>
<path d="M31.2141 79.4335C30.9363 79.393 30.8023 79.608 30.639 79.7615C28.1351 82.1105 25.4064 84.1679 22.5172 86.013C22.1027 86.2782 21.79 86.4959 22.1446 87.0138C22.1557 87.0291 22.072 87.1101 22.0329 87.1603C21.4872 86.803 20.8772 86.5364 20.439 86.0284C22.3427 84.7345 24.3261 83.5537 26.188 81.9919C24.8704 81.4001 23.6575 80.8376 22.4293 80.3086C20.9358 79.6652 20.9135 79.6429 21.8333 78.3421C23.2109 76.3936 24.7364 74.5512 26.0163 72.533C26.1992 72.2455 26.4518 71.9887 26.4685 71.6174C26.9668 71.1722 27.6019 70.9656 28.1686 70.6404C28.3947 71.1624 27.9494 71.4722 27.7512 71.8323C26.4043 74.2763 24.6178 76.4187 22.9946 78.6728C22.6931 79.0916 22.7726 79.2297 23.1955 79.407C24.3052 79.8746 25.4301 80.3184 26.4923 80.8795C27.0841 81.1922 27.4581 81.0679 27.8908 80.6687C28.999 79.6513 30.1268 78.6547 31.2462 77.6498C31.235 78.2444 31.2238 78.8389 31.2141 79.4335Z" fill="#111224"/>
<path d="M34.4381 60.2323C34.66 56.0618 34.6 51.8872 34.6168 47.7125C34.6196 47.0719 34.3851 46.8681 33.8086 46.7955C32.8442 46.6727 31.9021 46.4382 30.9878 46.0977C30.3556 45.8618 29.8266 45.4933 29.5321 44.8778C28.7519 43.2504 28.2634 41.5308 28.3429 39.722C28.4281 37.7847 29.1245 36.7114 30.8273 36.2242C31.1316 36.1377 31.5601 36.3875 31.7262 35.906C31.8057 36.0721 31.8909 36.1977 32.1058 36.2549C32.9963 36.4922 33.4667 37.1622 33.817 37.9591C33.9008 38.1504 33.8477 38.4309 34.138 38.5426C35.3886 36.9207 36.635 35.3003 37.8884 33.6854C38.0433 33.4858 38.0852 33.2778 38.0656 33.0364C37.9498 31.5778 37.894 30.1081 37.6092 28.6719C37.3678 27.4548 37.7711 26.5029 38.6588 25.7534C40.0378 24.588 41.6499 24.0925 43.456 24.3451C45.3179 24.6047 47.1351 25.0765 48.958 25.5259C51.226 26.0842 53.4955 26.6048 55.758 25.4575C56.3777 25.1435 56.8299 25.5455 57.2054 25.9781C57.7357 26.5909 57.98 27.3474 58.1782 28.1164C58.5467 29.547 58.516 31.0167 58.6109 32.4767C58.6821 33.5709 58.7267 34.6847 59.2208 35.7064C59.1552 37.0938 59.0812 38.4811 59.0268 39.8699C58.9235 42.5344 58.89 45.203 58.7086 47.8605C58.6178 49.1753 58.6472 50.4984 58.4741 51.8104C58.375 52.5627 57.9632 53.1475 57.585 53.7477C57.0686 54.567 56.4921 55.3472 55.9408 56.1456C55.2541 56.7067 54.7503 57.438 54.1696 58.0954C53.4578 58.9022 52.5952 59.2623 51.5582 59.3767C50.1206 59.533 48.6816 59.5205 47.2412 59.5582C46.5685 59.5763 45.9669 59.4214 45.3709 59.1213C42.98 57.9196 40.7175 56.5015 38.4257 55.1281C36.9128 54.2209 36.1409 52.8754 35.838 51.1963C35.6217 49.9988 35.6357 48.7901 35.6482 47.5813C35.651 47.3441 35.7585 46.9826 35.39 46.9672C34.9685 46.9505 35.0592 47.3427 35.0662 47.5981C35.0899 48.4802 35.1025 49.3651 35.1834 50.243C35.4081 52.6939 36.3224 54.7806 38.4495 56.1972C38.5834 56.2866 38.7049 56.3996 38.8165 56.5168C42.0463 59.9029 45.9306 62.1473 50.4919 63.2094C49.741 63.61 48.9831 63.9994 48.2405 64.4139C46.7555 65.2444 45.2774 66.0902 43.7965 66.9304C43.7644 66.936 43.7351 66.9304 43.7086 66.9137C42.7316 66.0609 41.6415 65.363 40.5947 64.6065C38.5513 63.134 36.4912 61.6881 34.4381 60.2323ZM43.7351 49.2465C45.3221 50.3142 46.969 51.2354 48.75 51.9179C49.8108 52.3241 50.905 52.4762 52.0342 52.3911C53.5388 52.2766 54.6623 51.562 55.3979 50.2374C55.6184 49.841 55.5668 49.5828 55.0824 49.4865C54.446 49.3595 53.8151 49.2116 53.1605 49.1669C50.1862 48.9673 47.2105 49.1167 44.2362 49.0873C44.0785 49.0846 43.9068 49.0511 43.7351 49.2465ZM42.5808 34.0246C42.6143 34.2897 42.7316 34.5912 43.0303 34.7727C43.322 34.9499 43.6095 34.8774 43.8747 34.6861C44.8615 33.9785 45.9585 33.5891 47.17 33.497C47.4408 33.476 47.7227 33.3993 47.9698 33.2834C48.3885 33.088 48.4904 32.7042 48.3983 32.2827C48.3075 31.8598 48.0061 31.6267 47.5846 31.6909C46.0269 31.9268 44.4497 32.1152 43.1308 33.1145C42.8432 33.3351 42.5934 33.5584 42.5808 34.0246ZM44.3381 39.1288C44.3548 39.2279 44.3688 39.4875 44.4441 39.7275C44.7498 40.7046 45.5789 40.9209 46.3228 40.2286C47.0472 39.5545 47.3808 38.1127 47.0263 37.1887C46.6871 36.3038 45.8999 36.1098 45.2104 36.7672C44.5879 37.3618 44.3409 38.1238 44.3381 39.1288ZM50.6426 46.4396C52.9218 46.4871 54.3315 45.1151 54.1389 43.0215C54.1054 42.6516 54.044 42.2943 53.5611 42.3222C53.0726 42.3501 52.993 42.6823 53.0014 43.108C53.0335 44.5931 52.1235 45.457 50.6482 45.3412C50.1164 45.2993 49.5902 45.1974 49.0612 45.1388C48.7109 45.0997 48.3201 45.0509 48.2615 45.5533C48.2071 46.0167 48.4611 46.2261 48.9119 46.2624C49.4911 46.3084 50.0662 46.3796 50.6426 46.4396ZM32.5427 43.1862C32.5427 42.9545 32.5287 42.7926 32.5455 42.6335C32.6041 42.0612 32.2175 41.4108 32.8386 40.9376C32.6306 39.9592 32.431 38.9669 31.7304 38.2006C31.1707 37.5893 30.2174 37.7442 29.7666 38.4616C29.5488 38.8063 29.5167 39.0548 29.9355 39.3074C30.7366 39.7917 31.5043 40.3333 32.3152 40.8706C31.0507 41.6229 31.1274 42.3417 32.5427 43.1862ZM54.8759 33.3714C54.4921 33.3323 54.1278 33.4858 54.0273 33.9869C53.9352 34.4447 54.0873 34.915 54.5493 34.9876C55.4872 35.1342 56.3065 35.4733 57.1021 35.9814C57.518 36.2466 58.0177 36.093 58.322 35.6492C58.643 35.183 58.3345 34.8801 58.0037 34.5898C57.1314 33.8319 56.1153 33.4411 54.8759 33.3714ZM57.2319 39.045C57.2193 38.9138 57.2249 38.724 57.1802 38.5453C57.077 38.1294 56.9164 37.733 56.4461 37.6144C55.9743 37.4958 55.6282 37.7554 55.3658 38.0959C54.7921 38.8371 54.587 39.6773 54.8619 40.5859C55.1132 41.4192 55.8501 41.5978 56.474 40.9907C57.003 40.477 57.1998 39.8197 57.2319 39.045Z" fill="#F89677"/>
<path d="M59.2222 35.7063C58.7281 34.6847 58.6848 33.5709 58.6122 32.4766C58.5159 31.0167 58.548 29.547 58.1795 28.1163C57.9813 27.3473 57.7371 26.5908 57.2067 25.9781C56.8313 25.5454 56.379 25.1434 55.7593 25.4575C53.4982 26.6047 51.2288 26.0841 48.9593 25.5258C47.1365 25.0764 45.3192 24.6047 43.4573 24.3451C41.6498 24.0938 40.0392 24.5879 38.6602 25.7533C37.7725 26.5029 37.3677 27.4548 37.6106 28.6718C37.8967 30.108 37.9525 31.5778 38.067 33.0363C38.0865 33.2792 38.0446 33.4857 37.8897 33.6853C36.6363 35.3002 35.3914 36.9192 34.1394 38.5425C33.8491 38.4308 33.9021 38.1503 33.8184 37.9591C33.4694 37.1607 32.9977 36.4907 32.1072 36.2549C31.8922 36.1976 31.8071 36.072 31.7275 35.9059C30.999 32.358 30.2857 28.8058 29.5251 25.2634C29.3785 24.5795 29.4511 24.0687 29.8726 23.4769C32.625 19.6079 36.4284 17.3859 40.9562 16.2637C41.0594 16.2386 41.1641 16.2135 41.4377 16.1465C40.2946 15.4458 39.2841 14.8275 38.194 14.159C39.5758 13.4416 40.9548 12.9949 42.3826 12.706C45.6528 12.0458 48.9007 11.9844 52.0383 13.3173C54.4027 14.3223 56.2339 16.039 57.913 17.9275C58.9039 19.0413 59.7442 20.2681 60.5467 21.5243C60.7784 21.8872 60.7309 22.07 60.3653 22.2849C59.8056 22.6129 59.2919 23.0219 58.7309 23.3513C58.3582 23.5704 58.2479 23.8203 58.3024 24.2529C58.6373 26.9048 58.996 29.5539 59.2054 32.2198C59.2947 33.3838 59.278 34.5437 59.2222 35.7063Z" fill="#111224"/>
<path d="M43.7966 66.929C45.2775 66.0902 46.7556 65.2444 48.2407 64.4125C48.9832 63.9966 49.7411 63.6086 50.4934 63.208C52.5032 63.6546 54.5298 63.9798 56.59 64.0566C56.918 64.7224 57.2473 65.3895 57.5767 66.0553C57.5446 67.2305 57.5223 68.4071 57.4748 69.5809C57.4567 70.0346 57.5698 70.5035 57.3464 70.939C56.4197 71.6885 55.7092 72.6348 54.9681 73.5546C54.1251 74.6014 53.296 75.6552 52.2855 76.5582C51.8054 76.9867 51.5569 77.0314 51.1256 76.4619C48.7082 73.2629 46.2448 70.1029 43.7966 66.929Z" fill="#EEEDE3"/>
<path d="M34.4381 60.2324C36.4912 61.6896 38.5513 63.1342 40.5933 64.6067C41.6415 65.3618 42.7316 66.061 43.7072 66.9138C41.3568 69.8518 38.8375 72.6419 36.3405 75.4529C35.6063 76.2806 35.6008 76.2778 34.8847 75.4432C34.413 74.8946 34.0445 74.2777 33.7165 73.6357C33.348 72.9127 33.0131 72.1716 32.6292 71.4569C32.237 70.727 31.9034 69.9523 31.2516 69.394C31.2516 69.2084 31.2502 69.0228 31.2502 68.8371C31.6048 68.3751 32.1337 68.1058 32.498 67.641C33.5337 66.3192 33.7374 64.7239 34.0306 63.1621C34.2148 62.192 34.3055 61.208 34.4381 60.2324Z" fill="#EEEDE3"/>
<path d="M57.3464 70.9391C57.5698 70.5036 57.4567 70.0347 57.4748 69.5811C57.5209 68.4058 57.5446 67.2306 57.5767 66.0554C58.4156 66.8957 59.253 67.7373 60.3305 68.2844C60.7786 68.5119 61.221 68.7506 61.6662 68.9837C62.4702 70.7451 63.6314 72.2762 64.769 73.8241C65.0984 74.2721 65.4389 74.7118 65.753 75.1696C66.12 75.7069 66.1284 76.2555 65.7139 76.7775C64.5038 78.3016 63.2895 79.8216 62.0808 81.3471C61.7332 81.7854 61.5713 81.3974 61.408 81.1866C60.0835 79.488 58.7701 77.7796 57.4525 76.0754C57.4246 76.0391 57.3883 76.0098 57.3548 75.9777C57.3548 74.8067 57.3548 73.6357 57.3548 72.4646C57.4734 71.9566 57.5488 71.4471 57.3464 70.9391Z" fill="#826B63"/>
<path d="M56.5898 64.0566C54.5297 63.9799 52.5031 63.6561 50.4932 63.208C45.9305 62.1459 42.0476 59.9015 38.8165 56.5155C38.7048 56.3982 38.5834 56.2852 38.4494 56.1959C36.3223 54.7792 35.4095 52.694 35.1834 50.2416C35.1024 49.3637 35.0898 48.4788 35.0661 47.5967C35.0591 47.3399 34.9684 46.9491 35.3899 46.9659C35.757 46.9812 35.6509 47.3427 35.6481 47.58C35.6356 48.7887 35.6216 49.9974 35.838 51.1949C36.1408 52.874 36.9127 54.2209 38.4257 55.1267C40.7175 56.5001 42.9799 57.9182 45.3708 59.1199C45.9668 59.42 46.5684 59.5749 47.2411 59.5568C48.6815 59.5191 50.1219 59.5331 51.5581 59.3753C52.5952 59.2623 53.4577 58.9022 54.1696 58.0941C54.7488 57.4367 55.2541 56.7053 55.9408 56.1442C55.9324 58.8003 55.871 61.4606 56.5898 64.0566Z" fill="#111224"/>
<path d="M31.2517 68.8357C31.2517 69.0213 31.2531 69.207 31.2531 69.3926C31.2531 69.9942 31.2517 70.5943 31.2517 71.1959C31.2503 73.3467 31.2475 75.4989 31.2461 77.6498C30.1268 78.6547 28.999 79.6513 27.8908 80.6688C27.4567 81.0665 27.084 81.1908 26.4923 80.8795C25.4301 80.3184 24.3051 79.8746 23.1955 79.407C22.7726 79.2283 22.6931 79.0902 22.9945 78.6729C24.6178 76.4187 26.4043 74.2763 27.7512 71.8323C27.9494 71.4722 28.3946 71.161 28.1685 70.6404C29.1958 70.0388 30.2231 69.4373 31.2517 68.8357Z" fill="#826B63"/>
<path d="M31.2529 71.1959C31.2529 70.5943 31.2543 69.9941 31.2543 69.3926C31.9061 69.9509 32.2397 70.7255 32.6319 71.4555C33.0157 72.1701 33.3507 72.9098 33.7192 73.6342C34.0458 74.2763 34.4157 74.8932 34.8874 75.4417C35.6034 76.2764 35.609 76.2791 36.3432 75.4515C38.8402 72.6405 41.3595 69.8504 43.7099 66.9124C43.7378 66.9291 43.7671 66.9347 43.7978 66.9291C46.2459 70.103 48.7108 73.2644 51.1268 76.4606C51.5581 77.0314 51.8065 76.9868 52.2867 76.5569C53.2972 75.6539 54.1263 74.6001 54.9693 73.5533C55.709 72.6335 56.4209 71.6872 57.3476 70.9377C57.5514 71.4457 57.4746 71.9551 57.3532 72.4646C56.506 73.196 55.8388 74.0906 55.1214 74.9392C54.1765 76.0558 53.2372 77.1738 52.0955 78.1062C51.7061 78.4244 51.473 78.4216 51.1296 78.0406C50.0242 76.8165 49.0234 75.5059 47.9683 74.24C46.5502 72.3585 45.1112 70.4924 43.7713 68.4923C42.1648 70.3682 40.603 72.191 39.0411 74.0153C38.1172 75.0216 37.1806 76.0154 36.279 77.0384C35.9705 77.3874 35.8142 77.4139 35.5281 77.0077C34.2468 75.1891 32.9362 73.3914 31.6326 71.5895C31.5237 71.4443 31.3785 71.3271 31.2529 71.1959Z" fill="#111224"/>
<path d="M43.7351 49.2464C43.9054 49.0496 44.0785 49.0845 44.2362 49.0859C47.2105 49.1152 50.1876 48.9659 53.1605 49.1655C53.8137 49.2102 54.4446 49.3567 55.0824 49.4851C55.5668 49.5814 55.6184 49.841 55.3979 50.236C54.6623 51.5606 53.5388 52.2738 52.0342 52.3896C50.9064 52.4762 49.8108 52.3226 48.75 51.9165C46.969 51.2368 45.3221 50.3156 43.7351 49.2464Z" fill="#FEFEFE"/>
<path d="M42.5808 34.0247C42.5934 33.5585 42.8432 33.3352 43.1321 33.1161C44.4497 32.1153 46.0269 31.9283 47.5859 31.6924C48.0074 31.6282 48.3089 31.8613 48.3996 32.2842C48.4904 32.7057 48.3885 33.0896 47.9711 33.285C47.7241 33.4008 47.4436 33.479 47.1714 33.4985C45.9599 33.5892 44.8614 33.9786 43.8761 34.6877C43.6109 34.8789 43.3233 34.9501 43.0316 34.7742C42.7302 34.59 42.6129 34.2899 42.5808 34.0247Z" fill="#111224"/>
<path d="M44.3381 39.1288C44.3395 38.1238 44.588 37.3618 45.2105 36.7672C45.9 36.1098 46.6872 36.3038 47.0263 37.1887C47.3808 38.1141 47.0473 39.5545 46.3229 40.2286C45.5789 40.9209 44.7499 40.7046 44.4442 39.7275C44.3688 39.4889 44.3549 39.2293 44.3381 39.1288Z" fill="#111224"/>
<path d="M50.6426 46.4398C50.0661 46.3797 49.4897 46.3086 48.9118 46.2625C48.461 46.2262 48.207 46.0168 48.2614 45.5535C48.3201 45.051 48.7095 45.0999 49.0612 45.1389C49.5916 45.1976 50.1178 45.2994 50.6481 45.3413C52.1234 45.4572 53.0335 44.5946 53.0014 43.1081C52.9916 42.6824 53.0725 42.3503 53.561 42.3223C54.044 42.2944 54.1054 42.6517 54.1389 43.0216C54.3315 45.1152 52.9218 46.4872 50.6426 46.4398Z" fill="#111224"/>
<path d="M32.5426 43.1861C31.1274 42.3431 31.0506 41.6229 32.3137 40.8706C31.5028 40.3332 30.7366 39.7917 29.934 39.3074C29.5167 39.0547 29.5488 38.8077 29.7651 38.4615C30.2159 37.7441 31.1706 37.5878 31.7289 38.2005C32.4296 38.9668 32.6292 39.9592 32.8371 40.9376C32.216 41.4121 32.6027 42.0625 32.544 42.6334C32.5287 42.7911 32.5426 42.953 32.5426 43.1861Z" fill="#111224"/>
<path d="M54.8759 33.3714C56.1153 33.4412 57.1314 33.8306 58.0023 34.5913C58.3331 34.8802 58.6416 35.1845 58.3205 35.6507C58.0163 36.0931 57.5152 36.2466 57.1007 35.9829C56.3051 35.4748 55.4858 35.1356 54.5479 34.9891C54.0859 34.9165 53.9351 34.4448 54.0259 33.9883C54.1263 33.4859 54.492 33.3337 54.8759 33.3714Z" fill="#111224"/>
<path d="M57.2318 39.045C57.1997 39.8196 57.0029 40.477 56.4739 40.9907C55.85 41.5978 55.113 41.4192 54.8618 40.5859C54.5869 39.6773 54.7934 38.837 55.3657 38.0959C55.6281 37.7553 55.9742 37.4957 56.446 37.6144C56.9163 37.733 57.0768 38.128 57.1801 38.5453C57.2248 38.724 57.2206 38.9138 57.2318 39.045Z" fill="#111224"/>
</g>
<defs>
<clipPath id="clip0_8_238">
<rect width="93.4278" height="93.4571" fill="white" transform="translate(0.181152 0.917725)"/>
</clipPath>
</defs>
</svg>
