<svg width="94" height="95" viewBox="0 0 94 95" fill="none" xmlns="http://www.w3.org/2000/svg">
<g clip-path="url(#clip0_8_184)">
<path d="M13.8609 80.3196C13.0793 79.905 12.6215 79.1499 12.0562 78.5247C10.0938 76.3515 8.39659 73.9745 6.90036 71.4566C4.21915 66.9484 2.35444 62.122 1.31741 56.9842C0.841466 54.6241 0.581859 52.2346 0.43112 49.8241C0.272006 47.2867 0.464617 44.7855 0.717246 42.269C1.03408 39.116 1.73474 36.0538 2.70757 33.0488C3.89255 29.3877 5.52975 25.9291 7.59544 22.6882C9.0791 20.3601 10.7554 18.173 12.6229 16.1268C15.1547 13.3521 17.9839 10.9333 21.0908 8.8397C23.832 6.99314 26.7491 5.47458 29.8198 4.24215C32.7145 3.08089 35.7042 2.25183 38.758 1.67678C40.5278 1.3432 42.3311 1.18827 44.1316 1.03195C46.2685 0.846319 48.404 0.911919 50.5283 1.06964C53.6952 1.30412 56.8217 1.84148 59.8797 2.72777C64.3642 4.0286 68.5682 5.93238 72.4916 8.481C75.4059 10.3736 78.0773 12.5496 80.4976 15.027C82.6065 17.1862 84.4838 19.5394 86.1419 22.0713C88.0443 24.9786 89.5992 28.0548 90.8218 31.3041C91.9761 34.3733 92.787 37.5319 93.2588 40.7756C93.6063 43.1637 93.8478 45.5671 93.7919 47.9762C93.6761 53.0287 92.9112 57.971 91.2475 62.7752C89.7471 67.1089 87.6744 71.1272 85.0253 74.858C84.6792 75.3452 84.2786 75.7918 83.9045 76.258C77.4953 74.2872 71.1098 72.2466 64.7648 70.0777C64.3977 69.952 64.0655 69.7064 63.6482 69.7483C63.0955 69.3895 62.4632 69.2207 61.8575 68.9876C61.4123 68.7545 60.9698 68.5158 60.5218 68.2883C59.4443 67.7412 58.6068 66.8996 57.768 66.0593C57.4386 65.3936 57.1106 64.7264 56.7812 64.0606C56.0638 61.4646 56.1238 58.8043 56.1336 56.1482C56.6849 55.3512 57.2627 54.571 57.7777 53.7517C58.156 53.1516 58.5663 52.5667 58.6668 51.8144C58.8413 50.5024 58.812 49.1807 58.9013 47.8645C59.0842 45.2056 59.1163 42.537 59.2195 39.8739C59.274 38.4851 59.348 37.0978 59.4136 35.7104C59.4694 34.5478 59.4861 33.3879 59.3954 32.2253C59.186 29.5594 58.8273 26.9089 58.4924 24.2584C58.4379 23.8257 58.5468 23.5759 58.9209 23.3568C59.4805 23.0274 59.9942 22.6198 60.5553 22.2904C60.9209 22.0755 60.9684 21.8926 60.7367 21.5297C59.9342 20.2736 59.0939 19.0467 58.103 17.9329C56.4239 16.0445 54.5927 14.3277 52.2283 13.3228C49.0907 11.9899 45.8428 12.0499 42.5726 12.7115C41.1448 13.0004 39.7644 13.447 38.384 14.1644C39.4755 14.833 40.486 15.4527 41.6277 16.152C41.3541 16.219 41.2508 16.2441 41.1462 16.2692C36.6184 17.3928 32.815 19.6148 30.0626 23.4824C29.6411 24.0742 29.5685 24.585 29.7151 25.2689C30.4757 28.8113 31.189 32.3634 31.9175 35.9114C31.7514 36.3915 31.323 36.1417 31.0187 36.2282C29.3159 36.7154 28.6194 37.7887 28.5343 39.726C28.4547 41.5348 28.9432 43.2544 29.7234 44.8818C30.0179 45.4973 30.5455 45.8658 31.1792 46.1017C32.0934 46.4422 33.0355 46.6767 34 46.7996C34.5764 46.8721 34.8109 47.0759 34.8081 47.7165C34.7914 51.8912 34.8514 56.0645 34.6295 60.2363C34.4969 61.2133 34.4047 62.1973 34.2247 63.1646C33.9316 64.7264 33.7264 66.3231 32.6922 67.6435C32.3279 68.1083 31.7975 68.3776 31.4444 68.8396C30.4157 69.4412 29.3885 70.0428 28.3598 70.6443C27.7931 70.9695 27.1581 71.1775 26.6598 71.6213C26.5272 71.6548 26.3848 71.6674 26.2634 71.7246C22.8941 73.3353 19.4383 74.7394 15.9391 76.0416C15.6098 76.1645 15.4939 76.3864 15.3683 76.6739C14.8463 77.877 14.4778 79.1499 13.8609 80.3196Z" fill="#FAD5A1"/>
<path d="M57.1481 93.2597C54.5758 93.8263 51.9769 94.1474 49.3445 94.2828C48.1177 94.3456 46.9006 94.4307 45.6765 94.3218C45.904 94.0874 45.8161 93.7929 45.8091 93.5249C45.7156 89.8625 45.6137 86.1987 45.5118 82.5362C45.5077 82.3743 45.463 82.2152 45.4588 82.0533C45.4253 80.5431 45.1294 79.019 46.1483 77.6414C46.9313 76.5834 47.3584 75.2979 48.1596 74.24C49.2147 75.5059 50.2155 76.8151 51.3209 78.0406C51.6656 78.4216 51.8973 78.4258 52.2868 78.1062C53.4285 77.1738 54.3678 76.0558 55.3127 74.9392C56.0301 74.0906 56.6973 73.196 57.5445 72.4646C57.5445 73.6356 57.5445 74.8067 57.5445 75.9777C57.4705 76.6141 57.3951 77.2506 57.5012 77.8898C57.3882 78.1313 57.4203 78.3909 57.4133 78.6449C57.3282 81.7784 57.2235 84.9104 57.1676 88.0438C57.1383 89.7829 57.0155 91.5206 57.1481 93.2597Z" fill="#EEEDE3"/>
<path d="M63.6481 69.7442C64.064 69.7037 64.3976 69.9494 64.7647 70.0736C71.1097 72.2426 77.4966 74.2831 83.9044 76.2539C82.7208 77.9818 81.2804 79.4864 79.7981 80.9478C76.4735 84.2236 72.7343 86.9355 68.5904 89.0863C68.367 89.2022 68.1256 89.2873 67.8939 89.3864C66.4842 87.2202 64.7367 85.3136 63.1931 83.2493C62.8776 82.8264 62.7562 82.5459 63.1568 82.0672C64.6907 80.2318 66.1604 78.3433 67.6776 76.4926C68.0781 76.0041 68.0851 75.6105 67.6441 75.1555C67.1918 74.6893 66.7578 74.2008 66.3558 73.6913C65.362 72.4394 64.3417 71.2027 63.6481 69.7442Z" fill="#826B63"/>
<path d="M40.2695 93.8124C39.3762 93.8878 38.5415 93.5695 37.686 93.4104C35.6691 93.0336 33.6886 92.5143 31.7834 91.7341C31.7038 91.702 31.6424 91.6267 31.5726 91.5722C31.5587 89.0725 31.5796 86.5713 31.5168 84.0729C31.4777 82.5265 31.5838 80.9758 31.4052 79.4335C31.4163 78.8389 31.4275 78.2457 31.4386 77.6512C31.44 75.5003 31.4428 73.3481 31.4442 71.1973C31.5712 71.3285 31.7164 71.4457 31.8225 71.5909C33.1275 73.3928 34.4381 75.1905 35.718 77.0091C36.0041 77.4153 36.1604 77.3888 36.4689 77.0398C37.3719 76.0154 38.3085 75.0216 39.231 74.0167C40.0573 75.3817 40.8808 76.7495 41.7099 78.1131C41.9318 78.476 42.0365 78.818 41.9737 79.2828C41.6861 81.3666 41.4656 83.4588 41.2228 85.5482C40.9045 88.302 40.5877 91.0572 40.2695 93.8124Z" fill="#EEEDE3"/>
<path d="M40.2695 93.8125C40.5877 91.0573 40.9032 88.3021 41.2228 85.5469C41.4643 83.4575 41.6862 81.3653 41.9737 79.2815C42.0379 78.8181 41.9318 78.4761 41.7099 78.1119C40.8794 76.7482 40.0574 75.3818 39.2311 74.0154C40.7929 72.1911 42.3547 70.3683 43.9612 68.4924C45.3011 70.4925 46.7401 72.3586 48.1582 74.2387C47.3571 75.298 46.93 76.5835 46.147 77.6415C45.1281 79.0191 45.424 80.5432 45.4575 82.0534C45.4616 82.2153 45.5063 82.3744 45.5105 82.5363C45.6124 86.1988 45.7143 89.8612 45.8078 93.525C45.8148 93.793 45.9013 94.0875 45.6752 94.3219C43.8663 94.234 42.0561 94.1558 40.2695 93.8125Z" fill="#F89677"/>
<path d="M13.8608 80.3198C14.4778 79.1502 14.8462 77.8787 15.3682 76.67C15.4925 76.3825 15.6097 76.1606 15.9391 76.0377C19.4382 74.7369 22.894 73.3314 26.2634 71.7207C26.3848 71.6635 26.5271 71.6509 26.6597 71.6174C26.6444 71.9887 26.3904 72.2455 26.2075 72.533C24.9276 74.5513 23.4021 76.3936 22.0245 78.3421C21.1047 79.6429 21.1256 79.6652 22.6205 80.3087C23.8487 80.8377 25.063 81.4001 26.3792 81.9919C24.5173 83.5538 22.5339 84.7346 20.6302 86.0284C19.8695 85.7241 19.2847 85.1575 18.6454 84.6773C17.0934 83.5105 15.6376 82.2278 14.2586 80.8614C14.1009 80.7037 13.8776 80.585 13.8608 80.3198Z" fill="#826B63"/>
<path d="M57.1481 93.2596C57.0155 91.5205 57.1383 89.7828 57.169 88.0451C57.2249 84.9117 57.3295 81.7782 57.4147 78.6462C57.4217 78.3922 57.3896 78.134 57.5026 77.8911C57.5905 77.9637 57.698 78.0223 57.7636 78.1116C60.7128 82.1034 64.0249 85.8203 66.7717 89.9656C63.8867 91.367 60.8608 92.3607 57.7497 93.1116C57.5487 93.1605 57.3491 93.2107 57.1481 93.2596Z" fill="#826B63"/>
<path d="M31.4066 79.4335C31.5853 80.9758 31.4792 82.5265 31.5183 84.0729C31.5825 86.5713 31.5602 89.0725 31.5741 91.5722C31.2489 91.6895 30.9893 91.4843 30.7171 91.3824C27.74 90.27 24.8969 88.8854 22.2241 87.1603C22.2632 87.1101 22.3469 87.0305 22.3358 87.0137C21.9812 86.4959 22.2939 86.2768 22.7084 86.013C25.599 84.1678 28.3276 82.1105 30.8302 79.7615C30.9935 79.608 31.1289 79.3916 31.4066 79.4335Z" fill="#826B63"/>
<path d="M66.7717 89.9658C64.0249 85.8205 60.7128 82.105 57.7636 78.1118C57.698 78.0225 57.5906 77.9639 57.5026 77.8913C57.3965 77.2507 57.4719 76.6142 57.5459 75.9791C57.578 76.0112 57.6157 76.0406 57.6436 76.0768C58.9612 77.781 60.2746 79.4894 61.5991 81.188C61.7624 81.3974 61.9243 81.7868 62.2719 81.3485C63.4806 79.823 64.6963 78.303 65.905 76.7789C66.3195 76.2569 66.3111 75.7084 65.944 75.171C65.6314 74.7118 65.2894 74.2736 64.96 73.8255C63.8239 72.2776 62.6627 70.7451 61.8573 68.9851C62.4631 69.2168 63.0953 69.3871 63.6481 69.7458C64.3417 71.2057 65.362 72.4423 66.3544 73.6957C66.7578 74.2052 67.1904 74.6937 67.6427 75.1598C68.0837 75.6135 68.0767 76.0085 67.6762 76.497C66.1604 78.3477 64.6907 80.2361 63.1554 82.0715C62.7548 82.5503 62.8762 82.8308 63.1916 83.2537C64.7353 85.318 66.4828 87.2246 67.8925 89.3908C67.5659 89.6699 67.1597 89.8011 66.7717 89.9658Z" fill="#111224"/>
<path d="M31.4066 79.4335C31.1288 79.393 30.9948 79.608 30.8315 79.7615C28.3276 82.1105 25.5989 84.1679 22.7097 86.013C22.2952 86.2782 21.9825 86.4959 22.3371 87.0138C22.3482 87.0291 22.2645 87.1101 22.2254 87.1603C21.6797 86.803 21.0697 86.5364 20.6315 86.0284C22.5353 84.7345 24.5186 83.5537 26.3805 81.9919C25.0629 81.4001 23.85 80.8376 22.6218 80.3086C21.1284 79.6652 21.106 79.6429 22.0258 78.3421C23.4034 76.3936 24.9289 74.5512 26.2088 72.533C26.3917 72.2455 26.6443 71.9887 26.6611 71.6174C27.1593 71.1722 27.7944 70.9656 28.3611 70.6404C28.5872 71.1624 28.1419 71.4722 27.9437 71.8323C26.5968 74.2763 24.8103 76.4187 23.1871 78.6728C22.8856 79.0916 22.9651 79.2297 23.388 79.407C24.4977 79.8746 25.6226 80.3184 26.6848 80.8795C27.2766 81.1922 27.6506 81.0679 28.0833 80.6687C29.1915 79.6513 30.3193 78.6547 31.4387 77.6498C31.4275 78.2444 31.4163 78.8389 31.4066 79.4335Z" fill="#111224"/>
<path d="M34.6307 60.2323C34.8527 56.0618 34.7926 51.8872 34.8094 47.7125C34.8122 47.0719 34.5777 46.8681 34.0013 46.7955C33.0368 46.6727 32.0947 46.4382 31.1805 46.0977C30.5482 45.8618 30.0192 45.4933 29.7247 44.8778C28.9445 43.2504 28.456 41.5308 28.5356 39.722C28.6207 37.7847 29.3172 36.7114 31.02 36.2242C31.3242 36.1377 31.7527 36.3875 31.9188 35.906C31.9984 36.0721 32.0835 36.1977 32.2985 36.2549C33.1889 36.4922 33.6593 37.1622 34.0096 37.9591C34.0934 38.1504 34.0403 38.4309 34.3307 38.5426C35.5812 36.9207 36.8276 35.3003 38.081 33.6854C38.2359 33.4858 38.2778 33.2778 38.2583 33.0364C38.1424 31.5778 38.0866 30.1081 37.8018 28.6719C37.5604 27.4548 37.9638 26.5029 38.8514 25.7534C40.2304 24.588 41.8425 24.0925 43.6486 24.3451C45.5105 24.6047 47.3277 25.0765 49.1506 25.5259C51.4187 26.0842 53.6881 26.6048 55.9506 25.4575C56.5703 25.1435 57.0225 25.5455 57.398 25.9781C57.9284 26.5909 58.1726 27.3474 58.3708 28.1164C58.7393 29.547 58.7086 31.0167 58.8035 32.4767C58.8747 33.5709 58.9193 34.6847 59.4134 35.7064C59.3478 37.0938 59.2739 38.4811 59.2194 39.8699C59.1161 42.5344 59.0826 45.203 58.9012 47.8605C58.8105 49.1753 58.8398 50.4984 58.6667 51.8104C58.5676 52.5627 58.1559 53.1475 57.7776 53.7477C57.2612 54.567 56.6848 55.3472 56.1335 56.1456C55.4468 56.7067 54.9429 57.438 54.3623 58.0954C53.6504 58.9022 52.7879 59.2623 51.7508 59.3767C50.3132 59.533 48.8742 59.5205 47.4338 59.5582C46.7611 59.5763 46.1595 59.4214 45.5635 59.1213C43.1726 57.9196 40.9102 56.5015 38.6184 55.1281C37.1054 54.2209 36.3335 52.8754 36.0307 51.1963C35.8143 49.9988 35.8283 48.7901 35.8408 47.5813C35.8436 47.3441 35.9511 46.9826 35.5826 46.9672C35.1611 46.9505 35.2518 47.3427 35.2588 47.5981C35.2825 48.4802 35.2951 49.3651 35.3761 50.243C35.6008 52.6939 36.515 54.7806 38.6421 56.1972C38.7761 56.2866 38.8975 56.3996 39.0092 56.5168C42.2389 59.9029 46.1232 62.1473 50.6845 63.2094C49.9336 63.61 49.1757 63.9994 48.4332 64.4139C46.9481 65.2444 45.47 66.0902 43.9891 66.9304C43.957 66.936 43.9277 66.9304 43.9012 66.9137C42.9242 66.0609 41.8341 65.363 40.7873 64.6065C38.744 63.134 36.6839 61.6881 34.6307 60.2323ZM43.9277 49.2465C45.5147 50.3142 47.1617 51.2354 48.9426 51.9179C50.0034 52.3241 51.0976 52.4762 52.2268 52.3911C53.7314 52.2766 54.855 51.562 55.5905 50.2374C55.811 49.841 55.7594 49.5828 55.2751 49.4865C54.6386 49.3595 54.0077 49.2116 53.3531 49.1669C50.3788 48.9673 47.4031 49.1167 44.4288 49.0873C44.2711 49.0846 44.0994 49.0511 43.9277 49.2465ZM42.7735 34.0246C42.807 34.2897 42.9242 34.5912 43.2229 34.7727C43.5146 34.9499 43.8021 34.8774 44.0673 34.6861C45.0541 33.9785 46.1511 33.5891 47.3626 33.497C47.6334 33.476 47.9154 33.3993 48.1624 33.2834C48.5811 33.088 48.683 32.7042 48.5909 32.2827C48.5002 31.8598 48.1987 31.6267 47.7772 31.6909C46.2195 31.9268 44.6424 32.1152 43.3234 33.1145C43.0359 33.3351 42.786 33.5584 42.7735 34.0246ZM44.5307 39.1288C44.5474 39.2279 44.5614 39.4875 44.6368 39.7275C44.9424 40.7046 45.7715 40.9209 46.5154 40.2286C47.2398 39.5545 47.5734 38.1127 47.2189 37.1887C46.8797 36.3038 46.0925 36.1098 45.403 36.7672C44.7805 37.3618 44.5335 38.1238 44.5307 39.1288ZM50.8352 46.4396C53.1145 46.4871 54.5242 45.1151 54.3316 43.0215C54.2981 42.6516 54.2366 42.2943 53.7537 42.3222C53.2652 42.3501 53.1857 42.6823 53.194 43.108C53.2261 44.5931 52.3161 45.457 50.8408 45.3412C50.309 45.2993 49.7829 45.1974 49.2539 45.1388C48.9035 45.0997 48.5127 45.0509 48.4541 45.5533C48.3997 46.0167 48.6537 46.2261 49.1045 46.2624C49.6838 46.3084 50.2588 46.3796 50.8352 46.4396ZM32.7353 43.1862C32.7353 42.9545 32.7214 42.7926 32.7381 42.6335C32.7967 42.0612 32.4101 41.4108 33.0312 40.9376C32.8233 39.9592 32.6237 38.9669 31.923 38.2006C31.3633 37.5893 30.41 37.7442 29.9592 38.4616C29.7415 38.8063 29.7094 39.0548 30.1281 39.3074C30.9292 39.7917 31.6969 40.3333 32.5078 40.8706C31.2433 41.6229 31.32 42.3417 32.7353 43.1862ZM55.0685 33.3714C54.6847 33.3323 54.3204 33.4858 54.2199 33.9869C54.1278 34.4447 54.2799 34.915 54.7419 34.9876C55.6798 35.1342 56.4991 35.4733 57.2947 35.9814C57.7106 36.2466 58.2103 36.093 58.5146 35.6492C58.8356 35.183 58.5271 34.8801 58.1964 34.5898C57.324 33.8319 56.3079 33.4411 55.0685 33.3714ZM57.4245 39.045C57.4119 38.9138 57.4175 38.724 57.3729 38.5453C57.2696 38.1294 57.1091 37.733 56.6387 37.6144C56.167 37.4958 55.8208 37.7554 55.5584 38.0959C54.9848 38.8371 54.7796 39.6773 55.0545 40.5859C55.3058 41.4192 56.0427 41.5978 56.6666 40.9907C57.1956 40.477 57.3924 39.8197 57.4245 39.045Z" fill="#F89677"/>
<path d="M59.4148 35.7063C58.9207 34.6847 58.8774 33.5709 58.8048 32.4766C58.7085 31.0167 58.7406 29.547 58.3722 28.1163C58.174 27.3473 57.9297 26.5908 57.3993 25.9781C57.0239 25.5454 56.5717 25.1434 55.952 25.4575C53.6909 26.6047 51.4214 26.0841 49.1519 25.5258C47.3291 25.0764 45.5119 24.6047 43.6499 24.3451C41.8425 24.0938 40.2318 24.5879 38.8528 25.7533C37.9651 26.5029 37.5603 27.4548 37.8032 28.6718C38.0893 30.108 38.1452 31.5778 38.2596 33.0363C38.2791 33.2792 38.2373 33.4857 38.0823 33.6853C36.829 35.3002 35.584 36.9192 34.332 38.5425C34.0417 38.4308 34.0947 38.1503 34.011 37.9591C33.662 37.1607 33.1903 36.4907 32.2998 36.2549C32.0849 36.1976 31.9997 36.072 31.9202 35.9059C31.1916 32.358 30.4784 28.8058 29.7177 25.2634C29.5711 24.5795 29.6437 24.0687 30.0652 23.4769C32.8176 19.6079 36.621 17.3859 41.1488 16.2637C41.2521 16.2386 41.3567 16.2135 41.6303 16.1465C40.4872 15.4458 39.4767 14.8275 38.3866 14.159C39.7684 13.4416 41.1474 12.9949 42.5752 12.706C45.8454 12.0458 49.0933 11.9844 52.2309 13.3173C54.5953 14.3223 56.4265 16.039 58.1056 17.9275C59.0966 19.0413 59.9368 20.2681 60.7393 21.5243C60.971 21.8872 60.9236 22.07 60.5579 22.2849C59.9982 22.6129 59.4846 23.0219 58.9235 23.3513C58.5508 23.5704 58.4406 23.8203 58.495 24.2529C58.83 26.9048 59.1887 29.5539 59.398 32.2198C59.4874 33.3838 59.4706 34.5437 59.4148 35.7063Z" fill="#111224"/>
<path d="M43.9891 66.929C45.47 66.0902 46.9481 65.2444 48.4332 64.4125C49.1757 63.9966 49.9336 63.6086 50.6859 63.208C52.6957 63.6546 54.7224 63.9798 56.7825 64.0566C57.1105 64.7224 57.4399 65.3895 57.7692 66.0553C57.7371 67.2305 57.7148 68.4071 57.6674 69.5809C57.6492 70.0346 57.7623 70.5035 57.5389 70.939C56.6122 71.6885 55.9017 72.6348 55.1606 73.5546C54.3176 74.6014 53.4885 75.6552 52.478 76.5582C51.9979 76.9867 51.7494 77.0314 51.3182 76.4619C48.9007 73.2629 46.4373 70.1029 43.9891 66.929Z" fill="#EEEDE3"/>
<path d="M34.6307 60.2324C36.6839 61.6896 38.744 63.1342 40.7859 64.6067C41.8341 65.3618 42.9242 66.061 43.8998 66.9138C41.5494 69.8518 39.0301 72.6419 36.5331 75.4529C35.799 76.2806 35.7934 76.2778 35.0774 75.4432C34.6056 74.8946 34.2371 74.2777 33.9091 73.6357C33.5407 72.9127 33.2057 72.1716 32.8219 71.4569C32.4297 70.727 32.0961 69.9523 31.4443 69.394C31.4443 69.2084 31.4429 69.0228 31.4429 68.8371C31.7974 68.3751 32.3264 68.1058 32.6907 67.641C33.7263 66.3192 33.9301 64.7239 34.2232 63.1621C34.4074 62.192 34.4981 61.208 34.6307 60.2324Z" fill="#EEEDE3"/>
<path d="M57.5389 70.9391C57.7623 70.5036 57.6492 70.0347 57.6673 69.5811C57.7134 68.4058 57.7371 67.2306 57.7692 66.0554C58.6081 66.8957 59.4455 67.7373 60.523 68.2844C60.9711 68.5119 61.4135 68.7506 61.8587 68.9837C62.6627 70.7451 63.8239 72.2762 64.9615 73.8241C65.2909 74.2721 65.6314 74.7118 65.9455 75.1696C66.3125 75.7069 66.3209 76.2555 65.9064 76.7775C64.6963 78.3016 63.482 79.8216 62.2733 81.3471C61.9257 81.7854 61.7638 81.3974 61.6005 81.1866C60.276 79.488 58.9626 77.7796 57.645 76.0754C57.6171 76.0391 57.5808 76.0098 57.5473 75.9777C57.5473 74.8067 57.5473 73.6357 57.5473 72.4646C57.666 71.9566 57.7413 71.4471 57.5389 70.9391Z" fill="#826B63"/>
<path d="M56.7825 64.0566C54.7224 63.9799 52.6958 63.6561 50.6859 63.208C46.1233 62.1459 42.2403 59.9015 39.0092 56.5155C38.8976 56.3982 38.7761 56.2852 38.6421 56.1959C36.515 54.7792 35.6022 52.694 35.3761 50.2416C35.2952 49.3637 35.2826 48.4788 35.2589 47.5967C35.2519 47.3399 35.1612 46.9491 35.5827 46.9659C35.9498 46.9812 35.8437 47.3427 35.8409 47.58C35.8283 48.7887 35.8144 49.9974 36.0307 51.1949C36.3336 52.874 37.1054 54.2209 38.6184 55.1267C40.9102 56.5001 43.1727 57.9182 45.5636 59.1199C46.1596 59.42 46.7611 59.5749 47.4339 59.5568C48.8743 59.5191 50.3147 59.5331 51.7509 59.3753C52.7879 59.2623 53.6505 58.9022 54.3623 58.0941C54.9415 57.4367 55.4468 56.7053 56.1335 56.1442C56.1251 58.8003 56.0637 61.4606 56.7825 64.0566Z" fill="#111224"/>
<path d="M31.4442 68.8357C31.4442 69.0213 31.4456 69.207 31.4456 69.3926C31.4456 69.9942 31.4442 70.5943 31.4442 71.1959C31.4428 73.3467 31.44 75.4989 31.4386 77.6498C30.3193 78.6547 29.1915 79.6513 28.0833 80.6688C27.6492 81.0665 27.2765 81.1908 26.6848 80.8795C25.6226 80.3184 24.4976 79.8746 23.388 79.407C22.9651 79.2283 22.8856 79.0902 23.187 78.6729C24.8103 76.4187 26.5968 74.2763 27.9437 71.8323C28.1419 71.4722 28.5871 71.161 28.361 70.6404C29.3883 70.0388 30.4156 69.4373 31.4442 68.8357Z" fill="#826B63"/>
<path d="M31.4457 71.1959C31.4457 70.5943 31.4471 69.9941 31.4471 69.3926C32.0989 69.9509 32.4325 70.7255 32.8247 71.4555C33.2085 72.1701 33.5435 72.9098 33.9119 73.6342C34.2385 74.2763 34.6084 74.8932 35.0802 75.4417C35.7962 76.2764 35.8018 76.2791 36.5359 75.4515C39.0329 72.6405 41.5522 69.8504 43.9026 66.9124C43.9305 66.9291 43.9599 66.9347 43.9906 66.9291C46.4387 70.103 48.9036 73.2644 51.3196 76.4606C51.7509 77.0314 51.9993 76.9868 52.4794 76.5569C53.4899 75.6539 54.319 74.6001 55.162 73.5533C55.9018 72.6335 56.6136 71.6872 57.5404 70.9377C57.7441 71.4457 57.6674 71.9551 57.546 72.4646C56.6987 73.196 56.0316 74.0906 55.3142 74.9392C54.3693 76.0558 53.4299 77.1738 52.2882 78.1062C51.8988 78.4244 51.6657 78.4216 51.3224 78.0406C50.2169 76.8165 49.2162 75.5059 48.161 74.24C46.743 72.3585 45.3039 70.4924 43.964 68.4923C42.3575 70.3682 40.7957 72.191 39.2339 74.0153C38.3099 75.0216 37.3734 76.0154 36.4717 77.0384C36.1633 77.3874 36.0069 77.4139 35.7208 77.0077C34.4395 75.1891 33.1289 73.3914 31.8253 71.5895C31.7165 71.4443 31.5713 71.3271 31.4457 71.1959Z" fill="#111224"/>
<path d="M43.9277 49.2464C44.098 49.0496 44.2711 49.0845 44.4288 49.0859C47.4031 49.1152 50.3802 48.9659 53.3531 49.1655C54.0063 49.2102 54.6372 49.3567 55.2751 49.4851C55.7594 49.5814 55.811 49.841 55.5905 50.236C54.855 51.5606 53.7314 52.2738 52.2268 52.3896C51.099 52.4762 50.0034 52.3226 48.9426 51.9165C47.1617 51.2368 45.5147 50.3156 43.9277 49.2464Z" fill="#FEFEFE"/>
<path d="M42.7734 34.0247C42.786 33.5585 43.0358 33.3352 43.3248 33.1161C44.6423 32.1153 46.2195 31.9283 47.7786 31.6924C48.2001 31.6282 48.5015 31.8613 48.5923 32.2842C48.683 32.7057 48.5811 33.0896 48.1638 33.285C47.9167 33.4008 47.6362 33.479 47.364 33.4985C46.1525 33.5892 45.0541 33.9786 44.0687 34.6877C43.8035 34.8789 43.516 34.9501 43.2243 34.7742C42.9228 34.59 42.8055 34.2899 42.7734 34.0247Z" fill="#111224"/>
<path d="M44.5306 39.1288C44.532 38.1238 44.7805 37.3618 45.403 36.7672C46.0925 36.1098 46.8797 36.3038 47.2188 37.1887C47.5733 38.1141 47.2398 39.5545 46.5154 40.2286C45.7714 40.9209 44.9424 40.7046 44.6367 39.7275C44.5613 39.4889 44.5474 39.2293 44.5306 39.1288Z" fill="#111224"/>
<path d="M50.8352 46.4398C50.2587 46.3797 49.6823 46.3086 49.1045 46.2625C48.6537 46.2262 48.3996 46.0168 48.4541 45.5535C48.5127 45.051 48.9021 45.0999 49.2538 45.1389C49.7842 45.1976 50.3104 45.2994 50.8408 45.3413C52.3161 45.4572 53.2261 44.5946 53.194 43.1081C53.1842 42.6824 53.2652 42.3503 53.7537 42.3223C54.2366 42.2944 54.298 42.6517 54.3315 43.0216C54.5241 45.1152 53.1144 46.4872 50.8352 46.4398Z" fill="#111224"/>
<path d="M32.7354 43.1861C31.3201 42.3431 31.2433 41.6229 32.5065 40.8706C31.6956 40.3332 30.9293 39.7917 30.1268 39.3074C29.7094 39.0547 29.7415 38.8077 29.9579 38.4615C30.4087 37.7441 31.3634 37.5878 31.9217 38.2005C32.6223 38.9668 32.8219 39.9592 33.0299 40.9376C32.4088 41.4121 32.7954 42.0625 32.7368 42.6334C32.7214 42.7911 32.7354 42.953 32.7354 43.1861Z" fill="#111224"/>
<path d="M55.0685 33.3714C56.3079 33.4412 57.324 33.8306 58.1949 34.5913C58.5257 34.8802 58.8342 35.1845 58.5132 35.6507C58.2089 36.0931 57.7078 36.2466 57.2933 35.9829C56.4977 35.4748 55.6784 35.1356 54.7405 34.9891C54.2785 34.9165 54.1278 34.4448 54.2185 33.9883C54.319 33.4859 54.6847 33.3337 55.0685 33.3714Z" fill="#111224"/>
<path d="M57.4245 39.045C57.3924 39.8196 57.1956 40.477 56.6666 40.9907C56.0427 41.5978 55.3058 41.4192 55.0546 40.5859C54.7796 39.6773 54.9862 38.837 55.5584 38.0959C55.8208 37.7553 56.167 37.4957 56.6387 37.6144C57.1091 37.733 57.2696 38.128 57.3729 38.5453C57.4175 38.724 57.4134 38.9138 57.4245 39.045Z" fill="#111224"/>
</g>
<defs>
<clipPath id="clip0_8_184">
<rect width="93.4278" height="93.4571" fill="white" transform="translate(0.373779 0.917725)"/>
</clipPath>
</defs>
</svg>
