<svg width="95" height="95" viewBox="0 0 95 95" fill="none" xmlns="http://www.w3.org/2000/svg">
<g clip-path="url(#clip0_8_211)">
<path d="M14.0779 80.3196C13.2963 79.905 12.8385 79.1499 12.2733 78.5247C10.3108 76.3515 8.61363 73.9745 7.1174 71.4566C4.43619 66.9484 2.57149 62.122 1.53445 56.9842C1.05851 54.6241 0.7989 52.2346 0.648161 49.8241C0.489047 47.2867 0.681658 44.7855 0.934287 42.269C1.25112 39.116 1.95178 36.0538 2.92461 33.0488C4.10959 29.3877 5.74679 25.9291 7.81248 22.6882C9.29615 20.3601 10.9724 18.173 12.8399 16.1268C15.3718 13.3521 18.2009 10.9333 21.3079 8.8397C24.0491 6.99314 26.9662 5.47458 30.0368 4.24215C32.9315 3.08089 35.9212 2.25183 38.9751 1.67678C40.7449 1.3432 42.5482 1.18827 44.3487 1.03195C46.4855 0.846319 48.621 0.911919 50.7453 1.06964C53.9123 1.30412 57.0387 1.84148 60.0968 2.72777C64.5813 4.0286 68.7852 5.93238 72.7086 8.481C75.6229 10.3736 78.2944 12.5496 80.7146 15.027C82.8235 17.1862 84.7008 19.5394 86.3589 22.0713C88.2613 24.9786 89.8162 28.0548 91.0389 31.3041C92.1931 34.3733 93.0041 37.5319 93.4758 40.7756C93.8233 43.1637 94.0648 45.5671 94.009 47.9762C93.8931 53.0287 93.1283 57.971 91.4646 62.7752C89.9641 67.1089 87.8915 71.1272 85.2424 74.858C84.8962 75.3452 84.4956 75.7918 84.1216 76.258C77.7124 74.2872 71.3269 72.2466 64.9818 70.0777C64.6148 69.952 64.2826 69.7064 63.8653 69.7483C63.3125 69.3895 62.6803 69.2207 62.0745 68.9876C61.6293 68.7545 61.1868 68.5158 60.7388 68.2883C59.6613 67.7412 58.8239 66.8996 57.985 66.0593C57.6556 65.3936 57.3276 64.7264 56.9982 64.0606C56.2808 61.4646 56.3408 58.8043 56.3506 56.1482C56.9019 55.3512 57.4798 54.571 57.9948 53.7517C58.373 53.1516 58.7834 52.5667 58.8839 51.8144C59.0583 50.5024 59.029 49.1807 59.1184 47.8645C59.3012 45.2056 59.3333 42.537 59.4366 39.8739C59.491 38.4851 59.565 37.0978 59.6306 35.7104C59.6864 34.5478 59.7032 33.3879 59.6124 32.2253C59.4031 29.5594 59.0444 26.9089 58.7094 24.2584C58.655 23.8257 58.7638 23.5759 59.1379 23.3568C59.6976 23.0274 60.2112 22.6198 60.7723 22.2904C61.138 22.0755 61.1854 21.8926 60.9538 21.5297C60.1512 20.2736 59.311 19.0467 58.32 17.9329C56.6409 16.0445 54.8097 14.3277 52.4453 13.3228C49.3077 11.9899 46.0598 12.0499 42.7896 12.7115C41.3618 13.0004 39.9814 13.447 38.601 14.1644C39.6925 14.833 40.703 15.4527 41.8447 16.152C41.5712 16.219 41.4679 16.2441 41.3632 16.2692C36.8354 17.3928 33.032 19.6148 30.2797 23.4824C29.8581 24.0742 29.7856 24.585 29.9321 25.2689C30.6928 28.8113 31.406 32.3634 32.1346 35.9114C31.9685 36.3915 31.54 36.1417 31.2357 36.2282C29.5329 36.7154 28.8365 37.7887 28.7513 39.726C28.6718 41.5348 29.1603 43.2544 29.9405 44.8818C30.235 45.4973 30.7626 45.8658 31.3962 46.1017C32.3104 46.4422 33.2526 46.6767 34.217 46.7996C34.7935 46.8721 35.0279 47.0759 35.0252 47.7165C35.0084 51.8912 35.0684 56.0645 34.8465 60.2363C34.7139 61.2133 34.6218 62.1973 34.4417 63.1646C34.1486 64.7264 33.9435 66.3231 32.9092 67.6435C32.5449 68.1083 32.0146 68.3776 31.6614 68.8396C30.6328 69.4412 29.6055 70.0428 28.5769 70.6443C28.0102 70.9695 27.3751 71.1775 26.8768 71.6213C26.7442 71.6548 26.6019 71.6674 26.4805 71.7246C23.1111 73.3353 19.6553 74.7394 16.1562 76.0416C15.8268 76.1645 15.7109 76.3864 15.5853 76.6739C15.0633 77.877 14.6949 79.1499 14.0779 80.3196Z" fill="#FAD5A1"/>
<path d="M57.3651 93.2597C54.7928 93.8263 52.1939 94.1474 49.5616 94.2828C48.3347 94.3456 47.1176 94.4307 45.8936 94.3218C46.1211 94.0874 46.0332 93.7929 46.0262 93.5249C45.9327 89.8625 45.8308 86.1987 45.7289 82.5362C45.7247 82.3743 45.68 82.2152 45.6758 82.0533C45.6423 80.5431 45.3465 79.019 46.3653 77.6414C47.1484 76.5834 47.5754 75.2979 48.3766 74.24C49.4318 75.5059 50.4325 76.8151 51.5379 78.0406C51.8827 78.4216 52.1144 78.4258 52.5038 78.1062C53.6455 77.1738 54.5848 76.0558 55.5297 74.9392C56.2472 74.0906 56.9143 73.196 57.7615 72.4646C57.7615 73.6356 57.7615 74.8067 57.7615 75.9777C57.6876 76.6141 57.6122 77.2506 57.7183 77.8898C57.6052 78.1313 57.6373 78.3909 57.6303 78.6449C57.5452 81.7784 57.4405 84.9104 57.3847 88.0438C57.3554 89.7829 57.2325 91.5206 57.3651 93.2597Z" fill="#EEEDE3"/>
<path d="M63.8651 69.7442C64.281 69.7037 64.6146 69.9494 64.9817 70.0736C71.3267 72.2426 77.7136 74.2831 84.1214 76.2539C82.9378 77.9818 81.4974 79.4864 80.0152 80.9478C76.6905 84.2236 72.9513 86.9355 68.8074 89.0863C68.5841 89.2022 68.3426 89.2873 68.1109 89.3864C66.7012 87.2202 64.9538 85.3136 63.4101 83.2493C63.0947 82.8264 62.9732 82.5459 63.3738 82.0672C64.9077 80.2318 66.3774 78.3433 67.8946 76.4926C68.2952 76.0041 68.3022 75.6105 67.8611 75.1555C67.4089 74.6893 66.9748 74.2008 66.5728 73.6913C65.5791 72.4394 64.5588 71.2027 63.8651 69.7442Z" fill="#826B63"/>
<path d="M40.4865 93.8124C39.5932 93.8878 38.7586 93.5695 37.903 93.4104C35.8862 93.0336 33.9056 92.5143 32.0004 91.7341C31.9209 91.702 31.8595 91.6267 31.7897 91.5722C31.7757 89.0725 31.7967 86.5713 31.7339 84.0729C31.6948 82.5265 31.8008 80.9758 31.6222 79.4335C31.6334 78.8389 31.6445 78.2457 31.6557 77.6512C31.6571 75.5003 31.6599 73.3481 31.6613 71.1973C31.7883 71.3285 31.9334 71.4457 32.0395 71.5909C33.3445 73.3928 34.6551 75.1905 35.935 77.0091C36.2211 77.4153 36.3775 77.3888 36.6859 77.0398C37.589 76.0154 38.5255 75.0216 39.4481 74.0167C40.2744 75.3817 41.0978 76.7495 41.9269 78.1131C42.1488 78.476 42.2535 78.818 42.1907 79.2828C41.9032 81.3666 41.6827 83.4588 41.4398 85.5482C41.1216 88.302 40.8047 91.0572 40.4865 93.8124Z" fill="#EEEDE3"/>
<path d="M40.4865 93.8125C40.8048 91.0573 41.1202 88.3021 41.4398 85.5469C41.6813 83.4575 41.9032 81.3653 42.1907 79.2815C42.2549 78.8181 42.1489 78.4761 41.9269 78.1119C41.0965 76.7482 40.2744 75.3818 39.4481 74.0154C41.0099 72.1911 42.5718 70.3683 44.1783 68.4924C45.5182 70.4925 46.9572 72.3586 48.3752 74.2387C47.5741 75.298 47.147 76.5835 46.364 77.6415C45.3451 79.0191 45.641 80.5432 45.6745 82.0534C45.6787 82.2153 45.7234 82.3744 45.7275 82.5363C45.8294 86.1988 45.9313 89.8612 46.0248 93.525C46.0318 93.793 46.1183 94.0875 45.8922 94.3219C44.0834 94.234 42.2731 94.1558 40.4865 93.8125Z" fill="#F89677"/>
<path d="M14.0779 80.3198C14.6948 79.1502 15.0633 77.8787 15.5853 76.67C15.7095 76.3825 15.8267 76.1606 16.1561 76.0377C19.6552 74.7369 23.1111 73.3314 26.4804 71.7207C26.6018 71.6635 26.7442 71.6509 26.8768 71.6174C26.8614 71.9887 26.6074 72.2455 26.4246 72.533C25.1447 74.5513 23.6191 76.3936 22.2415 78.3421C21.3218 79.6429 21.3427 79.6652 22.8375 80.3087C24.0658 80.8377 25.2801 81.4001 26.5962 81.9919C24.7343 83.5538 22.751 84.7346 20.8472 86.0284C20.0865 85.7241 19.5017 85.1575 18.8625 84.6773C17.3104 83.5105 15.8547 82.2278 14.4757 80.8614C14.3179 80.7037 14.0946 80.585 14.0779 80.3198Z" fill="#826B63"/>
<path d="M57.3651 93.2596C57.2325 91.5205 57.3554 89.7828 57.3861 88.0451C57.4419 84.9117 57.5466 81.7782 57.6317 78.6462C57.6387 78.3922 57.6066 78.134 57.7197 77.8911C57.8076 77.9637 57.9151 78.0223 57.9807 78.1116C60.9299 82.1034 64.2419 85.8203 66.9887 89.9656C64.1038 91.367 61.0778 92.3607 57.9667 93.1116C57.7657 93.1605 57.5661 93.2107 57.3651 93.2596Z" fill="#826B63"/>
<path d="M31.6237 79.4335C31.8023 80.9758 31.6963 82.5265 31.7353 84.0729C31.7995 86.5713 31.7772 89.0725 31.7912 91.5722C31.466 91.6895 31.2064 91.4843 30.9342 91.3824C27.9571 90.27 25.114 88.8854 22.4411 87.1603C22.4802 87.1101 22.564 87.0305 22.5528 87.0137C22.1983 86.4959 22.5109 86.2768 22.9255 86.013C25.816 84.1678 28.5447 82.1105 31.0472 79.7615C31.2105 79.608 31.3459 79.3916 31.6237 79.4335Z" fill="#826B63"/>
<path d="M66.9888 89.9658C64.2419 85.8205 60.9299 82.105 57.9807 78.1118C57.9151 78.0225 57.8076 77.9639 57.7197 77.8913C57.6136 77.2507 57.689 76.6142 57.7629 75.9791C57.795 76.0112 57.8327 76.0406 57.8606 76.0768C59.1782 77.781 60.4916 79.4894 61.8162 81.188C61.9795 81.3974 62.1414 81.7868 62.4889 81.3485C63.6976 79.823 64.9133 78.303 66.122 76.7789C66.5365 76.2569 66.5282 75.7084 66.1611 75.171C65.8484 74.7118 65.5065 74.2736 65.1771 73.8255C64.041 72.2776 62.8797 70.7451 62.0744 68.9851C62.6801 69.2168 63.3124 69.3871 63.8651 69.7458C64.5588 71.2057 65.5791 72.4423 66.5714 73.6957C66.9748 74.2052 67.4075 74.6937 67.8597 75.1598C68.3007 75.6135 68.2938 76.0085 67.8932 76.497C66.3774 78.3477 64.9077 80.2361 63.3724 82.0715C62.9718 82.5503 63.0933 82.8308 63.4087 83.2537C64.9524 85.318 66.6998 87.2246 68.1095 89.3908C67.7829 89.6699 67.3768 89.8011 66.9888 89.9658Z" fill="#111224"/>
<path d="M31.6236 79.4335C31.3458 79.393 31.2119 79.608 31.0486 79.7615C28.5446 82.1105 25.8159 84.1679 22.9268 86.013C22.5122 86.2782 22.1996 86.4959 22.5541 87.0138C22.5653 87.0291 22.4815 87.1101 22.4424 87.1603C21.8967 86.803 21.2868 86.5364 20.8485 86.0284C22.7523 84.7345 24.7356 83.5537 26.5976 81.9919C25.28 81.4001 24.0671 80.8376 22.8388 80.3086C21.3454 79.6652 21.3231 79.6429 22.2429 78.3421C23.6204 76.3936 25.146 74.5512 26.4259 72.533C26.6087 72.2455 26.8613 71.9887 26.8781 71.6174C27.3764 71.1722 28.0114 70.9656 28.5781 70.6404C28.8042 71.1624 28.359 71.4722 28.1608 71.8323C26.8139 74.2763 25.0273 76.4187 23.4041 78.6728C23.1026 79.0916 23.1822 79.2297 23.6051 79.407C24.7147 79.8746 25.8397 80.3184 26.9018 80.8795C27.4936 81.1922 27.8677 81.0679 28.3003 80.6687C29.4086 79.6513 30.5363 78.6547 31.6557 77.6498C31.6445 78.2444 31.6334 78.8389 31.6236 79.4335Z" fill="#111224"/>
<path d="M34.8478 60.2323C35.0697 56.0618 35.0097 51.8872 35.0264 47.7125C35.0292 47.0719 34.7947 46.8681 34.2183 46.7955C33.2538 46.6727 32.3117 46.4382 31.3975 46.0977C30.7652 45.8618 30.2363 45.4933 29.9418 44.8778C29.1615 43.2504 28.673 41.5308 28.7526 39.722C28.8377 37.7847 29.5342 36.7114 31.237 36.2242C31.5413 36.1377 31.9698 36.3875 32.1359 35.906C32.2154 36.0721 32.3006 36.1977 32.5155 36.2549C33.406 36.4922 33.8763 37.1622 34.2267 37.9591C34.3104 38.1504 34.2574 38.4309 34.5477 38.5426C35.7983 36.9207 37.0447 35.3003 38.298 33.6854C38.453 33.4858 38.4948 33.2778 38.4753 33.0364C38.3594 31.5778 38.3036 30.1081 38.0189 28.6719C37.7774 27.4548 38.1808 26.5029 39.0685 25.7534C40.4475 24.588 42.0595 24.0925 43.8656 24.3451C45.7275 24.6047 47.5448 25.0765 49.3676 25.5259C51.6357 26.0842 53.9052 26.6048 56.1677 25.4575C56.7874 25.1435 57.2396 25.5455 57.615 25.9781C58.1454 26.5909 58.3897 27.3474 58.5879 28.1164C58.9563 29.547 58.9256 31.0167 59.0205 32.4767C59.0917 33.5709 59.1364 34.6847 59.6305 35.7064C59.5649 37.0938 59.4909 38.4811 59.4365 39.8699C59.3332 42.5344 59.2997 45.203 59.1182 47.8605C59.0275 49.1753 59.0568 50.4984 58.8838 51.8104C58.7847 52.5627 58.3729 53.1475 57.9947 53.7477C57.4782 54.567 56.9018 55.3472 56.3505 56.1456C55.6638 56.7067 55.1599 57.438 54.5793 58.0954C53.8675 58.9022 53.0049 59.2623 51.9679 59.3767C50.5303 59.533 49.0913 59.5205 47.6509 59.5582C46.9781 59.5763 46.3766 59.4214 45.7806 59.1213C43.3897 57.9196 41.1272 56.5015 38.8354 55.1281C37.3224 54.2209 36.5506 52.8754 36.2477 51.1963C36.0314 49.9988 36.0453 48.7901 36.0579 47.5813C36.0607 47.3441 36.1681 46.9826 35.7997 46.9672C35.3782 46.9505 35.4689 47.3427 35.4759 47.5981C35.4996 48.4802 35.5121 49.3651 35.5931 50.243C35.8178 52.6939 36.732 54.7806 38.8591 56.1972C38.9931 56.2866 39.1145 56.3996 39.2262 56.5168C42.4559 59.9029 46.3403 62.1473 50.9015 63.2094C50.1506 63.61 49.3927 63.9994 48.6502 64.4139C47.1651 65.2444 45.6871 66.0902 44.2062 66.9304C44.1741 66.936 44.1448 66.9304 44.1183 66.9137C43.1412 66.0609 42.0512 65.363 41.0044 64.6065C38.961 63.134 36.9009 61.6881 34.8478 60.2323ZM44.1448 49.2465C45.7317 50.3142 47.3787 51.2354 49.1597 51.9179C50.2204 52.3241 51.3147 52.4762 52.4438 52.3911C53.9484 52.2766 55.072 51.562 55.8076 50.2374C56.0281 49.841 55.9764 49.5828 55.4921 49.4865C54.8557 49.3595 54.2248 49.2116 53.5702 49.1669C50.5959 48.9673 47.6202 49.1167 44.6458 49.0873C44.4881 49.0846 44.3165 49.0511 44.1448 49.2465ZM42.9905 34.0246C43.024 34.2897 43.1412 34.5912 43.4399 34.7727C43.7316 34.9499 44.0192 34.8774 44.2843 34.6861C45.2711 33.9785 46.3682 33.5891 47.5797 33.497C47.8505 33.476 48.1324 33.3993 48.3794 33.2834C48.7982 33.088 48.9 32.7042 48.8079 32.2827C48.7172 31.8598 48.4157 31.6267 47.9942 31.6909C46.4366 31.9268 44.8594 32.1152 43.5404 33.1145C43.2529 33.3351 43.0031 33.5584 42.9905 34.0246ZM44.7477 39.1288C44.7645 39.2279 44.7784 39.4875 44.8538 39.7275C45.1595 40.7046 45.9885 40.9209 46.7325 40.2286C47.4569 39.5545 47.7904 38.1127 47.4359 37.1887C47.0968 36.3038 46.3096 36.1098 45.6201 36.7672C44.9976 37.3618 44.7505 38.1238 44.7477 39.1288ZM51.0523 46.4396C53.3315 46.4871 54.7412 45.1151 54.5486 43.0215C54.5151 42.6516 54.4537 42.2943 53.9708 42.3222C53.4823 42.3501 53.4027 42.6823 53.4111 43.108C53.4432 44.5931 52.5332 45.457 51.0579 45.3412C50.5261 45.2993 49.9999 45.1974 49.4709 45.1388C49.1206 45.0997 48.7298 45.0509 48.6712 45.5533C48.6167 46.0167 48.8707 46.2261 49.3216 46.2624C49.9008 46.3084 50.4758 46.3796 51.0523 46.4396ZM32.9524 43.1862C32.9524 42.9545 32.9384 42.7926 32.9552 42.6335C33.0138 42.0612 32.6272 41.4108 33.2483 40.9376C33.0403 39.9592 32.8407 38.9669 32.14 38.2006C31.5804 37.5893 30.6271 37.7442 30.1762 38.4616C29.9585 38.8063 29.9264 39.0548 30.3451 39.3074C31.1463 39.7917 31.9139 40.3333 32.7249 40.8706C31.4603 41.6229 31.5371 42.3417 32.9524 43.1862ZM55.2855 33.3714C54.9017 33.3323 54.5374 33.4858 54.4369 33.9869C54.3448 34.4447 54.497 34.915 54.9589 34.9876C55.8969 35.1342 56.7162 35.4733 57.5117 35.9814C57.9277 36.2466 58.4273 36.093 58.7316 35.6492C59.0526 35.183 58.7442 34.8801 58.4134 34.5898C57.5411 33.8319 56.525 33.4411 55.2855 33.3714ZM57.6416 39.045C57.629 38.9138 57.6346 38.724 57.5899 38.5453C57.4866 38.1294 57.3261 37.733 56.8557 37.6144C56.384 37.4958 56.0378 37.7554 55.7754 38.0959C55.2018 38.8371 54.9966 39.6773 55.2716 40.5859C55.5228 41.4192 56.2598 41.5978 56.8837 40.9907C57.4126 40.477 57.6094 39.8197 57.6416 39.045Z" fill="#F89677"/>
<path d="M59.6318 35.7063C59.1377 34.6847 59.0945 33.5709 59.0219 32.4766C58.9256 31.0167 58.9577 29.547 58.5892 28.1163C58.391 27.3473 58.1468 26.5908 57.6164 25.9781C57.2409 25.5454 56.7887 25.1434 56.169 25.4575C53.9079 26.6047 51.6384 26.0841 49.369 25.5258C47.5461 25.0764 45.7289 24.6047 43.867 24.3451C42.0595 24.0938 40.4488 24.5879 39.0698 25.7533C38.1821 26.5029 37.7774 27.4548 38.0202 28.6718C38.3064 30.108 38.3622 31.5778 38.4766 33.0363C38.4962 33.2792 38.4543 33.4857 38.2994 33.6853C37.046 35.3002 35.801 36.9192 34.549 38.5425C34.2587 38.4308 34.3118 38.1503 34.228 37.9591C33.8791 37.1607 33.4073 36.4907 32.5169 36.2549C32.3019 36.1976 32.2168 36.072 32.1372 35.9059C31.4086 32.358 30.6954 28.8058 29.9347 25.2634C29.7882 24.5795 29.8608 24.0687 30.2823 23.4769C33.0347 19.6079 36.8381 17.3859 41.3658 16.2637C41.4691 16.2386 41.5738 16.2135 41.8473 16.1465C40.7042 15.4458 39.6937 14.8275 38.6037 14.159C39.9854 13.4416 41.3644 12.9949 42.7923 12.706C46.0625 12.0458 49.3104 11.9844 52.448 13.3173C54.8123 14.3223 56.6436 16.039 58.3226 17.9275C59.3136 19.0413 60.1538 20.2681 60.9564 21.5243C61.1881 21.8872 61.1406 22.07 60.7749 22.2849C60.2152 22.6129 59.7016 23.0219 59.1405 23.3513C58.7679 23.5704 58.6576 23.8203 58.712 24.2529C59.047 26.9048 59.4057 29.5539 59.6151 32.2198C59.7044 33.3838 59.6877 34.5437 59.6318 35.7063Z" fill="#111224"/>
<path d="M44.2062 66.929C45.6871 66.0902 47.1651 65.2444 48.6502 64.4125C49.3927 63.9966 50.1506 63.6086 50.9029 63.208C52.9128 63.6546 54.9394 63.9798 56.9995 64.0566C57.3275 64.7224 57.6569 65.3895 57.9863 66.0553C57.9542 67.2305 57.9319 68.4071 57.8844 69.5809C57.8663 70.0346 57.9793 70.5035 57.756 70.939C56.8292 71.6885 56.1188 72.6348 55.3777 73.5546C54.5346 74.6014 53.7056 75.6552 52.695 76.5582C52.2149 76.9867 51.9665 77.0314 51.5352 76.4619C49.1178 73.2629 46.6543 70.1029 44.2062 66.929Z" fill="#EEEDE3"/>
<path d="M34.8478 60.2324C36.9009 61.6896 38.961 63.1342 41.003 64.6067C42.0512 65.3618 43.1412 66.061 44.1169 66.9138C41.7664 69.8518 39.2471 72.6419 36.7502 75.4529C36.016 76.2806 36.0104 76.2778 35.2944 75.4432C34.8227 74.8946 34.4542 74.2777 34.1262 73.6357C33.7577 72.9127 33.4227 72.1716 33.0389 71.4569C32.6467 70.727 32.3131 69.9523 31.6613 69.394C31.6613 69.2084 31.6599 69.0228 31.6599 68.8371C32.0144 68.3751 32.5434 68.1058 32.9077 67.641C33.9433 66.3192 34.1471 64.7239 34.4402 63.1621C34.6245 62.192 34.7152 61.208 34.8478 60.2324Z" fill="#EEEDE3"/>
<path d="M57.756 70.9391C57.9793 70.5036 57.8662 70.0347 57.8844 69.5811C57.9304 68.4058 57.9542 67.2306 57.9863 66.0554C58.8251 66.8957 59.6626 67.7373 60.7401 68.2844C61.1881 68.5119 61.6305 68.7506 62.0758 68.9837C62.8797 70.7451 64.041 72.2762 65.1785 73.8241C65.5079 74.2721 65.8485 74.7118 66.1625 75.1696C66.5296 75.7069 66.538 76.2555 66.1234 76.7775C64.9133 78.3016 63.699 79.8216 62.4903 81.3471C62.1428 81.7854 61.9809 81.3974 61.8176 81.1866C60.493 79.488 59.1796 77.7796 57.8621 76.0754C57.8341 76.0391 57.7979 76.0098 57.7644 75.9777C57.7644 74.8067 57.7644 73.6357 57.7644 72.4646C57.883 71.9566 57.9584 71.4471 57.756 70.9391Z" fill="#826B63"/>
<path d="M56.9996 64.0566C54.9395 63.9799 52.9128 63.6561 50.903 63.208C46.3403 62.1459 42.4574 59.9015 39.2263 56.5155C39.1146 56.3982 38.9932 56.2852 38.8592 56.1959C36.7321 54.7792 35.8193 52.694 35.5932 50.2416C35.5122 49.3637 35.4996 48.4788 35.4759 47.5967C35.4689 47.3399 35.3782 46.9491 35.7997 46.9659C36.1668 46.9812 36.0607 47.3427 36.0579 47.58C36.0454 48.7887 36.0314 49.9974 36.2478 51.1949C36.5506 52.874 37.3225 54.2209 38.8355 55.1267C41.1272 56.5001 43.3897 57.9182 45.7806 59.1199C46.3766 59.42 46.9782 59.5749 47.6509 59.5568C49.0913 59.5191 50.5317 59.5331 51.9679 59.3753C53.005 59.2623 53.8675 58.9022 54.5794 58.0941C55.1586 57.4367 55.6638 56.7053 56.3505 56.1442C56.3422 58.8003 56.2808 61.4606 56.9996 64.0566Z" fill="#111224"/>
<path d="M31.6613 68.8357C31.6613 69.0213 31.6627 69.207 31.6627 69.3926C31.6627 69.9942 31.6613 70.5943 31.6613 71.1959C31.6599 73.3467 31.6571 75.4989 31.6557 77.6498C30.5363 78.6547 29.4085 79.6513 28.3003 80.6688C27.8663 81.0665 27.4936 81.1908 26.9018 80.8795C25.8396 80.3184 24.7147 79.8746 23.6051 79.407C23.1822 79.2283 23.1026 79.0902 23.4041 78.6729C25.0273 76.4187 26.8139 74.2763 28.1608 71.8323C28.3589 71.4722 28.8042 71.161 28.5781 70.6404C29.6053 70.0388 30.6326 69.4373 31.6613 68.8357Z" fill="#826B63"/>
<path d="M31.6627 71.1959C31.6627 70.5943 31.6641 69.9941 31.6641 69.3926C32.3159 69.9509 32.6495 70.7255 33.0417 71.4555C33.4255 72.1701 33.7605 72.9098 34.129 73.6342C34.4556 74.2763 34.8255 74.8932 35.2972 75.4417C36.0132 76.2764 36.0188 76.2791 36.753 75.4515C39.2499 72.6405 41.7692 69.8504 44.1197 66.9124C44.1476 66.9291 44.1769 66.9347 44.2076 66.9291C46.6557 70.103 49.1206 73.2644 51.5366 76.4606C51.9679 77.0314 52.2163 76.9868 52.6965 76.5569C53.707 75.6539 54.5361 74.6001 55.3791 73.5533C56.1188 72.6335 56.8306 71.6872 57.7574 70.9377C57.9612 71.4457 57.8844 71.9551 57.763 72.4646C56.9158 73.196 56.2486 74.0906 55.5312 74.9392C54.5863 76.0558 53.647 77.1738 52.5053 78.1062C52.1158 78.4244 51.8828 78.4216 51.5394 78.0406C50.434 76.8165 49.4332 75.5059 48.3781 74.24C46.96 72.3585 45.521 70.4924 44.1811 68.4923C42.5746 70.3682 41.0128 72.191 39.4509 74.0153C38.527 75.0216 37.5904 76.0154 36.6888 77.0384C36.3803 77.3874 36.224 77.4139 35.9379 77.0077C34.6566 75.1891 33.346 73.3914 32.0424 71.5895C31.9335 71.4443 31.7883 71.3271 31.6627 71.1959Z" fill="#111224"/>
<path d="M44.1448 49.2464C44.3151 49.0496 44.4881 49.0845 44.6458 49.0859C47.6202 49.1152 50.5973 48.9659 53.5702 49.1655C54.2234 49.2102 54.8543 49.3567 55.4921 49.4851C55.9764 49.5814 56.0281 49.841 55.8076 50.236C55.072 51.5606 53.9484 52.2738 52.4438 52.3896C51.3161 52.4762 50.2204 52.3226 49.1597 51.9165C47.3787 51.2368 45.7317 50.3156 44.1448 49.2464Z" fill="#FEFEFE"/>
<path d="M42.9905 34.0247C43.003 33.5585 43.2529 33.3352 43.5418 33.1161C44.8594 32.1153 46.4366 31.9283 47.9956 31.6924C48.4171 31.6282 48.7186 31.8613 48.8093 32.2842C48.9 32.7057 48.7981 33.0896 48.3808 33.285C48.1338 33.4008 47.8532 33.479 47.5811 33.4985C46.3696 33.5892 45.2711 33.9786 44.2857 34.6877C44.0205 34.8789 43.733 34.9501 43.4413 34.7742C43.1398 34.59 43.0226 34.2899 42.9905 34.0247Z" fill="#111224"/>
<path d="M44.7477 39.1288C44.7491 38.1238 44.9975 37.3618 45.62 36.7672C46.3095 36.1098 47.0967 36.3038 47.4359 37.1887C47.7904 38.1141 47.4568 39.5545 46.7324 40.2286C45.9885 40.9209 45.1594 40.7046 44.8538 39.7275C44.7784 39.4889 44.7644 39.2293 44.7477 39.1288Z" fill="#111224"/>
<path d="M51.0522 46.4398C50.4758 46.3797 49.8994 46.3086 49.3215 46.2625C48.8707 46.2262 48.6167 46.0168 48.6711 45.5535C48.7297 45.051 49.1191 45.0999 49.4709 45.1389C50.0012 45.1976 50.5274 45.2994 51.0578 45.3413C52.5331 45.4572 53.4431 44.5946 53.411 43.1081C53.4013 42.6824 53.4822 42.3503 53.9707 42.3223C54.4536 42.2944 54.515 42.6517 54.5485 43.0216C54.7412 45.1152 53.3315 46.4872 51.0522 46.4398Z" fill="#111224"/>
<path d="M32.9524 43.1861C31.5372 42.3431 31.4604 41.6229 32.7235 40.8706C31.9126 40.3332 31.1463 39.7917 30.3438 39.3074C29.9265 39.0547 29.9586 38.8077 30.1749 38.4615C30.6257 37.7441 31.5804 37.5878 32.1387 38.2005C32.8394 38.9668 33.039 39.9592 33.2469 40.9376C32.6258 41.4121 33.0124 42.0625 32.9538 42.6334C32.9385 42.7911 32.9524 42.953 32.9524 43.1861Z" fill="#111224"/>
<path d="M55.2855 33.3714C56.5249 33.4412 57.541 33.8306 58.412 34.5913C58.7428 34.8802 59.0512 35.1845 58.7302 35.6507C58.4259 36.0931 57.9249 36.2466 57.5103 35.9829C56.7148 35.4748 55.8955 35.1356 54.9575 34.9891C54.4955 34.9165 54.3448 34.4448 54.4355 33.9883C54.536 33.4859 54.9017 33.3337 55.2855 33.3714Z" fill="#111224"/>
<path d="M57.6416 39.045C57.6095 39.8196 57.4127 40.477 56.8837 40.9907C56.2598 41.5978 55.5228 41.4192 55.2716 40.5859C54.9966 39.6773 55.2032 38.837 55.7755 38.0959C56.0379 37.7553 56.384 37.4957 56.8558 37.6144C57.3261 37.733 57.4866 38.128 57.5899 38.5453C57.6346 38.724 57.6304 38.9138 57.6416 39.045Z" fill="#111224"/>
</g>
<defs>
<clipPath id="clip0_8_211">
<rect width="93.4278" height="93.4571" fill="white" transform="translate(0.59082 0.917725)"/>
</clipPath>
</defs>
</svg>
