<svg width="262" height="263" viewBox="0 0 262 263" fill="none" xmlns="http://www.w3.org/2000/svg">
<path d="M129.929 105.719C114.471 105.473 99.0235 101.831 85.5986 91.4981C82.3026 88.9567 81.2389 86.6459 82.4598 82.2181C86.5994 67.1479 90.1469 51.9152 93.6787 36.6825C94.407 33.528 95.7013 31.8774 98.8663 31.0128C105.201 29.2836 111.432 27.1562 117.678 25.1073C120.445 24.2008 122.645 24.2847 125.124 26.3964C130.752 31.191 131.061 31.191 136.605 26.5274C139.172 24.3685 141.426 24.1589 144.376 25.165C150.716 27.3291 157.077 29.4775 163.538 31.2381C166.206 31.9665 167.416 33.3551 168.008 35.8179C171.466 50.1703 174.962 64.5174 178.441 78.8645C178.588 79.4671 178.656 80.0907 178.802 80.6933C180.694 88.3803 180.741 88.4432 174.312 92.9706C161.338 102.109 146.66 105.583 129.929 105.719Z" fill="white"/>
<path d="M32.355 97.1469C44.6899 94.4745 56.459 91.9592 68.2123 89.3445C69.7529 88.9986 70.6699 89.4231 71.8331 90.3977C86.4737 102.659 103.347 109.513 122.373 111.195C147.923 113.454 170.586 106.464 190.331 90.12C191.478 89.1716 192.364 89.0773 193.663 89.3655C205.422 91.9488 217.191 94.4797 229.358 97.1154C219.444 102.722 209.839 108.14 200.25 113.579C186.29 121.492 172.478 129.63 158.026 136.677C138.371 146.267 119.397 144.768 100.365 135.084C78.729 124.075 58.2091 111.09 36.8404 99.6149C35.5304 98.9232 34.2414 98.1896 32.355 97.1469Z" fill="white"/>
<path d="M83.9532 144.857C115.341 158.413 146.755 158.298 178.195 145.203C171.152 157.202 168.223 170.565 160.405 181.464C153.918 190.508 144.999 197.042 136.573 204.053C131.035 208.665 130.846 208.659 125.349 204.085C115.781 196.115 105.652 188.695 98.9973 177.775C95.8585 172.629 93.4638 167.132 91.4621 161.51C89.6334 156.375 86.4475 152.062 83.9427 147.341C83.7227 146.922 83.6493 146.424 83.5078 145.957C83.6598 145.585 83.8065 145.219 83.9532 144.857Z" fill="#212121"/>
<path d="M118.165 236.63C100.313 218.243 78.6084 204.949 57.5698 190.77C52.5342 187.374 47.509 183.947 42.662 179.824C47.5719 176.475 52.2146 173.2 56.9777 170.114C58.8012 168.93 58.8956 168.186 57.3917 166.561C44.7056 152.827 32.1401 138.983 19.475 125.228C14.6385 119.978 14.6805 118.463 20.675 114.69C25.1971 111.845 29.8764 109.246 34.5872 106.474C35.9706 107.747 35.3103 109.66 35.6876 111.269C38.2919 122.236 43.3799 132.113 49.0706 141.682C62.9775 165.062 79.6355 186.478 96.414 207.821C103.839 217.269 111.814 226.287 118.705 236.154C118.527 236.306 118.349 236.468 118.165 236.63Z" fill="white"/>
<path d="M226.853 106.254C232.182 109.377 237.307 112.123 242.159 115.293C247.006 118.463 247.069 120.156 243.176 124.405C230.385 138.37 217.605 152.345 204.746 166.241C203.153 167.96 202.797 168.867 205.097 170.297C209.829 173.247 214.361 176.507 219.36 179.897C194.916 198.625 167.385 212.694 145.654 234.692C145.371 234.341 145.088 233.989 144.8 233.644C150.821 226.114 156.852 218.589 162.857 211.043C180.605 188.747 198.154 166.299 212.737 141.739C218.448 132.124 223.798 122.283 226.12 111.159C226.424 109.702 226.565 108.208 226.853 106.254Z" fill="white"/>
<path d="M136.112 237.778C137.805 227.502 139.356 218.144 140.865 208.78C141.074 207.48 142.107 206.993 142.94 206.275C152.681 197.854 162.197 189.14 168.354 177.649C173.625 167.803 178.163 157.559 183.036 147.498C186.018 141.341 189.015 135.195 192.002 129.038C192.489 128.037 192.846 127.067 194.229 126.821C201.57 125.511 208.77 123.588 215.97 121.67C216.41 121.555 216.923 121.717 217.746 121.775C214.524 130.405 209.933 138.05 205.196 145.596C188.947 171.471 169.947 195.334 150.978 219.218C146.246 225.171 141.473 231.092 136.112 237.778Z" fill="white"/>
<path d="M122.923 236.29C94.4962 199.384 63.3706 164.376 41.808 121.13C47.8183 122.571 52.6705 123.735 57.5227 124.903C58.3664 125.107 59.21 125.474 60.0537 125.485C66.4884 125.563 69.1398 129.651 71.5188 135.006C77.0679 147.509 83.2878 159.712 89.1042 172.1C95.1774 185.032 104.615 195.25 115.336 204.305C118.485 206.962 119.8 209.844 120.356 213.669C121.43 221.104 122.818 228.498 124.076 235.913C123.693 236.038 123.311 236.164 122.923 236.29Z" fill="white"/>
<path d="M118.71 236.148C119.386 236.374 119.711 237.013 119.218 237.406C118.49 237.982 118.521 236.908 118.165 236.63C118.349 236.468 118.527 236.306 118.71 236.148Z" fill="white"/>
</svg>
