<svg width="262" height="263" viewBox="0 0 262 263" fill="none" xmlns="http://www.w3.org/2000/svg">
<path d="M129.947 105.719C114.489 105.473 99.0413 101.831 85.6164 91.4981C82.3205 88.9567 81.2567 86.6459 82.4777 82.2181C86.6173 67.1479 90.1647 51.9152 93.6965 36.6825C94.4249 33.528 95.7191 31.8774 98.8841 31.0128C105.219 29.2836 111.45 27.1562 117.696 25.1073C120.462 24.2008 122.663 24.2847 125.142 26.3964C130.77 31.191 131.079 31.191 136.623 26.5274C139.19 24.3685 141.443 24.1589 144.394 25.165C150.734 27.3291 157.095 29.4775 163.556 31.2381C166.223 31.9665 167.434 33.3551 168.026 35.8179C171.484 50.1703 174.979 64.5174 178.459 78.8645C178.605 79.4671 178.674 80.0907 178.82 80.6933C180.712 88.3803 180.759 88.4432 174.33 92.9706C161.355 102.109 146.678 105.583 129.947 105.719Z" fill="#212121"/>
<path d="M32.3728 97.1469C44.7078 94.4745 56.4768 91.9592 68.2301 89.3445C69.7707 88.9986 70.6877 89.4231 71.851 90.3977C86.4915 102.659 103.364 109.513 122.391 111.195C147.941 113.454 170.604 106.464 190.348 90.12C191.496 89.1716 192.381 89.0773 193.681 89.3655C205.44 91.9488 217.209 94.4797 229.376 97.1154C219.462 102.722 209.857 108.14 200.268 113.579C186.308 121.492 172.496 129.63 158.044 136.677C138.388 146.267 119.414 144.768 100.383 135.084C78.7468 124.075 58.227 111.09 36.8582 99.6149C35.5482 98.9232 34.2592 98.1896 32.3728 97.1469Z" fill="#212121"/>
<path d="M83.971 144.857C115.359 158.413 146.772 158.298 178.212 145.203C171.17 157.202 168.241 170.565 160.423 181.464C153.936 190.508 145.017 197.042 136.591 204.053C131.052 208.665 130.864 208.659 125.367 204.085C115.799 196.115 105.67 188.695 99.0151 177.775C95.8763 172.629 93.4816 167.132 91.48 161.51C89.6512 156.375 86.4653 152.062 83.9606 147.341C83.7405 146.922 83.6671 146.424 83.5256 145.957C83.6776 145.585 83.8243 145.219 83.971 144.857Z" fill="#212121"/>
<path d="M118.183 236.63C100.33 218.243 78.6263 204.949 57.5877 190.77C52.552 187.374 47.5269 183.947 42.6799 179.824C47.5898 176.475 52.2324 173.2 56.9955 170.114C58.8191 168.93 58.9134 168.186 57.4095 166.561C44.7235 152.827 32.158 138.983 19.4929 125.228C14.6564 119.978 14.6983 118.463 20.6928 114.69C25.215 111.845 29.8943 109.246 34.605 106.474C35.9884 107.747 35.3282 109.66 35.7054 111.269C38.3097 122.236 43.3978 132.113 49.0884 141.682C62.9953 165.062 79.6533 186.478 96.4318 207.821C103.857 217.269 111.832 226.287 118.723 236.154C118.545 236.306 118.366 236.468 118.183 236.63Z" fill="white"/>
<path d="M226.871 106.254C232.2 109.377 237.325 112.123 242.177 115.293C247.024 118.463 247.087 120.156 243.194 124.405C230.403 138.37 217.622 152.345 204.763 166.241C203.171 167.96 202.814 168.867 205.115 170.297C209.846 173.247 214.379 176.507 219.378 179.897C194.933 198.625 167.402 212.694 145.672 234.692C145.389 234.341 145.106 233.989 144.818 233.644C150.839 226.114 156.87 218.589 162.875 211.043C180.623 188.747 198.172 166.299 212.754 141.739C218.466 132.124 223.816 122.283 226.137 111.159C226.441 109.702 226.583 108.208 226.871 106.254Z" fill="white"/>
<path d="M136.13 237.778C137.823 227.502 139.374 218.144 140.883 208.78C141.092 207.48 142.125 206.993 142.958 206.275C152.699 197.854 162.215 189.14 168.372 177.649C173.643 167.803 178.181 157.559 183.054 147.498C186.036 141.341 189.033 135.195 192.02 129.038C192.507 128.037 192.864 127.067 194.247 126.821C201.588 125.511 208.788 123.588 215.988 121.67C216.428 121.555 216.941 121.717 217.764 121.775C214.541 130.405 209.951 138.05 205.214 145.596C188.965 171.471 169.965 195.334 150.996 219.218C146.264 225.171 141.491 231.092 136.13 237.778Z" fill="white"/>
<path d="M122.941 236.29C94.5139 199.384 63.3883 164.376 41.8257 121.13C47.836 122.571 52.6882 123.735 57.5404 124.903C58.3841 125.107 59.2277 125.474 60.0714 125.485C66.5061 125.563 69.1575 129.651 71.5365 135.006C77.0856 147.509 83.3055 159.712 89.1219 172.1C95.1951 185.032 104.632 195.25 115.353 204.305C118.503 206.962 119.818 209.844 120.373 213.669C121.447 221.104 122.836 228.498 124.094 235.913C123.711 236.038 123.329 236.164 122.941 236.29Z" fill="white"/>
<path d="M118.728 236.148C119.404 236.374 119.729 237.013 119.236 237.406C118.508 237.982 118.539 236.908 118.183 236.63C118.367 236.468 118.545 236.306 118.728 236.148Z" fill="white"/>
</svg>
