<svg width="32" height="32" viewBox="0 0 32 32" fill="none" xmlns="http://www.w3.org/2000/svg">
<path d="M12.1153 4.20962C12.265 3.74896 12.9167 3.74896 13.0663 4.20962L14.9482 10.0014C15.0152 10.2074 15.2071 10.3469 15.4237 10.3469H21.5136C21.998 10.3469 22.1993 10.9667 21.8075 11.2514L16.8807 14.8309C16.7055 14.9583 16.6321 15.1839 16.6991 15.39L18.5809 21.1818C18.7306 21.6424 18.2034 22.0255 17.8115 21.7408L12.8847 18.1612C12.7095 18.0339 12.4722 18.0339 12.2969 18.1612L7.37013 21.7408C6.97827 22.0255 6.45104 21.6424 6.60071 21.1818L8.48258 15.39C8.54952 15.1839 8.47619 14.9583 8.30094 14.8309L3.37415 11.2514C2.98229 10.9667 3.18368 10.3469 3.66804 10.3469H9.7579C9.97451 10.3469 10.1665 10.2074 10.2334 10.0014L12.1153 4.20962Z" fill="#EF7420"/>
</svg>
