<svg width="32" height="32" viewBox="0 0 32 32" fill="none" xmlns="http://www.w3.org/2000/svg">
<path d="M11.5979 4.2095C11.7475 3.74885 12.3993 3.74885 12.5489 4.20951L14.4308 10.0013C14.4977 10.2073 14.6897 10.3468 14.9063 10.3468H20.9962C21.4805 10.3468 21.6819 10.9666 21.2901 11.2513L16.3633 14.8308C16.188 14.9582 16.1147 15.1838 16.1816 15.3898L18.0635 21.1816C18.2132 21.6423 17.6859 22.0254 17.2941 21.7407L12.3673 18.1611C12.192 18.0338 11.9547 18.0338 11.7795 18.1611L6.85271 21.7407C6.46085 22.0254 5.93361 21.6423 6.08329 21.1816L7.96516 15.3898C8.03209 15.1838 7.95876 14.9582 7.78352 14.8308L2.85672 11.2513C2.46487 10.9666 2.66626 10.3468 3.15062 10.3468H9.24047C9.45709 10.3468 9.64906 10.2073 9.716 10.0013L11.5979 4.2095Z" fill="#EF7420"/>
</svg>
