<svg width="32" height="32" viewBox="0 0 32 32" fill="none" xmlns="http://www.w3.org/2000/svg">
<path d="M11.7789 4.20962C11.9285 3.74896 12.5802 3.74896 12.7299 4.20962L14.6118 10.0014C14.6787 10.2074 14.8707 10.3469 15.0873 10.3469H21.1772C21.6615 10.3469 21.8629 10.9667 21.4711 11.2514L16.5443 14.8309C16.369 14.9583 16.2957 15.1839 16.3626 15.39L18.2445 21.1818C18.3942 21.6424 17.8669 22.0255 17.4751 21.7408L12.5483 18.1612C12.373 18.0339 12.1357 18.0339 11.9605 18.1612L7.03371 21.7408C6.64185 22.0255 6.11461 21.6424 6.26429 21.1818L8.14615 15.39C8.21309 15.1839 8.13976 14.9583 7.96452 14.8309L3.03772 11.2514C2.64586 10.9667 2.84725 10.3469 3.33161 10.3469H9.42147C9.63808 10.3469 9.83006 10.2074 9.897 10.0014L11.7789 4.20962Z" fill="#EF7420"/>
</svg>
