<svg width="32" height="32" viewBox="0 0 32 32" fill="none" xmlns="http://www.w3.org/2000/svg">
<path d="M11.8516 4.20962C12.0013 3.74896 12.653 3.74896 12.8027 4.20962L14.6845 10.0014C14.7515 10.2074 14.9435 10.3469 15.1601 10.3469H21.2499C21.7343 10.3469 21.9357 10.9667 21.5438 11.2514L16.617 14.8309C16.4418 14.9583 16.3685 15.1839 16.4354 15.39L18.3173 21.1818C18.4669 21.6424 17.9397 22.0255 17.5478 21.7408L12.621 18.1612C12.4458 18.0339 12.2085 18.0339 12.0333 18.1612L7.10646 21.7408C6.7146 22.0255 6.18736 21.6424 6.33704 21.1818L8.21891 15.39C8.28584 15.1839 8.21252 14.9583 8.03727 14.8309L3.11047 11.2514C2.71862 10.9667 2.92001 10.3469 3.40437 10.3469H9.49422C9.71084 10.3469 9.90281 10.2074 9.96975 10.0014L11.8516 4.20962Z" fill="#EF7420"/>
</svg>
