<svg width="32" height="32" viewBox="0 0 32 32" fill="none" xmlns="http://www.w3.org/2000/svg">
<path d="M12.2422 4.20962C12.3919 3.74896 13.0436 3.74896 13.1933 4.20962L15.0752 10.0014C15.1421 10.2074 15.3341 10.3469 15.5507 10.3469H21.6406C22.1249 10.3469 22.3263 10.9667 21.9344 11.2514L17.0076 14.8309C16.8324 14.9583 16.7591 15.1839 16.826 15.39L18.7079 21.1818C18.8576 21.6424 18.3303 22.0255 17.9385 21.7408L13.0117 18.1612C12.8364 18.0339 12.5991 18.0339 12.4239 18.1612L7.49708 21.7408C7.10523 22.0255 6.57799 21.6424 6.72766 21.1818L8.60953 15.39C8.67647 15.1839 8.60314 14.9583 8.4279 14.8309L3.5011 11.2514C3.10924 10.9667 3.31063 10.3469 3.79499 10.3469H9.88485C10.1015 10.3469 10.2934 10.2074 10.3604 10.0014L12.2422 4.20962Z" fill="#EF7420"/>
</svg>
