<svg width="32" height="32" viewBox="0 0 32 32" fill="none" xmlns="http://www.w3.org/2000/svg">
<path d="M12.2612 4.20962C12.4108 3.74896 13.0625 3.74896 13.2122 4.20962L15.0941 10.0014C15.161 10.2074 15.353 10.3469 15.5696 10.3469H21.6595C22.1438 10.3469 22.3452 10.9667 21.9534 11.2514L17.0266 14.8309C16.8513 14.9583 16.778 15.1839 16.8449 15.39L18.7268 21.1818C18.8765 21.6424 18.3492 22.0255 17.9574 21.7408L13.0306 18.1612C12.8553 18.0339 12.618 18.0339 12.4428 18.1612L7.51601 21.7408C7.12415 22.0255 6.59691 21.6424 6.74658 21.1818L8.62845 15.39C8.69539 15.1839 8.62206 14.9583 8.44682 14.8309L3.52002 11.2514C3.12816 10.9667 3.32955 10.3469 3.81391 10.3469H9.90377C10.1204 10.3469 10.3124 10.2074 10.3793 10.0014L12.2612 4.20962Z" fill="#EF7420"/>
</svg>
