<svg width="32" height="32" viewBox="0 0 32 32" fill="none" xmlns="http://www.w3.org/2000/svg">
<path d="M12.315 4.20962C12.4647 3.74896 13.1164 3.74896 13.2661 4.20962L15.1479 10.0014C15.2149 10.2074 15.4068 10.3469 15.6235 10.3469H21.7133C22.1977 10.3469 22.3991 10.9667 22.0072 11.2514L17.0804 14.8309C16.9052 14.9583 16.8318 15.1839 16.8988 15.39L18.7806 21.1818C18.9303 21.6424 18.4031 22.0255 18.0112 21.7408L13.0844 18.1612C12.9092 18.0339 12.6719 18.0339 12.4966 18.1612L7.56984 21.7408C7.17798 22.0255 6.65074 21.6424 6.80042 21.1818L8.68229 15.39C8.74922 15.1839 8.67589 14.9583 8.50065 14.8309L3.57385 11.2514C3.182 10.9667 3.38339 10.3469 3.86775 10.3469H9.9576C10.1742 10.3469 10.3662 10.2074 10.4331 10.0014L12.315 4.20962Z" fill="#EF7420"/>
</svg>
