<svg width="32" height="32" viewBox="0 0 32 32" fill="none" xmlns="http://www.w3.org/2000/svg">
<path d="M11.6518 4.20962C11.8015 3.74896 12.4532 3.74896 12.6028 4.20962L14.4847 10.0014C14.5517 10.2074 14.7436 10.3469 14.9602 10.3469H21.0501C21.5345 10.3469 21.7358 10.9667 21.344 11.2514L16.4172 14.8309C16.242 14.9583 16.1686 15.1839 16.2356 15.39L18.1174 21.1818C18.2671 21.6424 17.7399 22.0255 17.348 21.7408L12.4212 18.1612C12.246 18.0339 12.0087 18.0339 11.8334 18.1612L6.90663 21.7408C6.51477 22.0255 5.98753 21.6424 6.13721 21.1818L8.01908 15.39C8.08602 15.1839 8.01269 14.9583 7.83744 14.8309L2.91065 11.2514C2.51879 10.9667 2.72018 10.3469 3.20454 10.3469H9.29439C9.51101 10.3469 9.70298 10.2074 9.76992 10.0014L11.6518 4.20962Z" fill="#EF7420"/>
</svg>
