<svg width="32" height="32" viewBox="0 0 32 32" fill="none" xmlns="http://www.w3.org/2000/svg">
<path d="M11.6709 4.2095C11.8205 3.74885 12.4722 3.74885 12.6219 4.20951L14.5038 10.0013C14.5707 10.2073 14.7627 10.3468 14.9793 10.3468H21.0692C21.5535 10.3468 21.7549 10.9666 21.3631 11.2513L16.4363 14.8308C16.261 14.9582 16.1877 15.1838 16.2546 15.3898L18.1365 21.1816C18.2862 21.6423 17.7589 22.0254 17.3671 21.7407L12.4403 18.1611C12.265 18.0338 12.0277 18.0338 11.8525 18.1611L6.92571 21.7407C6.53385 22.0254 6.00661 21.6423 6.15629 21.1816L8.03815 15.3898C8.10509 15.1838 8.03176 14.9582 7.85652 14.8308L2.92972 11.2513C2.53786 10.9666 2.73925 10.3468 3.22362 10.3468H9.31347C9.53008 10.3468 9.72206 10.2073 9.789 10.0013L11.6709 4.2095Z" fill="#EF7420"/>
</svg>
