<svg width="32" height="32" viewBox="0 0 32 32" fill="none" xmlns="http://www.w3.org/2000/svg">
<path d="M11.7248 4.20962C11.8745 3.74896 12.5262 3.74896 12.6758 4.20962L14.5577 10.0014C14.6247 10.2074 14.8166 10.3469 15.0332 10.3469H21.1231C21.6075 10.3469 21.8088 10.9667 21.417 11.2514L16.4902 14.8309C16.3149 14.9583 16.2416 15.1839 16.3086 15.39L18.1904 21.1818C18.3401 21.6424 17.8129 22.0255 17.421 21.7408L12.4942 18.1612C12.319 18.0339 12.0817 18.0339 11.9064 18.1612L6.97963 21.7408C6.58777 22.0255 6.06053 21.6424 6.21021 21.1818L8.09208 15.39C8.15901 15.1839 8.08568 14.9583 7.91044 14.8309L2.98364 11.2514C2.59179 10.9667 2.79318 10.3469 3.27754 10.3469H9.36739C9.58401 10.3469 9.77598 10.2074 9.84292 10.0014L11.7248 4.20962Z" fill="#EF7420"/>
</svg>
