<svg width="32" height="32" viewBox="0 0 32 32" fill="none" xmlns="http://www.w3.org/2000/svg">
<path d="M11.5249 4.2095C11.6745 3.74885 12.3263 3.74885 12.4759 4.20951L14.3578 10.0013C14.4247 10.2073 14.6167 10.3468 14.8333 10.3468H20.9232C21.4075 10.3468 21.6089 10.9666 21.2171 11.2513L16.2903 14.8308C16.115 14.9582 16.0417 15.1838 16.1086 15.3898L17.9905 21.1816C18.1402 21.6423 17.6129 22.0254 17.2211 21.7407L12.2943 18.1611C12.119 18.0338 11.8818 18.0338 11.7065 18.1611L6.77971 21.7407C6.38785 22.0254 5.86061 21.6423 6.01029 21.1816L7.89216 15.3898C7.9591 15.1838 7.88577 14.9582 7.71052 14.8308L2.78373 11.2513C2.39187 10.9666 2.59326 10.3468 3.07762 10.3468H9.16747C9.38409 10.3468 9.57606 10.2073 9.643 10.0013L11.5249 4.2095Z" fill="#EF7420"/>
</svg>
