<svg width="32" height="32" viewBox="0 0 32 32" fill="none" xmlns="http://www.w3.org/2000/svg">
<path d="M11.7056 4.20962C11.8553 3.74896 12.507 3.74896 12.6567 4.20962L14.5385 10.0014C14.6055 10.2074 14.7975 10.3469 15.0141 10.3469H21.1039C21.5883 10.3469 21.7897 10.9667 21.3978 11.2514L16.471 14.8309C16.2958 14.9583 16.2225 15.1839 16.2894 15.39L18.1713 21.1818C18.3209 21.6424 17.7937 22.0255 17.4018 21.7408L12.475 18.1612C12.2998 18.0339 12.0625 18.0339 11.8873 18.1612L6.96046 21.7408C6.56861 22.0255 6.04137 21.6424 6.19104 21.1818L8.07291 15.39C8.13985 15.1839 8.06652 14.9583 7.89128 14.8309L2.96448 11.2514C2.57262 10.9667 2.77401 10.3469 3.25837 10.3469H9.34823C9.56484 10.3469 9.75682 10.2074 9.82376 10.0014L11.7056 4.20962Z" fill="#EF7420"/>
</svg>
