<svg width="32" height="32" viewBox="0 0 32 32" fill="none" xmlns="http://www.w3.org/2000/svg">
<path d="M12.0614 4.2095C12.211 3.74885 12.8628 3.74885 13.0124 4.20951L14.8943 10.0013C14.9612 10.2073 15.1532 10.3468 15.3698 10.3468H21.4597C21.944 10.3468 22.1454 10.9666 21.7536 11.2513L16.8268 14.8308C16.6515 14.9582 16.5782 15.1838 16.6451 15.3898L18.527 21.1816C18.6767 21.6423 18.1494 22.0254 17.7576 21.7407L12.8308 18.1611C12.6555 18.0338 12.4183 18.0338 12.243 18.1611L7.31621 21.7407C6.92435 22.0254 6.39711 21.6423 6.54679 21.1816L8.42866 15.3898C8.49559 15.1838 8.42227 14.9582 8.24702 14.8308L3.32022 11.2513C2.92837 10.9666 3.12976 10.3468 3.61412 10.3468H9.70397C9.92059 10.3468 10.1126 10.2073 10.1795 10.0013L12.0614 4.2095Z" fill="#EF7420"/>
</svg>
