<svg width="32" height="32" viewBox="0 0 32 32" fill="none" xmlns="http://www.w3.org/2000/svg">
<path d="M12.1344 4.2095C12.284 3.74885 12.9357 3.74885 13.0854 4.20951L14.9673 10.0013C15.0342 10.2073 15.2262 10.3468 15.4428 10.3468H21.5327C22.017 10.3468 22.2184 10.9666 21.8266 11.2513L16.8998 14.8308C16.7245 14.9582 16.6512 15.1838 16.7181 15.3898L18.6 21.1816C18.7497 21.6423 18.2224 22.0254 17.8306 21.7407L12.9038 18.1611C12.7285 18.0338 12.4912 18.0338 12.316 18.1611L7.38921 21.7407C6.99735 22.0254 6.47011 21.6423 6.61979 21.1816L8.50166 15.3898C8.56859 15.1838 8.49526 14.9582 8.32002 14.8308L3.39322 11.2513C3.00137 10.9666 3.20275 10.3468 3.68712 10.3468H9.77697C9.99358 10.3468 10.1856 10.2073 10.2525 10.0013L12.1344 4.2095Z" fill="#EF7420"/>
</svg>
