<svg width="32" height="32" viewBox="0 0 32 32" fill="none" xmlns="http://www.w3.org/2000/svg">
<path d="M12.1883 4.20962C12.338 3.74896 12.9897 3.74896 13.1393 4.20962L15.0212 10.0014C15.0882 10.2074 15.2801 10.3469 15.4967 10.3469H21.5866C22.071 10.3469 22.2723 10.9667 21.8805 11.2514L16.9537 14.8309C16.7785 14.9583 16.7051 15.1839 16.7721 15.39L18.6539 21.1818C18.8036 21.6424 18.2764 22.0255 17.8845 21.7408L12.9577 18.1612C12.7825 18.0339 12.5452 18.0339 12.3699 18.1612L7.44313 21.7408C7.05127 22.0255 6.52403 21.6424 6.67371 21.1818L8.55558 15.39C8.62251 15.1839 8.54919 14.9583 8.37394 14.8309L3.44714 11.2514C3.05529 10.9667 3.25668 10.3469 3.74104 10.3469H9.83089C10.0475 10.3469 10.2395 10.2074 10.3064 10.0014L12.1883 4.20962Z" fill="#EF7420"/>
</svg>
