<svg width="852" height="69" viewBox="0 0 852 69" fill="none" xmlns="http://www.w3.org/2000/svg">
<path d="M5.33682 17.3824L0 1.08973V0.877523H2.16294L3.50302 5.16879L6.25372 13.6334L10.3915 3.82482H11.8021L15.9399 13.6334L18.6671 5.12163L20.0307 0.877523H22.1702V1.08973L16.8098 17.3824H15.3052L12.9071 11.5585L11.0733 7.17295L9.23952 11.5585L6.86499 17.3824H5.33682Z" fill="#616771"/>
<path d="M28.8922 17.5946C25.1776 17.5946 22.4975 14.9067 22.4975 11.1341C22.4975 7.36157 25.1776 4.67364 28.8922 4.67364C32.7949 4.67364 35.5456 7.47947 35.3105 11.8179H24.5899C24.8485 14.1286 26.5412 15.7083 28.8922 15.7083C30.632 15.7083 32.0896 14.9538 32.7714 13.6334H34.9344C34.0645 16.0856 31.7605 17.5946 28.8922 17.5946ZM24.6369 10.0967H33.2181C32.7949 8.04535 31.1257 6.55991 28.8922 6.55991C26.6823 6.55991 25.0366 7.95103 24.6369 10.0967Z" fill="#616771"/>
<path d="M50.0595 17.4531C47.2148 17.4531 45.8982 16.2035 45.8982 13.4684V6.55991H43.2886V4.88585H45.8982V1.93855L47.8966 1.72635V4.88585H51.3291V6.55991H47.8966V13.2326C47.8966 14.8831 48.5549 15.5904 50.2946 15.5904C50.6473 15.5904 51.0705 15.5668 51.4937 15.5197V17.3824C50.9999 17.4295 50.4827 17.4531 50.0595 17.4531Z" fill="#616771"/>
<path d="M59.8266 17.5946C56.159 17.5946 53.5728 14.8831 53.5728 11.1341C53.5728 7.38515 56.159 4.67364 59.8266 4.67364C61.7544 4.67364 63.3766 5.42815 64.4816 6.65422V4.88585H66.48V17.3824H64.4816V15.614C63.3766 16.8401 61.7544 17.5946 59.8266 17.5946ZM55.6182 11.1341C55.6182 13.822 57.4755 15.7083 60.0617 15.7083C62.6478 15.7083 64.5286 13.822 64.5286 11.1341C64.5286 8.44618 62.6478 6.55991 60.0617 6.55991C57.4755 6.55991 55.6182 8.44618 55.6182 11.1341Z" fill="#616771"/>
<path d="M78.7411 17.3824L73.4983 11.4171V10.8748L78.459 4.88585H80.8335V5.00374L75.6848 11.087L81.2332 17.2645V17.3824H78.7411ZM70.8181 17.3824V0.877523H72.8165V17.3824H70.8181Z" fill="#616771"/>
<path d="M88.7432 17.5946C85.0286 17.5946 82.3484 14.9067 82.3484 11.1341C82.3484 7.36157 85.0286 4.67364 88.7432 4.67364C92.6459 4.67364 95.3966 7.47947 95.1615 11.8179H84.4409C84.6995 14.1286 86.3922 15.7083 88.7432 15.7083C90.483 15.7083 91.9406 14.9538 92.6224 13.6334H94.7854C93.9155 16.0856 91.6115 17.5946 88.7432 17.5946ZM84.4879 10.0967H93.0691C92.6459 8.04535 90.9767 6.55991 88.7432 6.55991C86.5333 6.55991 84.8876 7.95103 84.4879 10.0967Z" fill="#616771"/>
<path d="M105.796 4.41428C105.796 2.00929 107.113 0.64174 109.863 0.64174C110.334 0.64174 110.827 0.688898 111.392 0.759632V2.38654C110.945 2.33938 110.545 2.3158 110.193 2.3158C108.312 2.3158 107.795 2.976 107.795 4.48501V4.88585H111.274V6.55991H107.795V17.3824H105.796V6.55991H103.257V4.88585H105.796V4.41428Z" fill="#616771"/>
<path d="M119.084 17.5946C115.369 17.5946 112.689 14.9067 112.689 11.1341C112.689 7.36157 115.369 4.67364 119.084 4.67364C122.987 4.67364 125.737 7.47947 125.502 11.8179H114.782C115.04 14.1286 116.733 15.7083 119.084 15.7083C120.824 15.7083 122.281 14.9538 122.963 13.6334H125.126C124.256 16.0856 121.952 17.5946 119.084 17.5946ZM114.829 10.0967H123.41C122.987 8.04535 121.317 6.55991 119.084 6.55991C116.874 6.55991 115.228 7.95103 114.829 10.0967Z" fill="#616771"/>
<path d="M134.287 17.5946C130.572 17.5946 127.892 14.9067 127.892 11.1341C127.892 7.36157 130.572 4.67364 134.287 4.67364C138.189 4.67364 140.94 7.47947 140.705 11.8179H129.984C130.243 14.1286 131.936 15.7083 134.287 15.7083C136.027 15.7083 137.484 14.9538 138.166 13.6334H140.329C139.459 16.0856 137.155 17.5946 134.287 17.5946ZM130.031 10.0967H138.613C138.189 8.04535 136.52 6.55991 134.287 6.55991C132.077 6.55991 130.431 7.95103 130.031 10.0967Z" fill="#616771"/>
<path d="M157.076 17.5946C155.125 17.5946 153.479 16.8401 152.374 15.5433V17.3824H150.376V0.877523H152.374V6.72496C153.479 5.42815 155.125 4.67364 157.076 4.67364C160.72 4.67364 163.33 7.38515 163.33 11.1341C163.33 14.8831 160.72 17.5946 157.076 17.5946ZM152.327 11.1341C152.327 13.822 154.208 15.7083 156.818 15.7083C159.427 15.7083 161.285 13.822 161.285 11.1341C161.285 8.44618 159.427 6.55991 156.818 6.55991C154.208 6.55991 152.327 8.44618 152.327 11.1341Z" fill="#616771"/>
<path d="M172.063 17.5946C168.395 17.5946 165.809 14.8831 165.809 11.1341C165.809 7.38515 168.395 4.67364 172.063 4.67364C173.991 4.67364 175.613 5.42815 176.718 6.65422V4.88585H178.716V17.3824H176.718V15.614C175.613 16.8401 173.991 17.5946 172.063 17.5946ZM167.855 11.1341C167.855 13.822 169.712 15.7083 172.298 15.7083C174.884 15.7083 176.765 13.822 176.765 11.1341C176.765 8.44618 174.884 6.55991 172.298 6.55991C169.712 6.55991 167.855 8.44618 167.855 11.1341Z" fill="#616771"/>
<path d="M187.451 17.571C184.324 17.571 182.326 16.0384 182.208 13.4919H184.254C184.348 14.9067 185.594 15.7083 187.474 15.7083C189.402 15.7083 190.672 15.0953 190.672 13.8692C190.672 12.8082 189.943 12.4073 187.333 12.0065C183.76 11.4878 182.42 10.4739 182.42 8.25755C182.42 5.87614 184.63 4.65006 187.451 4.65006C190.366 4.65006 192.2 6.08834 192.341 8.4226H190.319C190.202 7.2201 189.097 6.48917 187.404 6.48917C185.523 6.48917 184.442 7.14937 184.442 8.25755C184.442 9.36574 185.241 9.8373 187.827 10.1674C190.742 10.5447 192.717 11.3935 192.717 13.7749C192.717 16.3685 190.39 17.571 187.451 17.571Z" fill="#616771"/>
<path d="M201.485 17.5946C197.77 17.5946 195.09 14.9067 195.09 11.1341C195.09 7.36157 197.77 4.67364 201.485 4.67364C205.387 4.67364 208.138 7.47947 207.903 11.8179H197.182C197.441 14.1286 199.134 15.7083 201.485 15.7083C203.224 15.7083 204.682 14.9538 205.364 13.6334H207.527C206.657 16.0856 204.353 17.5946 201.485 17.5946ZM197.229 10.0967H205.811C205.387 8.04535 203.718 6.55991 201.485 6.55991C199.275 6.55991 197.629 7.95103 197.229 10.0967Z" fill="#616771"/>
<path d="M222.652 17.4531C219.807 17.4531 218.491 16.2035 218.491 13.4684V6.55991H215.881V4.88585H218.491V1.93855L220.489 1.72635V4.88585H223.922V6.55991H220.489V13.2326C220.489 14.8831 221.147 15.5904 222.887 15.5904C223.24 15.5904 223.663 15.5668 224.086 15.5197V17.3824C223.592 17.4295 223.075 17.4531 222.652 17.4531Z" fill="#616771"/>
<path d="M232.654 17.5946C228.869 17.5946 226.165 14.8831 226.165 11.1341C226.165 7.38515 228.869 4.67364 232.654 4.67364C236.463 4.67364 239.143 7.38515 239.143 11.1341C239.143 14.8831 236.463 17.5946 232.654 17.5946ZM228.211 11.1341C228.211 13.7985 230.068 15.7083 232.654 15.7083C235.24 15.7083 237.121 13.7985 237.121 11.1341C237.121 8.46976 235.24 6.55991 232.654 6.55991C230.068 6.55991 228.211 8.46976 228.211 11.1341Z" fill="#616771"/>
<path d="M247.456 17.4531C244.611 17.4531 243.294 16.2035 243.294 13.4684V6.55991H240.685V4.88585H243.294V1.93855L245.293 1.72635V4.88585H248.725V6.55991H245.293V13.2326C245.293 14.8831 245.951 15.5904 247.691 15.5904C248.043 15.5904 248.467 15.5668 248.89 15.5197V17.3824C248.396 17.4295 247.879 17.4531 247.456 17.4531Z" fill="#616771"/>
<path d="M257.223 17.5946C253.555 17.5946 250.969 14.8831 250.969 11.1341C250.969 7.38515 253.555 4.67364 257.223 4.67364C259.151 4.67364 260.773 5.42815 261.878 6.65422V4.88585H263.876V17.3824H261.878V15.614C260.773 16.8401 259.151 17.5946 257.223 17.5946ZM253.014 11.1341C253.014 13.822 254.872 15.7083 257.458 15.7083C260.044 15.7083 261.925 13.822 261.925 11.1341C261.925 8.44618 260.044 6.55991 257.458 6.55991C254.872 6.55991 253.014 8.44618 253.014 11.1341Z" fill="#616771"/>
<path d="M268.214 17.3824V0.877523H270.213V17.3824H268.214Z" fill="#616771"/>
<path d="M285.292 17.571C282.165 17.571 280.167 16.0384 280.049 13.4919H282.094C282.189 14.9067 283.435 15.7083 285.315 15.7083C287.243 15.7083 288.513 15.0953 288.513 13.8692C288.513 12.8082 287.784 12.4073 285.174 12.0065C281.601 11.4878 280.261 10.4739 280.261 8.25755C280.261 5.87614 282.471 4.65006 285.292 4.65006C288.207 4.65006 290.041 6.08834 290.182 8.4226H288.16C288.043 7.2201 286.938 6.48917 285.245 6.48917C283.364 6.48917 282.283 7.14937 282.283 8.25755C282.283 9.36574 283.082 9.8373 285.668 10.1674C288.583 10.5447 290.558 11.3935 290.558 13.7749C290.558 16.3685 288.231 17.571 285.292 17.571Z" fill="#616771"/>
<path d="M300.572 17.5946C298.62 17.5946 296.975 16.8401 295.87 15.5433V21.0134H293.871V4.88585H295.87V6.72496C296.975 5.42815 298.62 4.67364 300.572 4.67364C304.216 4.67364 306.825 7.38515 306.825 11.1341C306.825 14.8831 304.216 17.5946 300.572 17.5946ZM295.823 11.1341C295.823 13.822 297.703 15.7083 300.313 15.7083C302.923 15.7083 304.78 13.822 304.78 11.1341C304.78 8.44618 302.923 6.55991 300.313 6.55991C297.703 6.55991 295.823 8.44618 295.823 11.1341Z" fill="#616771"/>
<path d="M315.699 17.5946C311.985 17.5946 309.305 14.9067 309.305 11.1341C309.305 7.36157 311.985 4.67364 315.699 4.67364C319.602 4.67364 322.353 7.47947 322.118 11.8179H311.397C311.656 14.1286 313.348 15.7083 315.699 15.7083C317.439 15.7083 318.897 14.9538 319.579 13.6334H321.742C320.872 16.0856 318.568 17.5946 315.699 17.5946ZM311.444 10.0967H320.025C319.602 8.04535 317.933 6.55991 315.699 6.55991C313.489 6.55991 311.844 7.95103 311.444 10.0967Z" fill="#616771"/>
<path d="M325.448 17.3824V4.88585H327.446V6.72496C328.457 5.45173 329.962 4.69722 331.89 4.69722C335.158 4.69722 337.085 6.74854 337.085 10.4503V17.3824H335.087V10.5211C335.087 7.8803 333.865 6.51275 331.537 6.51275C329.068 6.51275 327.446 8.11608 327.446 10.4975V17.3824H325.448Z" fill="#616771"/>
<path d="M346.073 17.4531C343.229 17.4531 341.912 16.2035 341.912 13.4684V6.55991H339.302V4.88585H341.912V1.93855L343.91 1.72635V4.88585H347.343V6.55991H343.91V13.2326C343.91 14.8831 344.569 15.5904 346.308 15.5904C346.661 15.5904 347.084 15.5668 347.507 15.5197V17.3824C347.014 17.4295 346.497 17.4531 346.073 17.4531Z" fill="#616771"/>
<path d="M362.554 17.5946C358.769 17.5946 356.065 14.8831 356.065 11.1341C356.065 7.38515 358.769 4.67364 362.554 4.67364C366.362 4.67364 369.043 7.38515 369.043 11.1341C369.043 14.8831 366.362 17.5946 362.554 17.5946ZM358.11 11.1341C358.11 13.7985 359.968 15.7083 362.554 15.7083C365.14 15.7083 367.021 13.7985 367.021 11.1341C367.021 8.46976 365.14 6.55991 362.554 6.55991C359.968 6.55991 358.11 8.46976 358.11 11.1341Z" fill="#616771"/>
<path d="M373.195 4.41428C373.195 2.00929 374.512 0.64174 377.262 0.64174C377.733 0.64174 378.226 0.688898 378.791 0.759632V2.38654C378.344 2.33938 377.944 2.3158 377.592 2.3158C375.711 2.3158 375.194 2.976 375.194 4.48501V4.88585H378.673V6.55991H375.194V17.3824H373.195V6.55991H370.656V4.88585H373.195V4.41428Z" fill="#616771"/>
<path d="M393.119 17.5946C389.451 17.5946 386.865 14.8831 386.865 11.1341C386.865 7.38515 389.451 4.67364 393.119 4.67364C395.046 4.67364 396.669 5.42815 397.774 6.65422V4.88585H399.772V17.3824H397.774V15.614C396.669 16.8401 395.046 17.5946 393.119 17.5946ZM388.91 11.1341C388.91 13.822 390.768 15.7083 393.354 15.7083C395.94 15.7083 397.821 13.822 397.821 11.1341C397.821 8.44618 395.94 6.55991 393.354 6.55991C390.768 6.55991 388.91 8.44618 388.91 11.1341Z" fill="#616771"/>
<path d="M409.565 17.5946C405.826 17.5946 403.17 14.9302 403.17 11.1577C403.17 7.338 405.803 4.67364 409.565 4.67364C412.644 4.67364 414.972 6.44202 415.701 9.34216H413.702C413.068 7.57378 411.563 6.55991 409.612 6.55991C407.002 6.55991 405.215 8.4226 405.215 11.1577C405.215 13.8692 407.002 15.7083 409.612 15.7083C411.61 15.7083 413.091 14.6944 413.702 12.9025H415.748C415.042 15.8026 412.668 17.5946 409.565 17.5946Z" fill="#616771"/>
<path d="M424.377 17.5946C420.639 17.5946 417.982 14.9302 417.982 11.1577C417.982 7.338 420.615 4.67364 424.377 4.67364C427.457 4.67364 429.784 6.44202 430.513 9.34216H428.515C427.88 7.57378 426.375 6.55991 424.424 6.55991C421.815 6.55991 420.028 8.4226 420.028 11.1577C420.028 13.8692 421.815 15.7083 424.424 15.7083C426.423 15.7083 427.904 14.6944 428.515 12.9025H430.56C429.855 15.8026 427.48 17.5946 424.377 17.5946Z" fill="#616771"/>
<path d="M438.132 17.571C435.005 17.571 433.006 16.0384 432.889 13.4919H434.934C435.028 14.9067 436.274 15.7083 438.155 15.7083C440.083 15.7083 441.353 15.0953 441.353 13.8692C441.353 12.8082 440.624 12.4073 438.014 12.0065C434.441 11.4878 433.1 10.4739 433.1 8.25755C433.1 5.87614 435.31 4.65006 438.132 4.65006C441.047 4.65006 442.881 6.08834 443.022 8.4226H441C440.882 7.2201 439.777 6.48917 438.085 6.48917C436.204 6.48917 435.122 7.14937 435.122 8.25755C435.122 9.36574 435.922 9.8373 438.508 10.1674C441.423 10.5447 443.398 11.3935 443.398 13.7749C443.398 16.3685 441.07 17.571 438.132 17.571Z" fill="#616771"/>
<path d="M458.365 17.5946C454.697 17.5946 452.111 14.8831 452.111 11.1341C452.111 7.38515 454.697 4.67364 458.365 4.67364C460.316 4.67364 461.962 5.42815 463.067 6.72496V0.877523H465.065V17.3824H463.067V15.5433C461.962 16.8401 460.316 17.5946 458.365 17.5946ZM454.157 11.1341C454.157 13.822 456.014 15.7083 458.6 15.7083C461.233 15.7083 463.091 13.822 463.091 11.1341C463.091 8.44618 461.233 6.55991 458.6 6.55991C456.014 6.55991 454.157 8.44618 454.157 11.1341Z" fill="#616771"/>
<path d="M474.88 17.5946C471.165 17.5946 468.485 14.9067 468.485 11.1341C468.485 7.36157 471.165 4.67364 474.88 4.67364C478.783 4.67364 481.533 7.47947 481.298 11.8179H470.577C470.836 14.1286 472.529 15.7083 474.88 15.7083C476.62 15.7083 478.077 14.9538 478.759 13.6334H480.922C480.052 16.0856 477.748 17.5946 474.88 17.5946ZM470.624 10.0967H479.206C478.783 8.04535 477.113 6.55991 474.88 6.55991C472.67 6.55991 471.024 7.95103 470.624 10.0967Z" fill="#616771"/>
<path d="M491.329 17.5946C489.377 17.5946 487.732 16.8401 486.627 15.5433V21.0134H484.628V4.88585H486.627V6.72496C487.732 5.42815 489.377 4.67364 491.329 4.67364C494.973 4.67364 497.582 7.38515 497.582 11.1341C497.582 14.8831 494.973 17.5946 491.329 17.5946ZM486.58 11.1341C486.58 13.822 488.461 15.7083 491.07 15.7083C493.68 15.7083 495.537 13.822 495.537 11.1341C495.537 8.44618 493.68 6.55991 491.07 6.55991C488.461 6.55991 486.58 8.44618 486.58 11.1341Z" fill="#616771"/>
<path d="M506.456 17.5946C502.742 17.5946 500.062 14.9067 500.062 11.1341C500.062 7.36157 502.742 4.67364 506.456 4.67364C510.359 4.67364 513.11 7.47947 512.875 11.8179H502.154C502.413 14.1286 504.105 15.7083 506.456 15.7083C508.196 15.7083 509.654 14.9538 510.336 13.6334H512.499C511.629 16.0856 509.325 17.5946 506.456 17.5946ZM502.201 10.0967H510.782C510.359 8.04535 508.69 6.55991 506.456 6.55991C504.247 6.55991 502.601 7.95103 502.201 10.0967Z" fill="#616771"/>
<path d="M516.205 17.3824V4.88585H518.203V6.72496C519.214 5.45173 520.719 4.69722 522.647 4.69722C525.915 4.69722 527.842 6.74854 527.842 10.4503V17.3824H525.844V10.5211C525.844 7.8803 524.622 6.51275 522.294 6.51275C519.826 6.51275 518.203 8.11608 518.203 10.4975V17.3824H516.205Z" fill="#616771"/>
<path d="M537.295 17.5946C533.628 17.5946 531.041 14.8831 531.041 11.1341C531.041 7.38515 533.628 4.67364 537.295 4.67364C539.246 4.67364 540.892 5.42815 541.997 6.72496V0.877523H543.996V17.3824H541.997V15.5433C540.892 16.8401 539.246 17.5946 537.295 17.5946ZM533.087 11.1341C533.087 13.822 534.944 15.7083 537.53 15.7083C540.163 15.7083 542.021 13.822 542.021 11.1341C542.021 8.44618 540.163 6.55991 537.53 6.55991C534.944 6.55991 533.087 8.44618 533.087 11.1341Z" fill="#616771"/>
<path d="M560.245 17.5946C556.459 17.5946 553.756 14.8831 553.756 11.1341C553.756 7.38515 556.459 4.67364 560.245 4.67364C564.053 4.67364 566.733 7.38515 566.733 11.1341C566.733 14.8831 564.053 17.5946 560.245 17.5946ZM555.801 11.1341C555.801 13.7985 557.658 15.7083 560.245 15.7083C562.831 15.7083 564.711 13.7985 564.711 11.1341C564.711 8.46976 562.831 6.55991 560.245 6.55991C557.658 6.55991 555.801 8.46976 555.801 11.1341Z" fill="#616771"/>
<path d="M570.152 17.3824V4.88585H572.15V6.72496C573.161 5.45173 574.666 4.69722 576.593 4.69722C579.861 4.69722 581.789 6.74854 581.789 10.4503V17.3824H579.791V10.5211C579.791 7.8803 578.568 6.51275 576.241 6.51275C573.772 6.51275 572.15 8.11608 572.15 10.4975V17.3824H570.152Z" fill="#616771"/>
<path d="M597.347 17.4531C594.502 17.4531 593.186 16.2035 593.186 13.4684V6.55991H590.576V4.88585H593.186V1.93855L595.184 1.72635V4.88585H598.617V6.55991H595.184V13.2326C595.184 14.8831 595.843 15.5904 597.582 15.5904C597.935 15.5904 598.358 15.5668 598.781 15.5197V17.3824C598.288 17.4295 597.77 17.4531 597.347 17.4531Z" fill="#616771"/>
<path d="M601.939 17.3824V0.877523H603.937V6.72496C604.948 5.45173 606.5 4.69722 608.286 4.69722C611.695 4.69722 613.576 6.74854 613.576 10.4503V17.3824H611.578V10.5211C611.578 7.8803 610.355 6.51275 608.028 6.51275C605.559 6.51275 603.937 8.11608 603.937 10.4975V17.3824H601.939Z" fill="#616771"/>
<path d="M623.17 17.5946C619.455 17.5946 616.775 14.9067 616.775 11.1341C616.775 7.36157 619.455 4.67364 623.17 4.67364C627.073 4.67364 629.823 7.47947 629.588 11.8179H618.867C619.126 14.1286 620.819 15.7083 623.17 15.7083C624.91 15.7083 626.367 14.9538 627.049 13.6334H629.212C628.342 16.0856 626.038 17.5946 623.17 17.5946ZM618.914 10.0967H627.496C627.073 8.04535 625.403 6.55991 623.17 6.55991C620.96 6.55991 619.314 7.95103 618.914 10.0967Z" fill="#616771"/>
<path d="M639.423 17.3824V0.877523H641.046L649.909 13.209V0.877523H652.025V17.3824H650.356L641.539 5.12163V17.3824H639.423Z" fill="#616771"/>
<path d="M656.528 17.3824V4.88585H658.526V17.3824H656.528ZM655.987 1.72635C655.987 0.830368 656.646 0.170174 657.539 0.170174C658.432 0.170174 659.091 0.830368 659.091 1.72635C659.091 2.55159 658.432 3.21178 657.539 3.21178C656.646 3.21178 655.987 2.55159 655.987 1.72635Z" fill="#616771"/>
<path d="M668.323 17.5946C664.585 17.5946 661.928 14.9302 661.928 11.1577C661.928 7.338 664.561 4.67364 668.323 4.67364C671.403 4.67364 673.731 6.44202 674.459 9.34216H672.461C671.826 7.57378 670.322 6.55991 668.37 6.55991C665.761 6.55991 663.974 8.4226 663.974 11.1577C663.974 13.8692 665.761 15.7083 668.37 15.7083C670.369 15.7083 671.85 14.6944 672.461 12.9025H674.506C673.801 15.8026 671.426 17.5946 668.323 17.5946Z" fill="#616771"/>
<path d="M677.681 17.3824V0.877523H679.68V6.72496C680.691 5.45173 682.242 4.69722 684.029 4.69722C687.438 4.69722 689.319 6.74854 689.319 10.4503V17.3824H687.32V10.5211C687.32 7.8803 686.098 6.51275 683.77 6.51275C681.302 6.51275 679.68 8.11608 679.68 10.4975V17.3824H677.681Z" fill="#616771"/>
<path d="M698.912 17.5946C695.198 17.5946 692.518 14.9067 692.518 11.1341C692.518 7.36157 695.198 4.67364 698.912 4.67364C702.815 4.67364 705.566 7.47947 705.331 11.8179H694.61C694.869 14.1286 696.561 15.7083 698.912 15.7083C700.652 15.7083 702.11 14.9538 702.792 13.6334H704.955C704.085 16.0856 701.781 17.5946 698.912 17.5946ZM694.657 10.0967H703.238C702.815 8.04535 701.146 6.55991 698.912 6.55991C696.703 6.55991 695.057 7.95103 694.657 10.0967Z" fill="#616771"/>
<path d="M713.057 17.571C709.931 17.571 707.932 16.0384 707.815 13.4919H709.86C709.954 14.9067 711.2 15.7083 713.081 15.7083C715.009 15.7083 716.278 15.0953 716.278 13.8692C716.278 12.8082 715.549 12.4073 712.94 12.0065C709.366 11.4878 708.026 10.4739 708.026 8.25755C708.026 5.87614 710.236 4.65006 713.057 4.65006C715.973 4.65006 717.807 6.08834 717.948 8.4226H715.926C715.808 7.2201 714.703 6.48917 713.01 6.48917C711.13 6.48917 710.048 7.14937 710.048 8.25755C710.048 9.36574 710.847 9.8373 713.434 10.1674C716.349 10.5447 718.324 11.3935 718.324 13.7749C718.324 16.3685 715.996 17.571 713.057 17.571Z" fill="#616771"/>
<path d="M733.291 17.5946C729.623 17.5946 727.037 14.8831 727.037 11.1341C727.037 7.38515 729.623 4.67364 733.291 4.67364C735.219 4.67364 736.841 5.42815 737.946 6.65422V4.88585H739.944V17.3824H737.946V15.614C736.841 16.8401 735.219 17.5946 733.291 17.5946ZM729.082 11.1341C729.082 13.822 730.94 15.7083 733.526 15.7083C736.112 15.7083 737.993 13.822 737.993 11.1341C737.993 8.44618 736.112 6.55991 733.526 6.55991C730.94 6.55991 729.082 8.44618 729.082 11.1341Z" fill="#616771"/>
<path d="M744.282 17.3824V4.88585H746.281V6.72496C747.292 5.45173 748.796 4.69722 750.724 4.69722C753.992 4.69722 755.92 6.74854 755.92 10.4503V17.3824H753.922V10.5211C753.922 7.8803 752.699 6.51275 750.372 6.51275C747.903 6.51275 746.281 8.11608 746.281 10.4975V17.3824H744.282Z" fill="#616771"/>
<path d="M765.372 17.5946C761.705 17.5946 759.119 14.8831 759.119 11.1341C759.119 7.38515 761.705 4.67364 765.372 4.67364C767.324 4.67364 768.969 5.42815 770.074 6.72496V0.877523H772.073V17.3824H770.074V15.5433C768.969 16.8401 767.324 17.5946 765.372 17.5946ZM761.164 11.1341C761.164 13.822 763.021 15.7083 765.607 15.7083C768.241 15.7083 770.098 13.822 770.098 11.1341C770.098 8.44618 768.241 6.55991 765.607 6.55991C763.021 6.55991 761.164 8.44618 761.164 11.1341Z" fill="#616771"/>
<path d="M787.993 17.6182C784.607 17.6182 782.233 15.5433 781.998 12.3366H784.137C784.302 14.27 785.83 15.5197 787.993 15.5197C790.391 15.5197 791.825 14.4822 791.825 12.761C791.825 11.087 790.555 10.3324 787.758 9.88446C784.255 9.34216 782.374 7.92745 782.374 5.23952C782.374 2.52801 784.631 0.64174 787.946 0.64174C791.214 0.64174 793.377 2.50443 793.753 5.42815H791.637C791.261 3.58904 789.921 2.71664 787.922 2.71664C785.806 2.71664 784.49 3.68335 784.49 5.23952C784.49 6.84285 785.595 7.50304 788.486 7.95103C792.083 8.54049 794.011 10.0259 794.011 12.761C794.011 15.6612 791.613 17.6182 787.993 17.6182Z" fill="#616771"/>
<path d="M802.834 17.5946C799.096 17.5946 796.439 14.9302 796.439 11.1577C796.439 7.338 799.072 4.67364 802.834 4.67364C805.914 4.67364 808.241 6.44202 808.97 9.34216H806.972C806.337 7.57378 804.832 6.55991 802.881 6.55991C800.271 6.55991 798.484 8.4226 798.484 11.1577C798.484 13.8692 800.271 15.7083 802.881 15.7083C804.879 15.7083 806.36 14.6944 806.972 12.9025H809.017C808.312 15.8026 805.937 17.5946 802.834 17.5946Z" fill="#616771"/>
<path d="M817.505 17.5946C813.838 17.5946 811.252 14.8831 811.252 11.1341C811.252 7.38515 813.838 4.67364 817.505 4.67364C819.433 4.67364 821.055 5.42815 822.16 6.65422V4.88585H824.159V17.3824H822.16V15.614C821.055 16.8401 819.433 17.5946 817.505 17.5946ZM813.297 11.1341C813.297 13.822 815.154 15.7083 817.74 15.7083C820.327 15.7083 822.207 13.822 822.207 11.1341C822.207 8.44618 820.327 6.55991 817.74 6.55991C815.154 6.55991 813.297 8.44618 813.297 11.1341Z" fill="#616771"/>
<path d="M828.497 17.3824V0.877523H830.495V17.3824H828.497Z" fill="#616771"/>
<path d="M840.292 17.5946C836.577 17.5946 833.897 14.9067 833.897 11.1341C833.897 7.36157 836.577 4.67364 840.292 4.67364C844.195 4.67364 846.945 7.47947 846.71 11.8179H835.99C836.248 14.1286 837.941 15.7083 840.292 15.7083C842.032 15.7083 843.489 14.9538 844.171 13.6334H846.334C845.464 16.0856 843.16 17.5946 840.292 17.5946ZM836.036 10.0967H844.618C844.195 8.04535 842.525 6.55991 840.292 6.55991C838.082 6.55991 836.436 7.95103 836.036 10.0967Z" fill="#616771"/>
<path d="M850.66 17.571C849.908 17.571 849.343 16.9815 849.343 16.227C849.343 15.4725 849.908 14.9067 850.66 14.9067C851.412 14.9067 852 15.4725 852 16.227C852 16.9815 851.412 17.571 850.66 17.571Z" fill="#616771"/>
<path d="M151.628 64.5391L146.291 48.2465V48.0343H148.454L149.794 52.3255L152.544 60.7901L156.682 50.9815H158.093L162.231 60.7901L164.958 52.2784L166.321 48.0343H168.461V48.2465L163.1 64.5391H161.596L159.198 58.7152L157.364 54.3297L155.53 58.7152L153.156 64.5391H151.628Z" fill="#616771"/>
<path d="M175.183 64.7513C171.468 64.7513 168.788 62.0634 168.788 58.2908C168.788 54.5183 171.468 51.8304 175.183 51.8304C179.086 51.8304 181.836 54.6362 181.601 58.9746H170.881C171.139 61.2853 172.832 62.865 175.183 62.865C176.923 62.865 178.38 62.1105 179.062 60.7901H181.225C180.355 63.2423 178.051 64.7513 175.183 64.7513ZM170.928 57.2534H179.509C179.086 55.2021 177.416 53.7166 175.183 53.7166C172.973 53.7166 171.327 55.1078 170.928 57.2534Z" fill="#616771"/>
<path d="M191.272 64.5391V48.0343H193.27V53.8817C194.281 52.6085 195.833 51.8539 197.62 51.8539C201.029 51.8539 202.91 53.9053 202.91 57.6071V64.5391H200.911V57.6778C200.911 55.037 199.689 53.6695 197.361 53.6695C194.893 53.6695 193.27 55.2728 193.27 57.6542V64.5391H191.272Z" fill="#616771"/>
<path d="M212.362 64.7513C208.695 64.7513 206.108 62.0398 206.108 58.2908C206.108 54.5419 208.695 51.8304 212.362 51.8304C214.29 51.8304 215.912 52.5849 217.017 53.811V52.0426H219.016V64.5391H217.017V62.7707C215.912 63.9968 214.29 64.7513 212.362 64.7513ZM208.154 58.2908C208.154 60.9788 210.011 62.865 212.597 62.865C215.183 62.865 217.064 60.9788 217.064 58.2908C217.064 55.6029 215.183 53.7166 212.597 53.7166C210.011 53.7166 208.154 55.6029 208.154 58.2908Z" fill="#616771"/>
<path d="M227.75 64.7277C224.623 64.7277 222.625 63.1951 222.507 60.6487H224.553C224.647 62.0634 225.893 62.865 227.774 62.865C229.701 62.865 230.971 62.252 230.971 61.0259C230.971 59.9649 230.242 59.5641 227.633 59.1632C224.059 58.6445 222.719 57.6306 222.719 55.4143C222.719 53.0329 224.929 51.8068 227.75 51.8068C230.665 51.8068 232.499 53.2451 232.64 55.5793H230.618C230.501 54.3768 229.396 53.6459 227.703 53.6459C225.822 53.6459 224.741 54.3061 224.741 55.4143C224.741 56.5225 225.54 56.994 228.126 57.3241C231.042 57.7014 233.016 58.5502 233.016 60.9316C233.016 63.5252 230.689 64.7277 227.75 64.7277Z" fill="#616771"/>
<path d="M236.33 64.5391V52.0426H238.328V53.8817C239.339 52.6085 240.843 51.8539 242.771 51.8539C246.039 51.8539 247.967 53.9053 247.967 57.6071V64.5391H245.969V57.6778C245.969 55.037 244.746 53.6695 242.419 53.6695C239.95 53.6695 238.328 55.2728 238.328 57.6542V64.5391H236.33Z" fill="#616771"/>
<path d="M251.801 52.9857V52.8678L252.882 48.0343H255.069V48.4351L253.635 52.9857H251.801Z" fill="#616771"/>
<path d="M264.306 64.6098C261.461 64.6098 260.144 63.3602 260.144 60.6251V53.7166H257.535V52.0426H260.144V49.0953L262.143 48.8831V52.0426H265.575V53.7166H262.143V60.3893C262.143 62.0398 262.801 62.7472 264.541 62.7472C264.894 62.7472 265.317 62.7236 265.74 62.6764V64.5391C265.246 64.5863 264.729 64.6098 264.306 64.6098Z" fill="#616771"/>
<path d="M280.551 64.7513C276.884 64.7513 274.297 62.0398 274.297 58.2908C274.297 54.5419 276.884 51.8304 280.551 51.8304C282.479 51.8304 284.101 52.5849 285.206 53.811V52.0426H287.205V64.5391H285.206V62.7707C284.101 63.9968 282.479 64.7513 280.551 64.7513ZM276.343 58.2908C276.343 60.9788 278.2 62.865 280.786 62.865C283.372 62.865 285.253 60.9788 285.253 58.2908C285.253 55.6029 283.372 53.7166 280.786 53.7166C278.2 53.7166 276.343 55.6029 276.343 58.2908Z" fill="#616771"/>
<path d="M291.543 64.5391V52.0426H293.541V53.8817C294.552 52.6085 296.057 51.8539 297.985 51.8539C301.252 51.8539 303.18 53.9053 303.18 57.6071V64.5391H301.182V57.6778C301.182 55.037 299.959 53.6695 297.632 53.6695C295.163 53.6695 293.541 55.2728 293.541 57.6542V64.5391H291.543Z" fill="#616771"/>
<path d="M307.663 68.1702V68.0759L309.92 63.1244L305.006 52.1605V52.0426H307.216L309.356 57.0176L311.025 60.908L312.718 57.0648L314.975 52.0426H317.185V52.1605L309.826 68.1702H307.663Z" fill="#616771"/>
<path d="M331.45 64.7513C327.665 64.7513 324.961 62.0398 324.961 58.2908C324.961 54.5419 327.665 51.8304 331.45 51.8304C335.258 51.8304 337.939 54.5419 337.939 58.2908C337.939 62.0398 335.258 64.7513 331.45 64.7513ZM327.006 58.2908C327.006 60.9552 328.864 62.865 331.45 62.865C334.036 62.865 335.917 60.9552 335.917 58.2908C335.917 55.6265 334.036 53.7166 331.45 53.7166C328.864 53.7166 327.006 55.6265 327.006 58.2908Z" fill="#616771"/>
<path d="M346.251 64.6098C343.407 64.6098 342.09 63.3602 342.09 60.6251V53.7166H339.48V52.0426H342.09V49.0953L344.088 48.8831V52.0426H347.521V53.7166H344.088V60.3893C344.088 62.0398 344.747 62.7472 346.486 62.7472C346.839 62.7472 347.262 62.7236 347.685 62.6764V64.5391C347.192 64.5863 346.674 64.6098 346.251 64.6098Z" fill="#616771"/>
<path d="M350.843 64.5391V48.0343H352.841V53.8817C353.852 52.6085 355.404 51.8539 357.19 51.8539C360.599 51.8539 362.48 53.9053 362.48 57.6071V64.5391H360.482V57.6778C360.482 55.037 359.259 53.6695 356.932 53.6695C354.463 53.6695 352.841 55.2728 352.841 57.6542V64.5391H350.843Z" fill="#616771"/>
<path d="M372.074 64.7513C368.359 64.7513 365.679 62.0634 365.679 58.2908C365.679 54.5183 368.359 51.8304 372.074 51.8304C375.977 51.8304 378.727 54.6362 378.492 58.9746H367.772C368.03 61.2853 369.723 62.865 372.074 62.865C373.814 62.865 375.271 62.1105 375.953 60.7901H378.116C377.246 63.2423 374.942 64.7513 372.074 64.7513ZM367.819 57.2534H376.4C375.977 55.2021 374.307 53.7166 372.074 53.7166C369.864 53.7166 368.218 55.1078 367.819 57.2534Z" fill="#616771"/>
<path d="M381.822 64.5391V52.0426H383.821V53.9053C384.691 52.5613 385.984 51.8539 387.606 51.8539C388.076 51.8539 388.617 51.9247 389.181 52.0661V53.8817C388.711 53.7638 388.264 53.6931 387.841 53.6931C385.537 53.6931 383.821 55.3435 383.821 57.7485V64.5391H381.822Z" fill="#616771"/>
<path d="M399.439 51.571C399.439 49.166 400.756 47.7985 403.507 47.7985C403.977 47.7985 404.471 47.8456 405.035 47.9164V49.5433C404.588 49.4961 404.189 49.4725 403.836 49.4725C401.955 49.4725 401.438 50.1327 401.438 51.6417V52.0426H404.917V53.7166H401.438V64.5391H399.439V53.7166H396.9V52.0426H399.439V51.571Z" fill="#616771"/>
<path d="M412.727 64.7513C409.013 64.7513 406.332 62.0634 406.332 58.2908C406.332 54.5183 409.013 51.8304 412.727 51.8304C416.63 51.8304 419.381 54.6362 419.145 58.9746H408.425C408.683 61.2853 410.376 62.865 412.727 62.865C414.467 62.865 415.925 62.1105 416.606 60.7901H418.769C417.899 63.2423 415.595 64.7513 412.727 64.7513ZM408.472 57.2534H417.053C416.63 55.2021 414.961 53.7166 412.727 53.7166C410.517 53.7166 408.871 55.1078 408.472 57.2534Z" fill="#616771"/>
<path d="M427.93 64.7513C424.215 64.7513 421.535 62.0634 421.535 58.2908C421.535 54.5183 424.215 51.8304 427.93 51.8304C431.833 51.8304 434.583 54.6362 434.348 58.9746H423.628C423.886 61.2853 425.579 62.865 427.93 62.865C429.67 62.865 431.127 62.1105 431.809 60.7901H433.972C433.102 63.2423 430.798 64.7513 427.93 64.7513ZM423.675 57.2534H432.256C431.833 55.2021 430.164 53.7166 427.93 53.7166C425.72 53.7166 424.074 55.1078 423.675 57.2534Z" fill="#616771"/>
<path d="M438.298 64.7277C437.546 64.7277 436.981 64.1383 436.981 63.3838C436.981 62.6293 437.546 62.0634 438.298 62.0634C439.05 62.0634 439.638 62.6293 439.638 63.3838C439.638 64.1383 439.05 64.7277 438.298 64.7277Z" fill="#616771"/>
<path d="M451.004 64.7513C450.275 64.7513 449.476 64.6806 448.606 64.5391V62.4642C449.358 62.6057 450.063 62.6764 450.675 62.6764C453.849 62.6764 455.33 60.9316 455.33 57.8428V50.0384H450.933V48.0343H457.446V57.9843C457.446 62.3699 455.306 64.7513 451.004 64.7513Z" fill="#616771"/>
<path d="M466.597 64.7277C463.329 64.7277 461.471 62.6293 461.471 58.9746V52.0426H463.47V58.9746C463.47 61.5447 464.645 62.9122 466.949 62.9122C469.418 62.9122 470.993 61.356 470.993 58.9746V52.0426H472.991V64.5391H470.993V62.7236C469.959 64.0204 468.454 64.7277 466.597 64.7277Z" fill="#616771"/>
<path d="M481.557 64.7277C478.43 64.7277 476.432 63.1951 476.314 60.6487H478.36C478.454 62.0634 479.7 62.865 481.581 62.865C483.509 62.865 484.778 62.252 484.778 61.0259C484.778 59.9649 484.049 59.5641 481.44 59.1632C477.866 58.6445 476.526 57.6306 476.526 55.4143C476.526 53.0329 478.736 51.8068 481.557 51.8068C484.473 51.8068 486.306 53.2451 486.447 55.5793H484.425C484.308 54.3768 483.203 53.6459 481.51 53.6459C479.629 53.6459 478.548 54.3061 478.548 55.4143C478.548 56.5225 479.347 56.994 481.933 57.3241C484.849 57.7014 486.823 58.5502 486.823 60.9316C486.823 63.5252 484.496 64.7277 481.557 64.7277Z" fill="#616771"/>
<path d="M494.985 64.6098C492.14 64.6098 490.824 63.3602 490.824 60.6251V53.7166H488.214V52.0426H490.824V49.0953L492.822 48.8831V52.0426H496.255V53.7166H492.822V60.3893C492.822 62.0398 493.481 62.7472 495.22 62.7472C495.573 62.7472 495.996 62.7236 496.419 62.6764V64.5391C495.926 64.5863 495.408 64.6098 494.985 64.6098Z" fill="#616771"/>
<path d="M506.881 51.571C506.881 49.166 508.198 47.7985 510.949 47.7985C511.419 47.7985 511.912 47.8456 512.477 47.9164V49.5433C512.03 49.4961 511.63 49.4725 511.278 49.4725C509.397 49.4725 508.88 50.1327 508.88 51.6417V52.0426H512.359V53.7166H508.88V64.5391H506.881V53.7166H504.342V52.0426H506.881V51.571Z" fill="#616771"/>
<path d="M515.151 64.5391V52.0426H517.149V53.9053C518.019 52.5613 519.312 51.8539 520.934 51.8539C521.404 51.8539 521.945 51.9247 522.509 52.0661V53.8817C522.039 53.7638 521.593 53.6931 521.169 53.6931C518.865 53.6931 517.149 55.3435 517.149 57.7485V64.5391H515.151Z" fill="#616771"/>
<path d="M530.39 64.7513C526.675 64.7513 523.995 62.0634 523.995 58.2908C523.995 54.5183 526.675 51.8304 530.39 51.8304C534.292 51.8304 537.043 54.6362 536.808 58.9746H526.087C526.346 61.2853 528.039 62.865 530.39 62.865C532.129 62.865 533.587 62.1105 534.269 60.7901H536.432C535.562 63.2423 533.258 64.7513 530.39 64.7513ZM526.134 57.2534H534.716C534.292 55.2021 532.623 53.7166 530.39 53.7166C528.18 53.7166 526.534 55.1078 526.134 57.2534Z" fill="#616771"/>
<path d="M545.592 64.7513C541.878 64.7513 539.198 62.0634 539.198 58.2908C539.198 54.5183 541.878 51.8304 545.592 51.8304C549.495 51.8304 552.246 54.6362 552.011 58.9746H541.29C541.549 61.2853 543.241 62.865 545.592 62.865C547.332 62.865 548.79 62.1105 549.472 60.7901H551.635C550.765 63.2423 548.461 64.7513 545.592 64.7513ZM541.337 57.2534H549.918C549.495 55.2021 547.826 53.7166 545.592 53.7166C543.382 53.7166 541.737 55.1078 541.337 57.2534Z" fill="#616771"/>
<path d="M562.645 51.571C562.645 49.166 563.962 47.7985 566.713 47.7985C567.183 47.7985 567.677 47.8456 568.241 47.9164V49.5433C567.794 49.4961 567.395 49.4725 567.042 49.4725C565.161 49.4725 564.644 50.1327 564.644 51.6417V52.0426H568.123V53.7166H564.644V64.5391H562.645V53.7166H560.106V52.0426H562.645V51.571Z" fill="#616771"/>
<path d="M576.027 64.7513C572.242 64.7513 569.538 62.0398 569.538 58.2908C569.538 54.5419 572.242 51.8304 576.027 51.8304C579.836 51.8304 582.516 54.5419 582.516 58.2908C582.516 62.0398 579.836 64.7513 576.027 64.7513ZM571.584 58.2908C571.584 60.9552 573.441 62.865 576.027 62.865C578.613 62.865 580.494 60.9552 580.494 58.2908C580.494 55.6265 578.613 53.7166 576.027 53.7166C573.441 53.7166 571.584 55.6265 571.584 58.2908Z" fill="#616771"/>
<path d="M585.934 64.5391V52.0426H587.933V53.9053C588.802 52.5613 590.096 51.8539 591.718 51.8539C592.188 51.8539 592.729 51.9247 593.293 52.0661V53.8817C592.823 53.7638 592.376 53.6931 591.953 53.6931C589.649 53.6931 587.933 55.3435 587.933 57.7485V64.5391H585.934Z" fill="#616771"/>
<path d="M600.502 64.5391V64.3269L607.131 48.0343H608.66L615.289 64.3269V64.5391H613.079L611.528 60.5779H604.263L602.688 64.5391H600.502ZM605.039 58.5974H610.752L607.884 51.406L605.039 58.5974Z" fill="#616771"/>
<path d="M623.061 64.7513C619.323 64.7513 616.666 62.087 616.666 58.3144C616.666 54.4947 619.299 51.8304 623.061 51.8304C626.141 51.8304 628.468 53.5987 629.197 56.4989H627.199C626.564 54.7305 625.059 53.7166 623.108 53.7166C620.498 53.7166 618.711 55.5793 618.711 58.3144C618.711 61.0259 620.498 62.865 623.108 62.865C625.106 62.865 626.587 61.8512 627.199 60.0592H629.244C628.539 62.9594 626.164 64.7513 623.061 64.7513Z" fill="#616771"/>
<path d="M637.873 64.7513C634.135 64.7513 631.479 62.087 631.479 58.3144C631.479 54.4947 634.112 51.8304 637.873 51.8304C640.953 51.8304 643.281 53.5987 644.01 56.4989H642.011C641.376 54.7305 639.872 53.7166 637.92 53.7166C635.311 53.7166 633.524 55.5793 633.524 58.3144C633.524 61.0259 635.311 62.865 637.92 62.865C639.919 62.865 641.4 61.8512 642.011 60.0592H644.057C643.351 62.9594 640.977 64.7513 637.873 64.7513Z" fill="#616771"/>
<path d="M652.78 64.7513C648.995 64.7513 646.291 62.0398 646.291 58.2908C646.291 54.5419 648.995 51.8304 652.78 51.8304C656.589 51.8304 659.269 54.5419 659.269 58.2908C659.269 62.0398 656.589 64.7513 652.78 64.7513ZM648.337 58.2908C648.337 60.9552 650.194 62.865 652.78 62.865C655.366 62.865 657.247 60.9552 657.247 58.2908C657.247 55.6265 655.366 53.7166 652.78 53.7166C650.194 53.7166 648.337 55.6265 648.337 58.2908Z" fill="#616771"/>
<path d="M667.624 64.7277C664.356 64.7277 662.499 62.6293 662.499 58.9746V52.0426H664.497V58.9746C664.497 61.5447 665.673 62.9122 667.977 62.9122C670.445 62.9122 672.021 61.356 672.021 58.9746V52.0426H674.019V64.5391H672.021V62.7236C670.986 64.0204 669.481 64.7277 667.624 64.7277Z" fill="#616771"/>
<path d="M678.188 64.5391V52.0426H680.187V53.8817C681.198 52.6085 682.702 51.8539 684.63 51.8539C687.898 51.8539 689.826 53.9053 689.826 57.6071V64.5391H687.828V57.6778C687.828 55.037 686.605 53.6695 684.278 53.6695C681.809 53.6695 680.187 55.2728 680.187 57.6542V64.5391H678.188Z" fill="#616771"/>
<path d="M698.814 64.6098C695.969 64.6098 694.652 63.3602 694.652 60.6251V53.7166H692.043V52.0426H694.652V49.0953L696.651 48.8831V52.0426H700.083V53.7166H696.651V60.3893C696.651 62.0398 697.309 62.7472 699.049 62.7472C699.402 62.7472 699.825 62.7236 700.248 62.6764V64.5391C699.754 64.5863 699.237 64.6098 698.814 64.6098Z" fill="#616771"/>
<path d="M704.369 64.7277C703.617 64.7277 703.053 64.1383 703.053 63.3838C703.053 62.6293 703.617 62.0634 704.369 62.0634C705.122 62.0634 705.709 62.6293 705.709 63.3838C705.709 64.1383 705.122 64.7277 704.369 64.7277Z" fill="#616771"/>
</svg>
