<svg width="1358" height="116" viewBox="0 0 1358 116" fill="none" xmlns="http://www.w3.org/2000/svg">
<path d="M23.3662 95.1272L0 14.1551V11.1562H28.6657L33.9652 30.4695L39.6261 59.1396L51.6705 26.3909H72.0256L84.1904 59.2596L90.0922 30.4695L95.5121 11.1562H123.696V14.1551L100.45 95.1272H74.6753L66.9669 77.1334L61.9082 62.9783L56.8496 77.1334L49.2616 95.1272H23.3662Z" fill="#282A2D"/>
<path d="M131.639 95.1272V11.1562H157.775V36.3475C162.352 32.2689 168.615 30.2296 174.999 30.2296C191.379 30.2296 199.449 41.2658 199.449 58.06V95.1272H173.192V60.2192C173.192 54.9411 170.542 51.9421 165.965 51.9421C161.148 51.9421 157.775 55.181 157.775 60.3392V95.1272H131.639Z" fill="#282A2D"/>
<path d="M238.982 96.3268C220.554 96.3268 208.148 82.7715 208.148 63.3382C208.148 43.545 220.915 30.3495 238.982 30.3495C246.449 30.3495 253.074 32.7487 258.132 36.8273L258.975 31.5491H281.137V95.1272H258.975L258.132 89.849C252.953 93.9276 246.449 96.3268 238.982 96.3268ZM233.682 63.3382C233.682 69.9359 238.139 74.6143 244.643 74.6143C251.026 74.6143 255.483 69.9359 255.483 63.3382C255.483 56.6205 251.026 52.062 244.643 52.062C238.139 52.062 233.682 56.6205 233.682 63.3382Z" fill="#282A2D"/>
<path d="M325.908 96.5667C310.25 96.5667 299.771 89.0093 299.771 72.455V51.5822H290.136V31.5491H299.771V18.8335L325.908 16.3144V31.5491H338.795V51.5822H325.908V67.1768C325.908 73.4147 328.919 75.2141 334.459 75.2141C335.904 75.2141 337.711 75.0941 339.518 74.9742V95.1272C334.579 96.0869 330.123 96.5667 325.908 96.5667Z" fill="#282A2D"/>
<path d="M424.415 96.9266C397.556 96.9266 378.646 78.8128 378.646 53.1417C378.646 27.4705 397.556 9.35677 424.415 9.35677C451.274 9.35677 470.183 27.4705 470.183 53.1417C470.183 78.8128 451.274 96.9266 424.415 96.9266ZM406.709 53.1417C406.709 63.938 414.057 71.3754 424.415 71.3754C434.773 71.3754 442 63.938 442 53.1417C442 42.3454 434.773 34.908 424.415 34.908C414.057 34.908 406.709 42.3454 406.709 53.1417Z" fill="#282A2D"/>
<path d="M503.26 96.3268C487.843 96.3268 479.05 86.4902 479.05 68.6163V31.5491H505.187V66.3371C505.187 71.7353 507.836 74.6143 512.052 74.6143C516.99 74.6143 520.363 71.3754 520.363 66.0972V31.5491H546.499V95.1272H522.771L522.049 88.7694C517.472 93.6877 510.968 96.3268 503.26 96.3268Z" fill="#282A2D"/>
<path d="M558.722 95.1272V31.5491H582.69L583.413 37.667C587.147 32.8687 592.808 30.4695 599.312 30.4695C601.841 30.4695 604.37 30.8294 607.02 31.5491V55.181C604.25 54.5812 601.841 54.3413 599.432 54.3413C590.519 54.3413 584.858 58.8997 584.858 68.4964V95.1272H558.722Z" fill="#282A2D"/>
<path d="M689.116 96.9266C662.859 96.9266 644.431 78.8128 644.431 53.1417C644.431 27.4705 662.859 9.35677 689.116 9.35677C712.603 9.35677 729.947 23.8718 733.199 46.0641H706.219C703.931 39.1065 697.668 34.908 689.839 34.908C679.48 34.908 672.495 42.2254 672.495 53.1417C672.495 64.0579 679.48 71.3754 689.839 71.3754C697.908 71.3754 704.292 66.817 706.58 59.4995H733.319C730.308 82.1717 712.843 96.9266 689.116 96.9266Z" fill="#282A2D"/>
<path d="M742.741 95.1272V11.1562H769.239V95.1272H742.741Z" fill="#282A2D"/>
<path d="M782.399 95.1272V31.5491H808.535V95.1272H782.399ZM780.833 13.1955C780.833 5.5181 786.976 0 795.527 0C803.958 0 810.101 5.5181 810.101 13.1955C810.101 20.8728 803.958 26.3909 795.527 26.3909C786.976 26.3909 780.833 20.8728 780.833 13.1955Z" fill="#282A2D"/>
<path d="M853.742 96.6867C832.665 96.6867 818.091 83.1313 818.091 63.3382C818.091 43.545 832.665 29.9897 853.742 29.9897C876.867 29.9897 892.525 46.424 888.791 69.0962H842.661C844.227 74.4943 848.081 77.3733 854.103 77.3733C857.837 77.3733 861.089 76.0538 863.378 73.8945H887.707C883.01 88.2896 870.243 96.6867 853.742 96.6867ZM842.782 57.1003H865.546C864.1 52.182 860.367 49.0631 854.344 49.0631C848.443 49.0631 844.468 52.062 842.782 57.1003Z" fill="#282A2D"/>
<path d="M898.648 95.1272V31.5491H922.255L923.098 38.0269C927.795 32.8687 934.781 30.2296 942.008 30.2296C958.388 30.2296 966.458 41.2658 966.458 58.06V95.1272H940.201V60.2192C940.201 54.9411 937.552 51.9421 932.975 51.9421C928.157 51.9421 924.784 55.181 924.784 60.3392V95.1272H898.648Z" fill="#282A2D"/>
<path d="M1009.62 96.5667C993.964 96.5667 983.485 89.0093 983.485 72.455V51.5822H973.849V31.5491H983.485V18.8335L1009.62 16.3144V31.5491H1022.51V51.5822H1009.62V67.1768C1009.62 73.4147 1012.63 75.2141 1018.17 75.2141C1019.62 75.2141 1021.42 75.0941 1023.23 74.9742V95.1272C1018.29 96.0869 1013.84 96.5667 1009.62 96.5667Z" fill="#282A2D"/>
<path d="M1060.7 96.8066C1041.42 96.8066 1030.46 88.8893 1029.74 74.8542H1054.67C1054.91 77.7332 1057.2 79.4126 1060.82 79.4126C1064.07 79.4126 1066.36 77.9731 1066.36 75.8139C1066.36 73.0548 1063.83 72.0951 1055.64 71.2554C1039.14 69.696 1030.46 62.7384 1030.46 51.2223C1030.46 38.2668 1041.91 29.8697 1059.61 29.8697C1077.32 29.8697 1088.52 37.9069 1089.24 50.9824H1065.39C1065.03 48.4633 1062.86 46.9038 1059.73 46.9038C1056.6 46.9038 1054.79 48.1034 1054.79 50.1427C1054.79 52.9018 1057.2 54.1013 1065.88 54.8211C1082.74 56.2606 1091.29 63.3382 1091.29 75.2141C1091.29 88.2896 1079.12 96.8066 1060.7 96.8066Z" fill="#282A2D"/>
<path d="M1163.88 96.6867C1144.01 96.6867 1129.56 86.97 1128.71 67.4168H1155.45C1155.93 71.6153 1158.82 73.7746 1164.24 73.7746C1169.06 73.7746 1171.83 71.8552 1171.83 68.8563C1171.83 65.2575 1168.22 63.3382 1158.7 62.2585C1141.12 60.3392 1129.68 53.1417 1129.68 36.8273C1129.68 19.1934 1144.01 9.47673 1163.52 9.47673C1183.76 9.47673 1196.16 19.7932 1197.37 37.4271H1171.47C1170.87 33.9483 1167.98 31.6691 1163.64 31.6691C1159.06 31.6691 1156.53 33.4685 1156.53 36.5874C1156.53 40.0662 1160.15 41.6256 1169.9 42.7053C1187.61 44.7446 1199.29 52.182 1199.29 68.6163C1199.29 87.2099 1184.24 96.6867 1163.88 96.6867Z" fill="#282A2D"/>
<path d="M1235.78 96.3268C1217.36 96.3268 1204.95 82.7715 1204.95 63.3382C1204.95 43.545 1217.72 30.3495 1235.78 30.3495C1243.25 30.3495 1249.88 32.7487 1254.93 36.8273L1255.78 31.5491H1277.94V95.1272H1255.78L1254.93 89.849C1249.76 93.9276 1243.25 96.3268 1235.78 96.3268ZM1230.48 63.3382C1230.48 69.9359 1234.94 74.6143 1241.44 74.6143C1247.83 74.6143 1252.28 69.9359 1252.28 63.3382C1252.28 56.6205 1247.83 52.062 1241.44 52.062C1234.94 52.062 1230.48 56.6205 1230.48 63.3382Z" fill="#282A2D"/>
<path d="M1299.58 116V113.721L1308.62 92.2482L1285.73 34.1882V31.5491H1312.23L1318.01 49.183L1321.87 63.938L1325.72 49.183L1331.5 31.5491H1358V34.1882L1326.44 116H1299.58Z" fill="#282A2D"/>
</svg>
